<?xml version="1.0" standalone="no"?>
<!DOCTYPE svg PUBLIC "-//W3C//DTD SVG 1.1//EN" "http://www.w3.org/Graphics/SVG/1.1/DTD/svg11.dtd" >
<svg xmlns="http://www.w3.org/2000/svg" xmlns:xlink="http://www.w3.org/1999/xlink" version="1.1">
<metadata>
Created by FontForge 20170731 at Tue Jan 31 21:54:15 2023
 By Aleksey,,,
Copyright (c) 2004 The Hoefler Type Foundry, Inc., dba Hoefler &#38; Frere-Jones. All Rights Reserved.
</metadata>
<defs>
<font id="GothamRounded-Book" horiz-adv-x="1024" >
  <font-face 
    font-family="Gotham Rounded Book"
    font-weight="325"
    font-stretch="normal"
    units-per-em="2048"
    panose-1="0 0 0 0 0 0 0 0 0 0"
    ascent="1638"
    descent="-410"
    x-height="1059"
    cap-height="1444"
    bbox="-98 -498 2374 2130"
    underline-thickness="102"
    underline-position="-307"
    unicode-range="U+0020-2212"
  />
<missing-glyph 
d="M0 -410v2048h1024v-2048h-1024zM145 1536l367 -799l367 799h-734zM102 -156l353 770l-353 770v-1540zM922 1384l-353 -770l353 -770v1540zM512 492l-367 -799h734z" />
    <glyph glyph-name="f_f" unicode="ff" horiz-adv-x="1505" 
d="M236 70v850h-86q-29 0 -48.5 20t-19.5 49q0 28 20 48t48 20h86v92q0 180 92 272q82 82 227 82q73 0 125 -12q24 -5 40.5 -23.5t16.5 -44.5q0 -31 -22 -50.5t-53 -16.5q-67 10 -87 10q-184 0 -184 -225v-86h275q29 0 49 -19.5t20 -48.5q0 -28 -20 -47.5t-49 -19.5h-273
v-850q0 -33 -22.5 -56.5t-55.5 -23.5t-56 23.5t-23 56.5zM987 70v850h-86q-29 0 -48 20t-19 49q0 28 19.5 48t47.5 20h86v92q0 180 92 272q82 82 228 82q73 0 125 -12q24 -5 40.5 -23.5t16.5 -44.5q0 -31 -22.5 -50.5t-53.5 -16.5q-68 10 -86 10q-184 0 -184 -225v-86h274
q29 0 49.5 -19.5t20.5 -48.5q0 -28 -20.5 -47.5t-49.5 -19.5h-272v-850q0 -33 -22.5 -56.5t-55.5 -23.5t-56.5 23.5t-23.5 56.5z" />
    <glyph glyph-name="fi" unicode="fi" horiz-adv-x="1292" 
d="M928 1364v27q0 37 26.5 60.5t65.5 23.5q40 0 67 -23t27 -61v-27q0 -36 -27 -60t-67 -24q-39 0 -65.5 24t-26.5 60zM942 70v919q0 32 23 56t55 24q34 0 57 -23t23 -57v-919q0 -34 -22 -57t-56 -23t-57 23t-23 57zM236 70v850h-86q-29 0 -48.5 20t-19.5 49q0 28 20 48
t48 20h86v92q0 180 92 272q82 82 227 82q73 0 125 -12q24 -5 40.5 -23.5t16.5 -44.5q0 -31 -22 -50.5t-53 -16.5q-67 10 -87 10q-184 0 -184 -225v-86h275q29 0 49 -19.5t20 -48.5q0 -28 -20 -47.5t-49 -19.5h-273v-850q0 -33 -22.5 -56.5t-55.5 -23.5t-56 23.5t-23 56.5z
" />
    <glyph glyph-name="fl" unicode="fl" horiz-adv-x="1292" 
d="M942 70v1355q0 32 23 56t55 24q33 0 56.5 -23.5t23.5 -56.5v-1355q0 -34 -22 -57t-56 -23t-57 23t-23 57zM236 70v850h-86q-29 0 -48.5 20t-19.5 49q0 28 20 48t48 20h86v92q0 180 92 272q82 82 227 82q73 0 125 -12q24 -5 40.5 -23.5t16.5 -44.5q0 -31 -22 -50.5
t-53 -16.5q-67 10 -87 10q-184 0 -184 -225v-86h275q29 0 49 -19.5t20 -48.5q0 -28 -20 -47.5t-49 -19.5h-273v-850q0 -33 -22.5 -56.5t-55.5 -23.5t-56 23.5t-23 56.5z" />
    <glyph glyph-name="f_f_i" unicode="ffi" horiz-adv-x="2043" 
d="M1679 1364v27q0 37 27 60.5t66 23.5q40 0 67 -23t27 -61v-27q0 -36 -27 -60t-67 -24q-39 0 -66 24t-27 60zM1694 70v919q0 32 23 56t55 24q34 0 56.5 -23t22.5 -57v-919q0 -34 -22 -57t-55 -23q-34 0 -57 23t-23 57zM236 70v850h-86q-29 0 -48.5 20t-19.5 49q0 28 20 48
t48 20h86v92q0 180 92 272q82 82 227 82q73 0 125 -12q24 -5 40.5 -23.5t16.5 -44.5q0 -31 -22 -50.5t-53 -16.5q-67 10 -87 10q-184 0 -184 -225v-86h275q29 0 49 -19.5t20 -48.5q0 -28 -20 -47.5t-49 -19.5h-273v-850q0 -33 -22.5 -56.5t-55.5 -23.5t-56 23.5t-23 56.5z
M987 70v850h-86q-29 0 -48 20t-19 49q0 28 19.5 48t47.5 20h86v92q0 180 92 272q82 82 228 82q73 0 125 -12q24 -5 40.5 -23.5t16.5 -44.5q0 -31 -22.5 -50.5t-53.5 -16.5q-68 10 -86 10q-184 0 -184 -225v-86h274q29 0 49.5 -19.5t20.5 -48.5q0 -28 -20.5 -47.5
t-49.5 -19.5h-272v-850q0 -33 -22.5 -56.5t-55.5 -23.5t-56.5 23.5t-23.5 56.5z" />
    <glyph glyph-name="f_f_l" unicode="ffl" horiz-adv-x="2041" 
d="M236 70v850h-86q-29 0 -48.5 20t-19.5 49q0 28 20 48t48 20h86v92q0 180 92 272q82 82 227 82q73 0 125 -12q24 -5 40.5 -23.5t16.5 -44.5q0 -31 -22 -50.5t-53 -16.5q-67 10 -87 10q-184 0 -184 -225v-86h275q29 0 49 -19.5t20 -48.5q0 -28 -20 -47.5t-49 -19.5h-273
v-850q0 -33 -22.5 -56.5t-55.5 -23.5t-56 23.5t-23 56.5zM987 70v850h-86q-29 0 -48 20t-19 49q0 28 19.5 48t47.5 20h86v92q0 180 92 272q82 82 228 82q73 0 125 -12q24 -5 40.5 -23.5t16.5 -44.5q0 -31 -22.5 -50.5t-53.5 -16.5q-68 10 -86 10q-184 0 -184 -225v-86h274
q29 0 49.5 -19.5t20.5 -48.5q0 -28 -20.5 -47.5t-49.5 -19.5h-272v-850q0 -33 -22.5 -56.5t-55.5 -23.5t-56.5 23.5t-23.5 56.5zM1694 70v1355q0 32 23 56t55 24q33 0 56 -23.5t23 -56.5v-1355q0 -34 -22 -57t-55 -23q-34 0 -57 23t-23 57z" />
    <glyph glyph-name=".notdef" 
d="M0 -410v2048h1024v-2048h-1024zM145 1536l367 -799l367 799h-734zM102 -156l353 770l-353 770v-1540zM922 1384l-353 -770l353 -770v1540zM512 492l-367 -799h734z" />
    <glyph glyph-name=".null" horiz-adv-x="0" 
 />
    <glyph glyph-name="nonmarkingreturn" horiz-adv-x="682" 
 />
    <glyph glyph-name="space" unicode=" " horiz-adv-x="614" 
 />
    <glyph glyph-name="exclam" unicode="!" horiz-adv-x="555" 
d="M229 444l-47 930q-1 28 16.5 47t43.5 19h71q28 0 45 -19t15 -47l-47 -930q-2 -20 -15 -33.5t-32 -13.5q-20 0 -34 13.5t-16 33.5zM180 129q0 41 28 68.5t71 27.5q41 0 68.5 -27.5t27.5 -68.5v-41q0 -41 -27.5 -69.5t-68.5 -28.5q-43 0 -71 28t-28 70v41z" />
    <glyph glyph-name="quotedbl" unicode="&#x22;" horiz-adv-x="901" 
d="M537 922l51 440q5 36 26 57t56 21h53q21 0 34 -12.5t13 -36.5q0 -3 -10 -48l-129 -428q-15 -47 -49 -47q-22 0 -35 14t-10 40zM137 922l51 440q5 36 26 57t56 21h54q21 0 34 -12.5t13 -36.5q0 -5 -2 -13t-5 -18.5t-4 -16.5l-129 -428q-15 -47 -49 -47q-22 0 -35 14
t-10 40z" />
    <glyph glyph-name="numbersign" unicode="#" horiz-adv-x="1433" 
d="M268 76l49 286h-163q-28 0 -49 20.5t-21 49.5t21 50.5t49 21.5h188l76 434h-185q-29 0 -50 20.5t-21 49.5t21 50t50 21h209l52 301q5 28 24.5 46t46.5 18q34 0 54.5 -26.5t15.5 -59.5l-49 -279h385l51 301q5 28 24.5 46t47.5 18q34 0 54 -26.5t15 -59.5l-47 -279h162
q30 0 51 -20t21 -49t-21.5 -50.5t-50.5 -21.5h-186l-76 -434h182q29 0 50.5 -20.5t21.5 -49.5t-21.5 -50.5t-50.5 -21.5h-207l-53 -309q-3 -28 -23.5 -45.5t-48.5 -17.5q-34 0 -54 26.5t-15 59.5l51 286h-385l-53 -309q-5 -27 -24.5 -45t-47.5 -18q-35 0 -55 25.5t-15 60.5z
M487 504h383l76 434h-383z" />
    <glyph glyph-name="dollar" unicode="$" horiz-adv-x="1302" 
d="M598 1497q0 26 20 46t46 20t45.5 -20t19.5 -46v-67q183 -19 346 -132q41 -29 41 -67q0 -32 -22.5 -53t-55.5 -21q-26 0 -45 14q-134 98 -270 119v-506q233 -52 337.5 -146.5t104.5 -250.5q0 -163 -121 -269t-315 -118v-145q0 -26 -19.5 -46t-45.5 -20t-46 20t-20 46v149
q-236 20 -444 182q-35 24 -35 66q0 31 22.5 52.5t53.5 21.5q26 0 47 -17q174 -147 362 -168v514q-230 55 -333 147.5t-103 252.5q0 158 120.5 264t309.5 115v63zM1008 377q0 95 -62 153t-223 99v-494q131 7 208 73.5t77 168.5zM326 1065q0 -94 59 -152t219 -100v483
q-128 -6 -203 -70.5t-75 -160.5z" />
    <glyph glyph-name="percent" unicode="%" horiz-adv-x="1708" 
d="M430 717q-142 0 -233 106.5t-91 255.5v4q0 151 92 259t236 108q141 0 231.5 -107t90.5 -256v-4q0 -98 -40 -181t-115.5 -134t-170.5 -51zM305 47q0 21 12 39l975 1329q22 29 51 29q25 0 42.5 -17.5t17.5 -40.5q0 -20 -12 -38l-975 -1330q-21 -28 -51 -28q-25 0 -42.5 17
t-17.5 40zM1274 -16q-141 0 -231.5 106.5t-90.5 255.5v4q0 98 40 181.5t115.5 134.5t170.5 51q142 0 231.5 -106.5t89.5 -256.5v-4q0 -151 -90.5 -258.5t-234.5 -107.5zM434 831q82 0 134.5 71.5t52.5 176.5v4q0 106 -56 179t-135 73q-83 0 -134.5 -72t-51.5 -176v-4
q0 -107 55 -179.5t135 -72.5zM1278 98q83 0 134.5 71.5t51.5 176.5v4q0 107 -55 179.5t-135 72.5q-82 0 -134.5 -72.5t-52.5 -175.5v-4q0 -107 55.5 -179.5t135.5 -72.5z" />
    <glyph glyph-name="ampersand" unicode="&#x26;" horiz-adv-x="1425" 
d="M1266 -18q-35 0 -66 28l-186 195q-209 -225 -471 -225q-196 0 -323.5 111.5t-127.5 289.5v4q0 278 346 414q-76 89 -109.5 161t-33.5 154v4q0 144 106 242t273 98q149 0 248.5 -94t99.5 -229v-5q0 -252 -338 -372l328 -334q83 125 149 272q21 43 66 43q31 0 52 -21
t21 -52q0 -17 -10 -37q-85 -181 -178 -305l199 -203q30 -33 30 -64q0 -32 -21.5 -53.5t-53.5 -21.5zM594 850q138 46 207 112.5t69 159.5v4q0 86 -57 142.5t-145 56.5q-96 0 -156.5 -59t-60.5 -148v-4q0 -63 30.5 -119.5t112.5 -144.5zM555 117q193 0 360 188l-385 393
q-137 -51 -205.5 -131.5t-68.5 -175.5v-4q0 -116 84 -193t215 -77z" />
    <glyph glyph-name="quotesingle" unicode="'" horiz-adv-x="501" 
d="M137 922l51 440q5 36 26 57t56 21h54q21 0 34 -12.5t13 -36.5q0 -8 -9 -48l-131 -428q-8 -25 -19 -36t-30 -11q-23 0 -35.5 13.5t-9.5 40.5z" />
    <glyph glyph-name="parenleft" unicode="(" horiz-adv-x="888" 
d="M715 -281q-28 0 -37 9q-262 155 -400.5 371t-138.5 489t138.5 489t400.5 371q8 8 37 8q25 0 43 -18t18 -43q0 -35 -31 -56q-446 -291 -446 -751q0 -461 446 -752q31 -21 31 -55q0 -25 -18 -43.5t-43 -18.5z" />
    <glyph glyph-name="parenright" unicode=")" horiz-adv-x="888" 
d="M174 -281q-25 0 -43 18.5t-18 43.5q0 35 30 55q447 292 447 752q0 459 -447 751q-30 20 -30 56q0 25 18 43t43 18q29 0 37 -8q262 -155 400.5 -371t138.5 -489t-138.5 -489t-400.5 -371q-9 -9 -37 -9z" />
    <glyph glyph-name="asterisk" unicode="*" horiz-adv-x="880" 
d="M391 860l17 209l-172 -121q-22 -16 -41 -16q-22 0 -37 15.5t-15 37.5q0 16 11 29t26 18l199 92l-199 93q-37 19 -37 49q0 21 15.5 36t36.5 17q19 0 41 -16l172 -121l-17 207q-3 25 11.5 42t37.5 17t37.5 -17t11.5 -40l-16 -209l172 121q22 16 41 16q22 0 36.5 -15.5
t14.5 -37.5q0 -33 -37 -49l-198 -93l198 -92q37 -12 37 -47q0 -22 -15.5 -37.5t-35.5 -15.5q-19 0 -41 16l-172 121l16 -209q3 -23 -11.5 -40t-37.5 -17t-37.5 17t-11.5 40z" />
    <glyph glyph-name="plus" unicode="+" horiz-adv-x="1280" 
d="M563 293v354h-358q-31 0 -53.5 21.5t-22.5 52.5t22.5 52.5t53.5 21.5h358v354q0 32 23 54t55 22q31 0 53.5 -22t22.5 -54v-354h360q31 0 52.5 -21.5t21.5 -52.5t-21.5 -52.5t-52.5 -21.5h-360v-354q0 -32 -22.5 -54t-53.5 -22q-32 0 -55 22t-23 54z" />
    <glyph glyph-name="comma" unicode="," horiz-adv-x="501" 
d="M92 -205q0 27 27 37q63 28 90 68t24 100q-34 8 -56.5 33.5t-22.5 64.5v33q0 40 26.5 67t67.5 27q45 0 72.5 -30.5t27.5 -81.5v-39q0 -172 -74 -246q-31 -31 -72 -52.5t-67 -21.5q-20 0 -31.5 11t-11.5 30z" />
    <glyph glyph-name="hyphen" unicode="-" horiz-adv-x="835" 
d="M205 532q-34 0 -58 25t-24 59q0 33 24.5 57.5t57.5 24.5h426q33 0 57.5 -24.5t24.5 -57.5q0 -34 -24 -59t-58 -25h-426z" />
    <glyph glyph-name="period" unicode="." horiz-adv-x="501" 
d="M154 129q0 41 27.5 68.5t70.5 27.5q41 0 68.5 -27.5t27.5 -68.5v-41q0 -41 -27.5 -69.5t-68.5 -28.5q-42 0 -70 28t-28 70v41z" />
    <glyph glyph-name="slash" unicode="/" horiz-adv-x="1040" 
d="M-8 -209q0 22 10 35l891 1778q20 41 61 41q26 0 45 -19t19 -45q0 -19 -8 -35l-893 -1777q-20 -41 -60 -41q-28 0 -46.5 18.5t-18.5 44.5z" />
    <glyph glyph-name="zero" unicode="0" horiz-adv-x="1464" 
d="M731 -25q-136 0 -250.5 59t-191 159.5t-119.5 235t-43 284.5v4q0 201 74 369t214.5 270t319.5 102t318 -101t211.5 -268t72.5 -368v-4q0 -201 -73.5 -369.5t-213.5 -270.5t-319 -102zM735 123q98 0 180.5 48t137.5 129.5t85.5 188.5t30.5 224v4q0 158 -53 292.5
t-154.5 218t-230.5 83.5q-98 0 -181 -48t-138 -129t-86 -188t-31 -225v-4q0 -117 31.5 -224.5t87.5 -189.5t139.5 -131t181.5 -49z" />
    <glyph glyph-name="one" unicode="1" horiz-adv-x="733" 
d="M367 72v1210l-201 -65q-21 -7 -35 -7q-28 0 -49 20.5t-21 49.5q0 50 58 70l235 82q59 18 88 18h4q35 0 57.5 -23.5t22.5 -56.5v-1298q0 -34 -23 -58t-57 -24q-32 0 -55.5 24t-23.5 58z" />
    <glyph glyph-name="two" unicode="2" horiz-adv-x="1226" 
d="M90 76q0 43 39 76l489 432q169 150 234.5 247t65.5 203q0 123 -84 199t-205 76q-110 0 -193.5 -51.5t-163.5 -157.5q-22 -29 -59 -29q-31 0 -52.5 21.5t-21.5 52.5q0 25 17 45q96 134 206.5 199t278.5 65q193 0 318.5 -115t125.5 -290v-5q0 -103 -40.5 -191.5
t-112.5 -167.5t-209 -198l-383 -340h694q31 0 53.5 -21.5t22.5 -51.5q0 -31 -22.5 -52.5t-53.5 -21.5h-862q-36 0 -59 21.5t-23 54.5z" />
    <glyph glyph-name="three" unicode="3" horiz-adv-x="1255" 
d="M637 -25q-306 0 -500 218q-26 26 -26 57q0 32 23.5 56t55.5 24q35 0 60 -25q159 -182 389 -182q133 0 223 77t90 201v5q0 131 -110 203.5t-291 72.5h-51q-29 0 -50.5 20.5t-21.5 49.5q0 30 33 63l418 473h-635q-31 0 -53.5 21t-22.5 51q0 31 22.5 52.5t53.5 21.5h782
q34 0 56 -19.5t22 -50.5q0 -38 -39 -80l-422 -469q97 -8 180 -35.5t150 -75t105 -122.5t38 -170v-4q0 -189 -138 -311t-341 -122z" />
    <glyph glyph-name="four" unicode="4" horiz-adv-x="1374" 
d="M885 68v272h-713q-35 0 -58.5 22t-23.5 56q0 36 31 78l745 909q21 26 40.5 37.5t49.5 11.5q37 0 61.5 -24.5t24.5 -59.5v-895h162q28 0 49 -20t21 -49q0 -27 -21 -46.5t-49 -19.5h-162v-272q0 -32 -23 -55t-56 -23q-32 0 -55 23t-23 55zM283 475h602v739z" />
    <glyph glyph-name="five" unicode="5" horiz-adv-x="1253" 
d="M623 -25q-132 0 -252 51.5t-215 135.5q-33 26 -33 67q0 30 23 53t55 23t55 -20q179 -162 369 -162q151 0 247.5 89t96.5 228v4q0 134 -99.5 217.5t-257.5 83.5q-74 0 -137.5 -17.5t-102 -34.5t-50.5 -17q-32 0 -82 31q-38 26 -35 88l33 561q1 36 23 57t54 21h689
q31 0 52 -22t21 -54q0 -31 -21 -52.5t-52 -21.5h-619l-31 -459q145 64 283 64q140 0 252 -51.5t178 -152t66 -234.5v-5q0 -207 -143.5 -339t-366.5 -132z" />
    <glyph glyph-name="six" unicode="6" horiz-adv-x="1325" 
d="M682 -25q-231 0 -377 146q-92 92 -136 218.5t-44 336.5v4q0 164 41 305.5t116 247t188.5 165.5t250.5 60q205 0 373 -127q39 -25 39 -67q0 -32 -23 -55t-55 -23q-24 0 -45 14q-74 56 -144 83.5t-153 27.5q-193 0 -307.5 -176t-112.5 -457q149 219 407 219q134 0 246 -53
t181 -155t69 -232v-4q0 -206 -147.5 -342t-366.5 -136zM684 119q155 0 250.5 93.5t95.5 233.5v5q0 133 -98 220t-252 87q-156 0 -257 -94.5t-101 -219.5v-4q0 -137 102.5 -229t259.5 -92z" />
    <glyph glyph-name="seven" unicode="7" horiz-adv-x="1220" 
d="M322 66q0 21 12 49l594 1171h-723q-31 0 -53.5 21t-22.5 53q0 31 22.5 52.5t53.5 21.5h839q34 0 56 -19.5t22 -52.5q0 -30 -22 -72l-619 -1243q-26 -57 -78 -57q-33 0 -57 21.5t-24 54.5z" />
    <glyph glyph-name="eight" unicode="8" horiz-adv-x="1290" 
d="M645 -20q-231 0 -385 113.5t-154 291.5v4q0 123 80 213.5t215 138.5q-245 112 -245 330v4q0 108 67.5 195.5t179 135.5t242.5 48t242.5 -48t179.5 -135.5t68 -195.5v-4q0 -217 -246 -330q135 -50 215 -139t80 -211v-4q0 -120 -71 -213t-193.5 -143.5t-274.5 -50.5z
M645 799q139 0 233.5 73.5t94.5 188.5v4q0 106 -94 177t-234 71t-234 -70.5t-94 -177.5v-4q0 -115 94.5 -188.5t233.5 -73.5zM645 121q171 0 273 77.5t102 190.5v4q0 119 -108 196t-267 77t-267 -77t-108 -196v-4q0 -112 102 -190t273 -78z" />
    <glyph glyph-name="nine" unicode="9" horiz-adv-x="1325" 
d="M604 -25q-208 0 -399 144q-37 26 -37 65q0 32 23 55t55 23q25 0 51 -16q150 -123 311 -123q127 0 225.5 80.5t151 223.5t49.5 325q-144 -230 -405 -230q-220 0 -360 125.5t-140 319.5v4q0 135 64.5 246t183.5 176t268 65q230 0 377 -147q87 -87 132.5 -218.5t45.5 -336.5
v-4q0 -225 -74.5 -402t-210.5 -276t-311 -99zM647 662q158 0 257.5 97t99.5 226v4q0 138 -103 232t-262 94q-156 0 -250 -98.5t-94 -237.5v-4q0 -137 98 -225t254 -88z" />
    <glyph glyph-name="colon" unicode=":" horiz-adv-x="522" 
d="M164 973q0 40 28 68t70 28q41 0 68.5 -28t27.5 -68v-43q0 -41 -27.5 -68.5t-68.5 -27.5q-43 0 -70.5 27.5t-27.5 68.5v43zM164 129q0 41 27.5 68.5t70.5 27.5q41 0 68.5 -27.5t27.5 -68.5v-41q0 -41 -27.5 -69.5t-68.5 -28.5q-42 0 -70 28t-28 70v41z" />
    <glyph glyph-name="semicolon" unicode=";" horiz-adv-x="522" 
d="M164 973q0 40 28 68t70 28q41 0 68.5 -28t27.5 -68v-43q0 -41 -27.5 -68.5t-68.5 -27.5q-43 0 -70.5 27.5t-27.5 68.5v43zM102 -205q0 27 27 37q63 28 90.5 68t24.5 100q-35 8 -57.5 33.5t-22.5 64.5v33q0 40 26.5 67t67.5 27q45 0 72.5 -30.5t27.5 -81.5v-39
q0 -173 -73 -246q-31 -31 -72.5 -52.5t-67.5 -21.5q-20 0 -31.5 11t-11.5 30z" />
    <glyph glyph-name="less" unicode="&#x3c;" horiz-adv-x="1280" 
d="M1032 207q-14 0 -39 10l-809 412q-59 29 -59 88v8q0 59 59 88l809 412q20 10 43 10q27 1 46.5 -19.5t19.5 -50.5q0 -46 -47 -69l-752 -373l752 -377q47 -23 47 -70q0 -30 -20 -49.5t-50 -19.5z" />
    <glyph glyph-name="equal" unicode="=" horiz-adv-x="1280" 
d="M231 406q-31 0 -53 21.5t-22 53.5q0 31 22 53.5t53 22.5h818q32 0 54.5 -22.5t22.5 -53.5q0 -32 -22.5 -53.5t-54.5 -21.5h-818zM231 885q-31 0 -53 22t-22 54q0 31 22 53t53 22h818q32 0 54.5 -22t22.5 -53q0 -32 -22.5 -54t-54.5 -22h-818z" />
    <glyph glyph-name="greater" unicode="&#x3e;" horiz-adv-x="1280" 
d="M248 1235q11 0 41 -10l807 -412q61 -30 61 -88v-8q0 -58 -61 -88l-807 -412q-23 -10 -43 -10q-28 -1 -48 19.5t-20 49.5q0 46 47 70l752 373l-752 377q-47 24 -47 69q0 29 20.5 49.5t49.5 20.5z" />
    <glyph glyph-name="question" unicode="?" horiz-adv-x="1099" 
d="M508 395h-8q-20 0 -35.5 15.5t-18.5 40.5l-22 229q-3 29 13.5 49t45.5 23q166 12 260.5 85t94.5 199v4q0 113 -82 190t-217 77q-191 0 -338 -160q-27 -23 -56 -23q-31 0 -52 20.5t-21 51.5t24 55q184 201 447 201q205 0 331.5 -114t126.5 -291v-5q0 -93 -33.5 -167.5
t-93 -124t-134.5 -80t-165 -43.5l-14 -176q-3 -25 -17.5 -40.5t-35.5 -15.5zM403 129q0 41 28.5 68.5t70.5 27.5q41 0 69.5 -27.5t28.5 -68.5v-41q0 -41 -28.5 -69.5t-69.5 -28.5t-70 28.5t-29 69.5v41z" />
    <glyph glyph-name="at" unicode="@" horiz-adv-x="2007" 
d="M1022 -332q-129 0 -249.5 32.5t-220.5 90.5t-183 140.5t-140 180.5t-88.5 213t-31.5 236q0 181 70 346t189.5 286t286 193t351.5 72q184 0 350.5 -67t284.5 -178t187.5 -259.5t69.5 -306.5q0 -125 -33 -224t-88 -158t-121.5 -89.5t-139.5 -30.5q-109 0 -183 46.5
t-104 125.5q-146 -172 -338 -172q-154 0 -260.5 104t-106.5 269q0 106 41.5 202t108.5 162.5t152 106t171 39.5q202 0 299 -170l17 88q6 34 24.5 52t46.5 18q33 0 53.5 -25.5t14.5 -60.5l-74 -414q-14 -80 -14 -125q0 -78 45.5 -122t128.5 -44q119 0 203 108.5t84 313.5
q0 140 -63 274.5t-170 238t-261 166.5t-325 63q-173 0 -327 -66t-262.5 -177t-171.5 -264t-63 -321q0 -136 39.5 -261t114.5 -226.5t177 -177t233 -117t276 -41.5t261 32t233 99q8 4 20 4t21.5 -10.5t9.5 -22.5q0 -11 -17 -28q-249 -144 -528 -144zM922 272q132 0 233.5 112
t101.5 257q0 112 -71 186t-178 74q-132 0 -234 -109t-102 -264q0 -119 69.5 -187.5t180.5 -68.5z" />
    <glyph glyph-name="A" unicode="A" horiz-adv-x="1605" 
d="M104 63q0 21 11 43l581 1272q32 72 103 72h8q71 0 100 -72l582 -1269q10 -23 10 -41q0 -32 -23 -55t-55 -23q-55 0 -80 59l-149 330h-786l-150 -334q-22 -55 -78 -55q-31 0 -52.5 21t-21.5 52zM469 526h659l-329 734z" />
    <glyph glyph-name="B" unicode="B" horiz-adv-x="1478" 
d="M203 82v1270q0 34 24 58t56 24h530q245 0 375 -127q92 -95 92 -230v-4q0 -128 -64 -208.5t-163 -123.5q307 -92 307 -346v-4q0 -183 -141.5 -287t-378.5 -104h-557q-32 0 -56 24t-24 58zM362 795h424q150 0 240 66.5t90 189.5v4q0 108 -83 170.5t-234 62.5h-437v-493z
M362 145h482q163 0 257.5 68t94.5 188v5q0 118 -97.5 181.5t-283.5 63.5h-453v-506z" />
    <glyph glyph-name="C" unicode="C" horiz-adv-x="1511" 
d="M858 -25q-152 0 -286.5 57.5t-229 156.5t-149 235t-54.5 289v4q0 151 54.5 287t149 236t230.5 159t291 59q163 0 283 -47.5t229 -138.5q33 -29 33 -66q0 -32 -25 -56t-57 -24q-25 0 -53 19q-90 80 -188.5 122t-223.5 42q-117 0 -220 -46t-176.5 -124t-116 -187
t-42.5 -231v-4q0 -164 72.5 -299.5t200 -214t282.5 -78.5q129 0 229.5 43t196.5 131q23 23 51 23q31 0 54.5 -23.5t23.5 -54.5q0 -36 -26 -58q-114 -104 -239.5 -157.5t-293.5 -53.5z" />
    <glyph glyph-name="D" unicode="D" horiz-adv-x="1601" 
d="M203 82v1270q0 34 24 58t56 24h417q166 0 309 -55t242 -150t155 -226.5t56 -281.5v-4q0 -150 -56 -282t-155 -228t-242 -151.5t-309 -55.5h-417q-32 0 -56 24t-24 58zM365 150h335q133 0 245 43.5t188 119t118.5 179t42.5 221.5v4q0 118 -42.5 222t-118.5 180.5
t-188 120.5t-245 44h-335v-1134z" />
    <glyph glyph-name="E" unicode="E" horiz-adv-x="1372" 
d="M283 0q-32 0 -56 24t-24 58v1270q0 34 24 58t56 24h891q31 0 52 -21.5t21 -52.5t-21 -52.5t-52 -21.5h-809v-489h716q30 0 52 -22t22 -52q0 -31 -21.5 -52.5t-52.5 -21.5h-716v-502h819q31 0 52 -21t21 -52t-21 -52.5t-52 -21.5h-901z" />
    <glyph glyph-name="F" unicode="F" horiz-adv-x="1343" 
d="M203 72v1280q0 34 24 58t56 24h886q31 0 52.5 -21.5t21.5 -52.5t-21.5 -53.5t-52.5 -22.5h-804v-512h712q31 0 52.5 -21.5t21.5 -52.5t-21.5 -52t-52.5 -21h-712v-553q0 -34 -24 -58t-58 -24q-32 0 -56 24t-24 58z" />
    <glyph glyph-name="G" unicode="G" horiz-adv-x="1605" 
d="M868 -25q-220 0 -387.5 99.5t-254.5 266t-87 372.5v4q0 147 52.5 281.5t145 236.5t228.5 162.5t293 60.5q155 0 270.5 -38.5t219.5 -114.5q32 -25 32 -66q0 -34 -24 -58t-56 -24q-23 0 -51 21q-84 64 -177 97.5t-220 33.5q-155 0 -280.5 -80.5t-195 -214.5t-69.5 -293v-4
q0 -171 68.5 -306t198 -212.5t300.5 -77.5q118 0 227 40t187 103v357h-385q-29 0 -50.5 21t-21.5 50q0 31 21.5 52.5t50.5 21.5h461q32 0 56 -24t24 -58v-436q0 -61 -55 -98q-239 -175 -521 -175z" />
    <glyph glyph-name="H" unicode="H" horiz-adv-x="1556" 
d="M203 72v1290q0 34 24 58t56 24q34 0 58 -24t24 -58v-565h827v565q0 34 24 58t58 24q32 0 56 -24t24 -58v-1290q0 -34 -24 -58t-56 -24q-34 0 -58 24t-24 58v573h-827v-573q0 -34 -24 -58t-58 -24q-32 0 -56 24t-24 58z" />
    <glyph glyph-name="I" unicode="I" horiz-adv-x="595" 
d="M217 72v1290q0 34 24 58t56 24q34 0 58 -24t24 -58v-1290q0 -34 -24 -58t-58 -24q-32 0 -56 24t-24 58z" />
    <glyph glyph-name="J" unicode="J" horiz-adv-x="1132" 
d="M506 -20q-255 0 -406 204q-22 22 -22 56q0 32 24 55.5t56 23.5q33 0 57 -28q61 -83 130 -122.5t165 -39.5q126 0 203.5 89.5t77.5 254.5v889q0 34 23.5 58t57.5 24t57 -24t23 -58v-887q0 -246 -131 -377q-121 -118 -315 -118z" />
    <glyph glyph-name="K" unicode="K" horiz-adv-x="1462" 
d="M203 72v1290q0 34 24 58t56 24q34 0 58 -24t24 -58v-784l817 837q33 29 63 29q32 0 55 -24.5t23 -55.5q0 -30 -27 -57l-508 -504l545 -672q23 -30 23 -59q0 -33 -24.5 -57.5t-57.5 -24.5q-40 0 -66 37l-534 665l-309 -309v-311q0 -34 -24 -58t-58 -24q-32 0 -56 24
t-24 58z" />
    <glyph glyph-name="L" unicode="L" horiz-adv-x="1267" 
d="M203 82v1280q0 34 24 58t56 24q34 0 58 -24t24 -58v-1212h743q31 0 52.5 -22.5t21.5 -53.5t-21.5 -52.5t-52.5 -21.5h-825q-32 0 -56 24t-24 58z" />
    <glyph glyph-name="M" unicode="M" horiz-adv-x="1777" 
d="M203 70v1290q0 32 24 56t56 24h18q48 0 76 -43l512 -770l512 770q25 43 76 43h18q32 0 56 -24t24 -56v-1288q0 -34 -24 -58t-56 -24q-33 0 -57.5 24.5t-24.5 57.5v1069l-459 -674q-27 -41 -67 -41q-43 0 -70 41l-457 672v-1069q0 -34 -22.5 -57t-56.5 -23q-32 0 -55 23
t-23 57z" />
    <glyph glyph-name="N" unicode="N" horiz-adv-x="1617" 
d="M203 70v1290q0 32 24 56t56 24h22q45 0 82 -47l870 -1110v1081q0 33 23.5 56.5t56.5 23.5q32 0 55 -24t23 -56v-1294q0 -32 -21 -54t-53 -22h-8q-42 0 -84 49l-889 1137v-1110q0 -33 -23 -56.5t-56 -23.5q-32 0 -55 24t-23 56z" />
    <glyph glyph-name="O" unicode="O" horiz-adv-x="1740" 
d="M868 -25q-159 0 -297 60t-231.5 161t-147 235.5t-53.5 281.5v4q0 147 54 282t148.5 236.5t233 162t297.5 60.5t297 -59.5t232 -160.5t147.5 -235.5t53.5 -281.5v-4q0 -118 -34 -229t-99 -203.5t-153.5 -162t-204 -108.5t-243.5 -39zM872 125q161 0 290 79t200.5 213
t71.5 296v4q0 162 -72.5 297t-202.5 215t-291 80t-290 -79t-200 -213t-71 -296v-4q0 -162 72 -297t202 -215t291 -80z" />
    <glyph glyph-name="P" unicode="P" horiz-adv-x="1368" 
d="M203 72v1280q0 34 24 58t56 24h456q245 0 391 -122t146 -333v-4q0 -113 -45 -203.5t-122.5 -147.5t-178.5 -87.5t-217 -30.5h-348v-434q0 -34 -24 -58t-58 -24q-32 0 -56 24t-24 58zM365 653h354q178 0 285.5 87t107.5 229v4q0 150 -104 230.5t-281 80.5h-362v-631z" />
    <glyph glyph-name="Q" unicode="Q" horiz-adv-x="1740" 
d="M868 -25q-159 0 -297 60t-231.5 161t-147 235.5t-53.5 281.5v4q0 147 54 282t148.5 236.5t233 162t297.5 60.5t297 -59.5t232 -160.5t147.5 -235.5t53.5 -281.5v-4q0 -274 -170 -481l135 -113q32 -29 32 -68q0 -33 -23 -56.5t-56 -23.5q-32 0 -62 27l-139 125
q-196 -152 -451 -152zM987 418q-35 27 -35 65q0 34 24 58t56 24q33 0 62 -26l219 -201q121 158 121 375v4q0 162 -72.5 297t-202.5 215t-291 80t-290 -79t-200 -213t-71 -296v-4q0 -162 72 -297t202 -215t291 -80q192 0 332 106z" />
    <glyph glyph-name="R" unicode="R" horiz-adv-x="1480" 
d="M203 72v1280q0 34 24 58t56 24h536q264 0 408 -144q110 -110 110 -282v-4q0 -171 -104 -276.5t-279 -139.5l357 -459q26 -29 26 -59q0 -32 -25.5 -56t-56.5 -24q-44 0 -75 43l-404 524h-411v-485q0 -34 -24 -58t-58 -24q-32 0 -56 24t-24 58zM365 702h440
q164 0 266.5 79.5t102.5 215.5v4q0 132 -97 207.5t-270 75.5h-442v-582z" />
    <glyph glyph-name="S" unicode="S" horiz-adv-x="1310" 
d="M694 -20q-300 0 -542 192q-31 21 -31 61q0 34 23 57t55 23q31 0 49 -18q103 -88 210.5 -129t241.5 -41q143 0 231.5 68.5t88.5 175.5v4q0 70 -30 116.5t-112.5 85.5t-230.5 70q-255 56 -368 149t-113 265v4q0 169 133.5 280t337.5 111q138 0 247.5 -34.5t209.5 -106.5
q34 -25 34 -66q0 -32 -22.5 -55t-54.5 -23q-26 0 -47 15q-172 125 -371 125q-137 0 -221 -66.5t-84 -165.5v-4q0 -71 31 -118t116.5 -86.5t241.5 -73.5q243 -53 355 -148.5t112 -257.5v-4q0 -183 -137 -294t-353 -111z" />
    <glyph glyph-name="T" unicode="T" horiz-adv-x="1327" 
d="M582 72v1212h-416q-31 0 -53.5 21.5t-22.5 52.5t22.5 53.5t53.5 22.5h995q31 0 53.5 -22.5t22.5 -53.5t-22.5 -52.5t-53.5 -21.5h-416v-1212q0 -34 -23.5 -58t-57.5 -24t-58 24t-24 58z" />
    <glyph glyph-name="U" unicode="U" horiz-adv-x="1554" 
d="M776 -23q-272 0 -434 162.5t-162 460.5v762q0 34 24 58t56 24q34 0 58 -24t24 -58v-752q0 -230 116 -356.5t322 -126.5q202 0 317 121.5t115 351.5v762q0 34 24 58t58 24q32 0 56 -24t24 -58v-750q0 -307 -161.5 -471t-436.5 -164z" />
    <glyph glyph-name="V" unicode="V" horiz-adv-x="1523" 
d="M758 -16q-68 0 -94 67l-553 1276q-9 18 -9 37q0 31 24.5 55.5t57.5 24.5q59 0 84 -62l496 -1187l498 1191q28 58 79 58q33 0 56.5 -23.5t23.5 -54.5q0 -18 -6 -33l-555 -1282q-29 -67 -94 -67h-8z" />
    <glyph glyph-name="W" unicode="W" horiz-adv-x="2254" 
d="M575 51l-458 1274q-8 24 -8 37q0 32 25 57t59 25q29 0 51 -19.5t32 -48.5l396 -1138l375 1142q21 64 79 64h11q59 0 80 -64l374 -1142l398 1142q21 64 77 64q32 0 57 -24.5t25 -55.5q0 -9 -10 -39l-459 -1274q-24 -69 -84 -69h-12q-60 0 -84 69l-373 1102l-370 -1102
q-24 -69 -84 -69h-13q-62 0 -84 69z" />
    <glyph glyph-name="X" unicode="X" horiz-adv-x="1472" 
d="M135 66q0 31 23 57l479 608l-455 574q-26 33 -26 61q0 31 23.5 54.5t56.5 23.5q38 0 71 -41l432 -561l426 555q20 24 37 35.5t41 11.5q30 0 52 -22t22 -54q0 -31 -23 -57l-456 -578l473 -604q26 -29 26 -59q0 -33 -23.5 -56.5t-56.5 -23.5q-38 0 -71 41l-453 587
l-446 -581q-21 -24 -38 -35.5t-42 -11.5q-28 0 -50 22t-22 54z" />
    <glyph glyph-name="Y" unicode="Y" horiz-adv-x="1449" 
d="M643 72v491l-532 746q-19 30 -19 55q0 32 25 56t59 24q44 0 78 -49l473 -682l477 682q34 49 76 49q33 0 56.5 -23.5t23.5 -56.5q0 -22 -23 -59l-530 -738v-495q0 -34 -24 -58t-58 -24t-58 24t-24 58z" />
    <glyph glyph-name="Z" unicode="Z" horiz-adv-x="1419" 
d="M213 0q-31 0 -53.5 21t-22.5 49v4q0 34 29 71l899 1143h-832q-31 0 -52 21t-21 51q0 31 21 52.5t52 21.5h977q29 0 51.5 -21t22.5 -49v-4q0 -35 -29 -72l-899 -1143h865q31 0 52 -21t21 -50q0 -31 -21 -52.5t-52 -21.5h-1008z" />
    <glyph glyph-name="bracketleft" unicode="[" horiz-adv-x="899" 
d="M193 -186v1540q0 32 23.5 56t55.5 24h455q25 0 43 -18.5t18 -43.5t-18 -43t-43 -18h-385v-1454h385q25 0 43 -18.5t18 -43.5t-18 -43t-43 -18h-455q-32 0 -55.5 24t-23.5 56z" />
    <glyph glyph-name="backslash" unicode="\" horiz-adv-x="1040" 
d="M1049 -209q0 -26 -19 -44.5t-47 -18.5q-39 0 -59 41l-893 1777q-8 16 -8 35q0 26 18.5 45t44.5 19q41 0 61 -41l893 -1778q9 -18 9 -35z" />
    <glyph glyph-name="bracketright" unicode="]" horiz-adv-x="899" 
d="M709 1354v-1540q0 -32 -24 -56t-56 -24h-455q-26 0 -44.5 18t-18.5 43t18.5 43.5t44.5 18.5h385v1454h-385q-26 0 -44.5 18t-18.5 43t18.5 43.5t44.5 18.5h455q32 0 56 -24t24 -56z" />
    <glyph glyph-name="asciicircum" unicode="^" 
d="M510 1325l-207 -272q-24 -30 -47 -41t-55 -11q-17 0 -28 9t-11 20q0 19 14 39l244 326q41 51 84 51h16q43 0 84 -51l242 -326q16 -19 16 -39q0 -11 -11.5 -20t-29.5 -9q-35 0 -57.5 11t-46.5 41z" />
    <glyph glyph-name="underscore" unicode="_" horiz-adv-x="1228" 
d="M-4 -328q-27 0 -46.5 19.5t-19.5 46.5q0 26 19.5 44.5t46.5 18.5h1237q26 0 45.5 -18.5t19.5 -44.5q0 -28 -19 -47t-46 -19h-1237z" />
    <glyph glyph-name="grave" unicode="`" 
d="M592 1210q-31 0 -51.5 7.5t-44.5 31.5l-154 146q-29 29 -29 47q0 21 37 41t74 20q44 0 74 -47l123 -186q10 -13 10 -31q0 -12 -11 -20.5t-28 -8.5z" />
    <glyph glyph-name="a" unicode="a" horiz-adv-x="1185" 
d="M492 -23q-102 0 -190 36t-147 113t-59 181v4q0 164 123.5 253t329.5 89q168 0 325 -45v37q0 141 -82 215t-233 74q-140 0 -274 -60q-15 -6 -29 -6q-28 0 -49 20t-21 48q0 23 13 40.5t30 24.5q166 72 346 72q226 0 343 -117q108 -108 108 -309v-579q0 -34 -22 -56t-54 -22
q-33 0 -54.5 21t-21.5 52v97q-141 -183 -382 -183zM522 102q149 0 252 81.5t103 205.5v103q-153 45 -312 45q-147 0 -228 -59.5t-81 -160.5v-4q0 -96 77 -153.5t189 -57.5z" />
    <glyph glyph-name="b" unicode="b" horiz-adv-x="1359" 
d="M176 70v1355q0 34 23 57t55 23q34 0 57 -23t23 -57v-579q159 235 405 235q77 0 150.5 -23.5t137.5 -70t113 -111.5t77 -154t28 -190v-4q0 -126 -43 -231.5t-114 -174.5t-161.5 -107t-187.5 -38q-249 0 -405 226v-133q0 -33 -22.5 -56.5t-55.5 -23.5t-56.5 23.5
t-23.5 56.5zM711 119q159 0 265.5 110t106.5 297v4q0 183 -108.5 296.5t-263.5 113.5q-153 0 -268 -116t-115 -292v-4q0 -90 32 -167.5t85.5 -129.5t122.5 -82t143 -30z" />
    <glyph glyph-name="c" unicode="c" horiz-adv-x="1169" 
d="M653 -25q-151 0 -276 75t-195.5 201t-70.5 273v4q0 148 70.5 275t195.5 202.5t276 75.5q222 0 389 -153q25 -21 25 -56q0 -32 -22.5 -53.5t-53.5 -21.5q-29 0 -51 18q-66 60 -133.5 93.5t-155.5 33.5q-160 0 -269.5 -119.5t-109.5 -290.5v-4q0 -172 112.5 -291.5
t277.5 -119.5q158 0 294 129q20 20 45 20q29 0 50.5 -21.5t21.5 -49.5q0 -30 -20 -50q-170 -170 -400 -170z" />
    <glyph glyph-name="d" unicode="d" horiz-adv-x="1359" 
d="M1184 1425v-1355q0 -34 -23 -57t-55 -23q-34 0 -57 23t-23 57v143q-160 -236 -405 -236q-77 0 -150.5 23.5t-137.5 70t-113 111.5t-77 154t-28 190v4q0 125 43 231t114.5 175t162 107t186.5 38q250 0 405 -225v569q0 34 22 57t56 23t57 -23t23 -57zM649 940
q-159 0 -266 -110.5t-107 -297.5v-4q0 -182 109.5 -295.5t263.5 -113.5q153 0 268 116t115 293v4q0 177 -115 292.5t-268 115.5z" />
    <glyph glyph-name="e" unicode="e" horiz-adv-x="1212" 
d="M270 588h682q-13 155 -100.5 257.5t-237.5 102.5q-137 0 -233 -101.5t-111 -258.5zM1038 135q-81 -78 -176 -119t-223 -41q-145 0 -265 68.5t-191.5 195.5t-71.5 287v4q0 151 65 277t181.5 200t260.5 74q114 0 208.5 -44t155.5 -118.5t94.5 -171t33.5 -202.5
q0 -32 -22 -53t-52 -21h-766q17 -167 122 -262.5t251 -95.5q172 0 305 123q22 18 45 18q29 0 49.5 -20t20.5 -48q0 -29 -25 -51z" />
    <glyph glyph-name="f" unicode="f" horiz-adv-x="751" 
d="M236 70v850h-86q-29 0 -48.5 20t-19.5 49q0 28 20 48t48 20h86v92q0 180 92 272q82 82 227 82q73 0 125 -12q24 -5 40.5 -23.5t16.5 -44.5q0 -31 -22 -50.5t-53 -16.5q-67 10 -87 10q-184 0 -184 -225v-86h275q29 0 49 -19.5t20 -48.5q0 -28 -20 -47.5t-49 -19.5h-273
v-850q0 -33 -22.5 -56.5t-55.5 -23.5t-56 23.5t-23 56.5z" />
    <glyph glyph-name="g" unicode="g" horiz-adv-x="1359" 
d="M645 -332q-239 0 -442 125q-41 20 -41 66q0 26 21.5 47.5t49.5 21.5q18 0 35 -10q172 -115 375 -115q179 0 282 97.5t103 279.5v125q-167 -223 -416 -223q-96 0 -185 35t-158.5 98t-111.5 157.5t-42 205.5v4q0 112 42 207.5t112 158.5t159 98t184 35q255 0 414 -213v121
q0 33 22.5 56.5t55.5 23.5t56.5 -23.5t23.5 -56.5v-805q0 -239 -135 -374q-142 -142 -404 -142zM643 221q156 0 272.5 102t116.5 257v4q0 157 -116 257.5t-273 100.5q-155 0 -261 -98.5t-106 -257.5v-4q0 -156 108 -258.5t259 -102.5z" />
    <glyph glyph-name="h" unicode="h" horiz-adv-x="1261" 
d="M176 70v1355q0 32 23 56t55 24q33 0 56.5 -23.5t23.5 -56.5v-551q126 207 362 207q189 0 297.5 -116t108.5 -308v-587q0 -34 -23 -57t-55 -23q-34 0 -57 23t-23 57v548q0 149 -77.5 234.5t-215.5 85.5t-227.5 -92t-89.5 -240v-536q0 -34 -22 -57t-56 -23t-57 23t-23 57z
" />
    <glyph glyph-name="i" unicode="i" horiz-adv-x="538" 
d="M176 1364v27q0 37 26.5 60.5t65.5 23.5q40 0 67 -23t27 -61v-27q0 -36 -27 -60t-67 -24q-39 0 -65.5 24t-26.5 60zM190 70v919q0 32 23 56t55 24q34 0 57 -23t23 -57v-919q0 -34 -22 -57t-56 -23t-57 23t-23 57z" />
    <glyph glyph-name="j" unicode="j" horiz-adv-x="538" 
d="M176 1364v27q0 37 26.5 60.5t65.5 23.5q40 0 67 -23t27 -61v-27q0 -36 -27 -60t-67 -24q-39 0 -65.5 24t-26.5 60zM96 -334q-27 0 -37 2q-35 2 -57 19.5t-22 48.5q0 27 19 46t46 19q6 0 18 -1t17 -1q51 0 80.5 34t29.5 101v1055q0 32 23 56t55 24q34 0 57 -23t23 -57
v-1050q0 -136 -66.5 -204.5t-185.5 -68.5z" />
    <glyph glyph-name="k" unicode="k" horiz-adv-x="1163" 
d="M176 70v1355q0 32 23 56t55 24q33 0 56.5 -23.5t23.5 -56.5v-970l573 583q28 31 62 31q31 0 51 -22t20 -52q0 -31 -30 -61l-346 -340l378 -477q21 -27 21 -54q0 -32 -21.5 -52.5t-54.5 -20.5q-40 0 -67 37l-367 462l-219 -217v-202q0 -34 -22 -57t-56 -23t-57 23t-23 57z
" />
    <glyph glyph-name="l" unicode="l" horiz-adv-x="538" 
d="M190 70v1355q0 32 23 56t55 24q33 0 56.5 -23.5t23.5 -56.5v-1355q0 -34 -22 -57t-56 -23t-57 23t-23 57z" />
    <glyph glyph-name="m" unicode="m" horiz-adv-x="1947" 
d="M176 70v919q0 32 23 56t55 24q34 0 57 -23t23 -57v-108q29 44 58.5 76t71 62t95 46t117.5 16q123 0 208.5 -57.5t131.5 -153.5q137 211 373 211q183 0 288 -114.5t105 -311.5v-585q0 -34 -23 -57t-55 -23q-34 0 -57 23t-23 57v548q0 153 -72 236.5t-202 83.5
q-125 0 -208 -88t-83 -240v-540q0 -34 -23 -57t-57 -23q-32 0 -55 23t-23 57v553q0 148 -72.5 231.5t-199.5 83.5t-211 -94.5t-84 -239.5v-534q0 -34 -22 -57t-56 -23t-57 23t-23 57z" />
    <glyph glyph-name="n" unicode="n" horiz-adv-x="1261" 
d="M176 70v919q0 32 23 56t55 24q34 0 57 -23t23 -57v-115q126 207 362 207q189 0 297.5 -116t108.5 -308v-587q0 -34 -23 -57t-55 -23q-34 0 -57 23t-23 57v548q0 149 -77.5 234.5t-215.5 85.5t-227.5 -92t-89.5 -240v-536q0 -34 -22 -57t-56 -23t-57 23t-23 57z" />
    <glyph glyph-name="o" unicode="o" horiz-adv-x="1323" 
d="M659 -25q-116 0 -219 44t-174.5 118t-113 175t-41.5 212v4q0 149 71 275.5t198.5 202t283.5 75.5q116 0 219 -44t175 -118t114 -175t42 -212v-4q0 -148 -71.5 -275t-199.5 -202.5t-284 -75.5zM664 117q169 0 279 118.5t110 288.5v4q0 172 -114 293t-280 121
q-112 0 -201 -56t-137.5 -149.5t-48.5 -204.5v-4q0 -171 113 -291t279 -120z" />
    <glyph glyph-name="p" unicode="p" horiz-adv-x="1359" 
d="M176 -258v1247q0 34 23 57t55 23q34 0 57 -23t23 -57v-143q159 235 405 235q77 0 150.5 -23.5t137.5 -70t113 -111.5t77 -154t28 -190v-4q0 -126 -43 -231.5t-114 -174.5t-161.5 -107t-187.5 -38q-249 0 -405 226v-461q0 -34 -22 -57t-56 -23t-57 23t-23 57zM711 119
q159 0 265.5 110t106.5 297v4q0 183 -108.5 296.5t-263.5 113.5q-153 0 -268 -116t-115 -292v-4q0 -90 32 -167.5t85.5 -129.5t122.5 -82t143 -30z" />
    <glyph glyph-name="q" unicode="q" horiz-adv-x="1359" 
d="M1184 989v-1247q0 -34 -23 -57t-55 -23q-34 0 -57 23t-23 57v471q-160 -236 -405 -236q-77 0 -150.5 23.5t-137.5 70t-113 111.5t-77 154t-28 190v4q0 125 43 231t114.5 175t162 107t186.5 38q250 0 405 -225v133q0 33 22.5 56.5t55.5 23.5t56.5 -23.5t23.5 -56.5z
M649 940q-159 0 -266 -110.5t-107 -297.5v-4q0 -182 109.5 -295.5t263.5 -113.5q153 0 268 116t115 293v4q0 177 -115 292.5t-268 115.5z" />
    <glyph glyph-name="r" unicode="r" horiz-adv-x="829" 
d="M176 70v919q0 32 23 56t55 24q34 0 57 -23t23 -57v-198q57 129 159 205.5t205 76.5q35 0 56.5 -23t21.5 -57q0 -32 -19 -53.5t-50 -26.5q-164 -20 -268.5 -142.5t-104.5 -340.5v-360q0 -33 -22.5 -56.5t-55.5 -23.5q-34 0 -57 23t-23 57z" />
    <glyph glyph-name="s" unicode="s" horiz-adv-x="1019" 
d="M526 -20q-104 0 -212 35.5t-195 97.5q-29 21 -29 57q0 28 20.5 48t49.5 20q23 0 39 -13q165 -112 336 -112q96 0 157.5 46t61.5 122v4q0 31 -15 56.5t-37 43t-60.5 34.5t-70.5 27.5t-82 24.5q-45 13 -72.5 21.5t-68.5 24t-67 30.5t-56 38t-46.5 48.5t-28 60.5t-11.5 76v4
q0 135 101.5 219t259.5 84q171 0 338 -90q39 -23 39 -65q0 -28 -20.5 -48t-49.5 -20q-19 0 -35 8q-145 82 -276 82q-93 0 -149 -43t-56 -110v-5q0 -24 9 -44.5t31.5 -38t41.5 -29.5t58 -26.5t61.5 -21.5t70.5 -22q60 -18 100 -32.5t89.5 -40.5t79 -55.5t50.5 -74.5t21 -100
v-4q0 -147 -107 -232t-270 -85z" />
    <glyph glyph-name="t" unicode="t" horiz-adv-x="827" 
d="M530 -18q-136 0 -217.5 73t-81.5 226v639h-86q-28 0 -48.5 20.5t-20.5 48.5q0 29 20.5 49.5t48.5 20.5h86v250q0 33 22.5 56.5t55.5 23.5q32 0 56 -24t24 -56v-250h275q29 0 50 -21t21 -49q0 -29 -21 -49t-50 -20h-275v-619q0 -176 178 -176q33 0 64.5 7t32.5 7
q28 0 47.5 -19.5t19.5 -47.5q0 -45 -45 -62q-70 -28 -156 -28z" />
    <glyph glyph-name="u" unicode="u" horiz-adv-x="1261" 
d="M1083 989v-919q0 -33 -22 -56.5t-55 -23.5q-32 0 -55 23t-23 57v114q-130 -207 -363 -207q-189 0 -297 116t-108 308v588q0 34 22 57t56 23q32 0 55.5 -23.5t23.5 -56.5v-549q0 -149 77 -234t216 -85q137 0 227.5 92.5t90.5 239.5v536q0 34 22 57t56 23q32 0 54.5 -23
t22.5 -57z" />
    <glyph glyph-name="v" unicode="v" horiz-adv-x="1196" 
d="M690 51q-29 -67 -88 -67h-8q-61 0 -90 67l-398 897q-10 35 -10 43q0 31 23.5 54.5t56.5 23.5q59 0 80 -61l342 -828l348 832q18 57 74 57q32 0 55 -23t23 -55q0 -19 -8 -39z" />
    <glyph glyph-name="w" unicode="w" horiz-adv-x="1757" 
d="M522 -16q-64 0 -88 71l-321 895q-11 33 -11 43q0 30 23 53t57 23q60 0 80 -65l266 -795l269 797q20 63 77 63h9q62 0 82 -63l266 -797l270 799q18 61 76 61q33 0 55.5 -22t22.5 -52q0 -13 -10 -43l-324 -897q-24 -71 -86 -71h-6q-65 0 -86 71l-264 772l-267 -772
q-21 -71 -86 -71h-4z" />
    <glyph glyph-name="x" unicode="x" horiz-adv-x="1169" 
d="M123 61q0 32 20 52l346 426l-325 399q-25 28 -25 57q0 33 21.5 53.5t52.5 20.5q41 0 70 -37l305 -387l303 385q31 39 67 39q31 0 51.5 -20.5t20.5 -51.5q0 -28 -20 -51l-330 -403l344 -422q23 -30 23 -58q0 -32 -21.5 -52.5t-52.5 -20.5q-41 0 -70 37l-321 407l-320 -405
q-31 -39 -67 -39q-31 0 -51.5 21t-20.5 50z" />
    <glyph glyph-name="y" unicode="y" horiz-adv-x="1202" 
d="M330 -334q-83 0 -174 31q-50 20 -50 67q0 29 20.5 48.5t47.5 19.5q15 0 39 -8q59 -19 115 -19q72 0 120.5 44.5t92.5 144.5l8 16l-443 938q-10 23 -10 43q0 32 23 55t57 23q56 0 80 -61l369 -832l327 834q21 59 76 59q32 0 55 -23t23 -55q0 -15 -8 -39l-414 -987
q-68 -162 -150.5 -230.5t-203.5 -68.5z" />
    <glyph glyph-name="z" unicode="z" horiz-adv-x="1138" 
d="M190 0q-31 0 -53 18.5t-22 44.5v5q0 36 32 71l670 787h-618q-28 0 -48 19t-20 46q0 28 20 48t48 20h755q32 0 54 -19t22 -45v-4q0 -35 -33 -71l-669 -787h645q28 0 47.5 -19.5t19.5 -45.5q0 -28 -19.5 -48t-47.5 -20h-783z" />
    <glyph glyph-name="braceleft" unicode="{" horiz-adv-x="989" 
d="M815 -281q-124 26 -205 63t-125 89.5t-60.5 111.5t-16.5 142q0 15 1 76.5t1 79.5q0 124 -51.5 184t-182.5 61q-33 1 -52.5 18t-19.5 44q0 26 19.5 43t52.5 18q131 1 182.5 61.5t51.5 184.5q0 18 -1 79.5t-1 76.5q0 83 16.5 142t60.5 111t125 89t205 63q28 6 49 -9t21 -42
q0 -20 -11.5 -34t-25.5 -19q-79 -22 -130.5 -45t-84 -47.5t-49 -60.5t-22 -73.5t-5.5 -95.5q0 -20 1 -75.5t1 -77.5q0 -123 -54 -189.5t-159 -99.5q109 -36 161 -101t52 -188q0 -22 -1 -78t-1 -76q0 -73 9 -116t39 -83t87.5 -67.5t155.5 -54.5q14 -5 25.5 -19t11.5 -34
q0 -27 -21 -42.5t-49 -9.5z" />
    <glyph glyph-name="bar" unicode="|" horiz-adv-x="620" 
d="M244 -205v1782q0 28 19.5 48t47.5 20q26 0 46 -20t20 -48v-1782q0 -27 -19.5 -47t-46.5 -20q-28 0 -47.5 19.5t-19.5 47.5z" />
    <glyph glyph-name="braceright" unicode="}" horiz-adv-x="989" 
d="M174 1456q123 -26 204 -63t125.5 -89t61.5 -111t17 -142q0 -15 -1 -76.5t-1 -79.5q0 -124 50.5 -184.5t182.5 -61.5q33 -1 51.5 -17.5t18.5 -43.5t-18.5 -44t-51.5 -18q-132 -1 -182.5 -61t-50.5 -184q0 -18 1 -79.5t1 -76.5q0 -83 -17 -142t-61.5 -111.5t-125.5 -89.5
t-204 -63q-29 -6 -49.5 9t-20.5 43q0 20 11.5 34t25.5 19q97 27 154.5 54.5t88 67.5t39.5 83t9 116q0 20 -1 76t-1 78q0 123 54 189.5t159 99.5q-109 36 -161 101t-52 188q0 22 1 77.5t1 75.5q0 58 -5.5 95.5t-22.5 73.5t-49.5 60.5t-84 47.5t-129.5 45q-14 5 -25.5 19
t-11.5 34q0 28 20.5 42.5t49.5 8.5z" />
    <glyph glyph-name="asciitilde" unicode="~" horiz-adv-x="970" 
d="M258 514q-16 -33 -49 -33q-21 0 -36 13.5t-15 33.5q0 21 6 33q31 90 72.5 129t107.5 39q47 0 143.5 -42t130.5 -42q33 0 53 17t40 57q21 33 49 33q22 0 36.5 -13.5t14.5 -33.5q0 -17 -4 -33q-31 -89 -73 -128.5t-107 -39.5q-49 0 -146 42t-129 42q-34 0 -54 -17t-40 -57z
" />
    <glyph glyph-name="uni00A0" unicode="&#xa0;" horiz-adv-x="614" 
 />
    <glyph glyph-name="exclamdown" unicode="&#xa1;" horiz-adv-x="555" 
d="M326 989l47 -930q2 -28 -15 -46.5t-45 -18.5h-71q-26 0 -43.5 18.5t-16.5 46.5l47 930q2 20 16 33.5t34 13.5q19 0 32 -13.5t15 -33.5zM375 1305q0 -41 -27.5 -69t-68.5 -28q-43 0 -71 28t-28 69v43q0 40 28.5 68t70.5 28q41 0 68.5 -28t27.5 -68v-43z" />
    <glyph glyph-name="cent" unicode="&#xa2;" horiz-adv-x="1189" 
d="M449 59l28 146q-161 57 -259.5 199t-98.5 319v4q0 148 71 275t196.5 202.5t275.5 75.5h26l23 123q5 22 22.5 37.5t42.5 15.5q31 0 50 -24.5t12 -57.5l-23 -114q118 -33 238 -136q26 -26 26 -57q0 -32 -21 -54t-52 -22t-52 21q-90 80 -174 108l-155 -803q14 -2 43 -2
q161 0 297 129q21 21 49 21q27 0 47 -21t20 -49q0 -30 -22 -49q-169 -172 -400 -172q-37 0 -55 2l-29 -145q-5 -22 -21.5 -38t-41.5 -16q-31 0 -50.5 24.5t-12.5 57.5zM279 727q0 -128 63.5 -230.5t169.5 -150.5l152 793h-7q-159 0 -268.5 -118.5t-109.5 -289.5v-4z" />
    <glyph glyph-name="sterling" unicode="&#xa3;" horiz-adv-x="1318" 
d="M129 51q0 39 41 51l139 35v467h-108q-29 0 -50.5 20.5t-21.5 49.5t21.5 50t50.5 21h108v222q0 235 129 364q123 123 324 123q136 0 232 -47.5t171 -132.5q25 -29 25 -60q0 -33 -23 -55t-57 -22q-33 0 -59 26q-62 70 -128.5 106t-162.5 36q-122 0 -201 -76
q-88 -91 -88 -262v-222h510q29 0 50.5 -21t21.5 -50t-21.5 -49.5t-50.5 -20.5h-510v-461h664q29 0 51 -21t22 -50q0 -30 -21.5 -51t-51.5 -21h-953q-23 0 -38 14.5t-15 36.5z" />
    <glyph glyph-name="yen" unicode="&#xa5;" horiz-adv-x="1404" 
d="M780 545v-180h367q25 0 44 -19t19 -45t-19 -44.5t-44 -18.5h-367v-168q0 -34 -23 -57t-55 -23t-54.5 23t-22.5 57v168h-367q-25 0 -44 18.5t-19 44.5t19 45t44 19h367v180h-367q-25 0 -44 18.5t-19 44.5t19 45t44 19h315l-448 637q-19 32 -19 57q0 31 23.5 54.5
t56.5 23.5q48 0 76 -49l443 -660l444 662q31 47 76 47q31 0 53 -22t22 -54q0 -23 -20 -59l-453 -637h320q25 0 44 -19t19 -45t-19 -44.5t-44 -18.5h-367z" />
    <glyph glyph-name="section" unicode="&#xa7;" horiz-adv-x="1294" 
d="M672 -20q-124 0 -236 42.5t-198 116.5q-25 21 -25 56q0 30 21 50.5t51 20.5q28 0 51 -20q148 -131 340 -131q103 0 157 37.5t54 97.5v4q0 58 -74.5 101.5t-259.5 86.5q-233 56 -329.5 121.5t-96.5 169.5v4q0 91 73 152t197 82q-71 36 -111 89.5t-40 117.5v4
q0 123 103 197.5t274 74.5q124 0 236 -42.5t198 -117.5q24 -21 24 -55q0 -31 -20.5 -51.5t-50.5 -20.5q-28 0 -52 21q-148 131 -340 131q-102 0 -156 -37t-54 -98v-4q0 -59 73 -101.5t260 -87.5q234 -56 330 -121t96 -170v-4q0 -90 -73.5 -151t-196.5 -82
q71 -35 111.5 -88.5t40.5 -118.5v-4q0 -123 -103 -197.5t-274 -74.5zM793 539q98 0 160.5 41.5t62.5 99.5v4q0 54 -65 96.5t-226 81.5q-132 33 -223 33q-98 0 -160.5 -41.5t-62.5 -99.5v-4q0 -54 64.5 -97t225.5 -82q125 -32 224 -32z" />
    <glyph glyph-name="dieresis" unicode="&#xa8;" 
d="M694 1423q40 0 68.5 -26.5t28.5 -65.5v-31q0 -39 -28.5 -65.5t-68.5 -26.5t-68 26.5t-28 65.5v31q0 39 28 65.5t68 26.5zM330 1423q40 0 68 -26.5t28 -65.5v-31q0 -39 -28 -65.5t-68 -26.5t-68.5 26.5t-28.5 65.5v31q0 39 28.5 65.5t68.5 26.5z" />
    <glyph glyph-name="copyright" unicode="&#xa9;" horiz-adv-x="1699" 
d="M848 -25q-153 0 -290.5 59t-235.5 158.5t-155.5 235.5t-57.5 285v4q0 149 58 285.5t157 236.5t237 159.5t291 59.5t290.5 -59t235.5 -158t155.5 -235t57.5 -285v-4q0 -149 -58 -285.5t-157 -237t-237 -160t-291 -59.5zM848 39q141 0 267.5 54t215.5 145.5t141 216.5
t52 262v4q0 184 -87.5 338.5t-242 245t-342.5 90.5q-141 0 -267.5 -54t-215.5 -145.5t-141 -216.5t-52 -262v-4q0 -184 87.5 -338.5t242 -245t342.5 -90.5zM858 334q-161 0 -271 114t-110 277v4q0 162 110.5 276.5t274.5 114.5q149 0 264 -96q25 -21 25 -47q0 -23 -17 -39
t-40 -16q-15 0 -39 16q-94 80 -195 80q-114 0 -191 -84t-77 -203v-4q0 -119 78.5 -204t191.5 -85q61 0 108.5 20.5t96.5 63.5q17 13 35 13q22 0 37.5 -15t15.5 -37q0 -25 -18 -39q-63 -55 -127 -82.5t-152 -27.5z" />
    <glyph glyph-name="ordfeminine" unicode="&#xaa;" horiz-adv-x="798" 
d="M344 836q-89 0 -154 48.5t-65 135.5v4q0 90 69.5 140t182.5 50q81 0 164 -22v10q0 70 -42 108t-118 38q-57 0 -139 -31q-15 -6 -27 -6q-19 0 -32 12.5t-13 32.5q0 29 31 43q90 41 190 41q122 0 191 -66q59 -59 59 -172v-315q0 -20 -15.5 -34.5t-35.5 -14.5t-34.5 13.5
t-14.5 33.5v41q-74 -90 -197 -90zM362 922q74 0 126.5 40t52.5 103v49q-79 23 -156 23q-71 0 -112.5 -30.5t-41.5 -78.5v-4q0 -48 37.5 -75t93.5 -27zM158 592q-19 0 -33 13.5t-14 33.5t14 34.5t33 14.5h454q19 0 33 -14.5t14 -34.5t-14 -33.5t-33 -13.5h-454z" />
    <glyph glyph-name="guillemotleft" unicode="&#xab;" horiz-adv-x="1126" 
d="M922 86q-36 0 -58 33l-274 354q-25 31 -25 57q0 25 25 56l272 352q23 33 60 33q28 0 46.5 -19t18.5 -47q0 -24 -18 -49l-242 -324l244 -331q16 -21 16 -47q0 -28 -19 -48t-46 -20zM465 86q-31 0 -57 33l-273 354q-24 30 -24 57q0 26 24 56l271 352q23 33 59 33
q28 0 47.5 -19t19.5 -47q0 -24 -18 -49l-242 -324l244 -331q16 -22 16 -47q0 -28 -19.5 -48t-47.5 -20z" />
    <glyph glyph-name="registered" unicode="&#xae;" horiz-adv-x="825" 
d="M414 737q-150 0 -253.5 105t-103.5 252v2q0 147 104.5 252.5t252.5 105.5q150 0 253 -104.5t103 -251.5v-2q0 -147 -104 -253t-252 -106zM414 776q132 0 223.5 94t91.5 226v2q0 132 -90.5 224.5t-224.5 92.5q-133 0 -224.5 -94t-91.5 -225v-2q0 -132 91 -225t225 -93z
M274 950v299q0 14 10 24.5t25 10.5h129q62 0 101 -30t39 -85q0 -83 -80 -112l69 -82q11 -14 11 -27q0 -14 -10 -24.5t-23 -10.5q-18 0 -33 19l-94 115h-74v-97q0 -15 -10.5 -26t-24.5 -11q-15 0 -25 11t-10 26zM344 1104h88q35 0 54.5 16t19.5 43q0 60 -74 60h-88v-119z" />
    <glyph glyph-name="macron" unicode="&#xaf;" 
d="M782 1260h-540q-28 0 -47 19t-19 46t19.5 46.5t46.5 19.5h540q27 0 46.5 -19.5t19.5 -46.5t-19 -46t-47 -19z" />
    <glyph glyph-name="degree" unicode="&#xb0;" horiz-adv-x="937" 
d="M469 819q-127 0 -224.5 93.5t-97.5 217.5v5q0 125 97.5 218t224.5 93t224.5 -93t97.5 -218v-5q0 -124 -97.5 -217.5t-224.5 -93.5zM469 926q86 0 144.5 61t58.5 143v5q0 82 -58.5 143t-144.5 61t-144.5 -61t-58.5 -143v-5q0 -82 58.5 -143t144.5 -61z" />
    <glyph glyph-name="plusminus" unicode="&#xb1;" horiz-adv-x="1280" 
d="M565 410v335h-346q-29 0 -50.5 21.5t-21.5 50.5t21.5 50.5t50.5 21.5h346v336q0 31 22 53t54 22q31 0 52.5 -22t21.5 -53v-336h346q29 0 50.5 -21.5t21.5 -50.5t-21.5 -50.5t-50.5 -21.5h-346v-335q0 -31 -21.5 -53.5t-52.5 -22.5q-32 0 -54 22.5t-22 53.5zM219 0
q-29 0 -50.5 21.5t-21.5 50.5q0 28 21.5 48.5t50.5 20.5h844q29 0 49.5 -20.5t20.5 -48.5q0 -29 -20.5 -50.5t-49.5 -21.5h-844z" />
    <glyph glyph-name="acute" unicode="&#xb4;" 
d="M432 1210q-17 0 -28 8.5t-11 20.5q0 18 10 31l123 186q30 47 74 47q37 0 74 -20t37 -41q0 -18 -29 -47l-154 -146q-24 -24 -44.5 -31.5t-51.5 -7.5z" />
    <glyph glyph-name="paragraph" unicode="&#xb6;" horiz-adv-x="1044" 
d="M692 72v469h-22q-164 0 -292 50.5t-204 152t-76 241.5v4q0 206 149.5 325.5t391.5 119.5h135q34 0 58 -24t24 -58v-1280q0 -34 -23 -58t-57 -24q-35 0 -59.5 24t-24.5 58z" />
    <glyph glyph-name="periodcentered" unicode="&#xb7;" horiz-adv-x="501" 
d="M154 637q0 41 28.5 68.5t69.5 27.5q40 0 68 -27.5t28 -68.5v-41q0 -41 -28 -68.5t-68 -27.5q-41 0 -69.5 27.5t-28.5 68.5v41z" />
    <glyph glyph-name="cedilla" unicode="&#xb8;" 
d="M616 20l-129 -278q-12 -24 -25.5 -35.5t-37.5 -11.5q-31 0 -64.5 21.5t-33.5 43.5q0 16 12 37l154 223h124z" />
    <glyph glyph-name="ordmasculine" unicode="&#xba;" horiz-adv-x="798" 
d="M397 834q-127 0 -213 88t-86 213v4q0 126 87 215.5t216 89.5q127 0 213 -88t86 -213v-4q0 -126 -87 -215.5t-216 -89.5zM143 592q-20 0 -34.5 13.5t-14.5 33.5t14.5 34.5t34.5 14.5h512q20 0 35 -14.5t15 -34.5t-14.5 -33.5t-35.5 -13.5h-512zM401 932q83 0 136 59
t53 144v4q0 87 -55 147t-138 60t-135.5 -59t-52.5 -144v-4q0 -86 55 -146.5t137 -60.5z" />
    <glyph glyph-name="guillemotright" unicode="&#xbb;" horiz-adv-x="1126" 
d="M662 971q33 0 57 -31l274 -356q23 -33 23 -56q0 -22 -23 -55l-272 -352q-25 -35 -59 -35q-28 0 -48 20t-20 48q0 25 18 47l244 325l-244 332q-18 21 -18 47q0 28 20 47t48 19zM207 971q34 0 55 -31l275 -356q24 -30 24 -56q0 -25 -24 -55l-271 -352q-28 -35 -61 -35
q-28 0 -47 20t-19 48q0 24 19 47l241 325l-243 332q-19 30 -17 47q0 28 19.5 47t48.5 19z" />
    <glyph glyph-name="questiondown" unicode="&#xbf;" horiz-adv-x="1099" 
d="M592 1038h6q22 0 37 -15t18 -40l21 -229q4 -29 -12.5 -49t-47.5 -23q-165 -12 -258.5 -85.5t-93.5 -199.5v-4q0 -113 82 -189.5t217 -76.5q188 0 338 160q26 22 55 22q30 0 51 -20.5t21 -50.5q0 -34 -22 -56q-183 -200 -447 -200q-207 0 -333 114t-126 291v4
q0 93 33.5 168t93 124.5t134.5 80t165 43.5l15 176q1 25 16 40t37 15zM694 1305q0 -41 -27.5 -69t-68.5 -28q-42 0 -70 28t-28 69v43q0 40 28 68t70 28q41 0 68.5 -28t27.5 -68v-43z" />
    <glyph glyph-name="Agrave" unicode="&#xc0;" horiz-adv-x="1605" 
d="M104 63q0 21 11 43l581 1272q32 72 103 72h8q71 0 100 -72l582 -1269q10 -23 10 -41q0 -32 -23 -55t-55 -23q-55 0 -80 59l-149 330h-786l-150 -334q-22 -55 -78 -55q-31 0 -52.5 21t-21.5 52zM469 526h659l-329 734zM805 1573q-31 0 -51.5 7.5t-44.5 31.5l-154 145
q-29 29 -29 47q0 21 37 41.5t74 20.5q44 0 74 -47l123 -187q10 -13 10 -30q0 -12 -11 -20.5t-28 -8.5z" />
    <glyph glyph-name="Aacute" unicode="&#xc1;" horiz-adv-x="1605" 
d="M104 63q0 21 11 43l581 1272q32 72 103 72h8q71 0 100 -72l582 -1269q10 -23 10 -41q0 -32 -23 -55t-55 -23q-55 0 -80 59l-149 330h-786l-150 -334q-22 -55 -78 -55q-31 0 -52.5 21t-21.5 52zM469 526h659l-329 734zM797 1573q-17 0 -28 8.5t-11 20.5q0 17 10 30
l123 187q30 47 74 47q37 0 73.5 -20t36.5 -42q0 -19 -28 -47l-154 -145q-24 -24 -44.5 -31.5t-51.5 -7.5z" />
    <glyph glyph-name="Acircumflex" unicode="&#xc2;" horiz-adv-x="1605" 
d="M104 63q0 21 11 43l581 1272q32 72 103 72h8q71 0 100 -72l582 -1269q10 -23 10 -41q0 -32 -23 -55t-55 -23q-55 0 -80 59l-149 330h-786l-150 -334q-22 -55 -78 -55q-31 0 -52.5 21t-21.5 52zM469 526h659l-329 734zM799 1718l-121 -106q-25 -24 -46 -31.5t-52 -7.5
q-17 0 -27 8.5t-10 20.5q0 10 14 34l143 176q20 24 37.5 35t44.5 11h37q27 0 44.5 -11t37.5 -35l143 -176q15 -26 15 -34q0 -12 -11 -20.5t-28 -8.5q-32 0 -53.5 8t-46.5 31z" />
    <glyph glyph-name="Atilde" unicode="&#xc3;" horiz-adv-x="1605" 
d="M104 63q0 21 11 43l581 1272q32 72 103 72h8q71 0 100 -72l582 -1269q10 -23 10 -41q0 -32 -23 -55t-55 -23q-55 0 -80 59l-149 330h-786l-150 -334q-22 -55 -78 -55q-31 0 -52.5 21t-21.5 52zM469 526h659l-329 734zM582 1591q-18 -35 -47 -35q-22 0 -38 15t-16 35
q0 8 6 32q31 89 73 127.5t108 38.5q49 0 145.5 -41t128.5 -41q34 0 54.5 16t39.5 56q18 35 47 35q22 0 38 -14.5t16 -34.5q0 -4 -1.5 -9.5t-3 -13t-2.5 -10.5q-31 -89 -72.5 -127.5t-107.5 -38.5q-49 0 -145.5 41t-128.5 41q-34 0 -54.5 -16t-39.5 -56z" />
    <glyph glyph-name="Adieresis" unicode="&#xc4;" horiz-adv-x="1605" 
d="M104 63q0 21 11 43l581 1272q32 72 103 72h8q71 0 100 -72l582 -1269q10 -23 10 -41q0 -32 -23 -55t-55 -23q-55 0 -80 59l-149 330h-786l-150 -334q-22 -55 -78 -55q-31 0 -52.5 21t-21.5 52zM469 526h659l-329 734zM983 1786q40 0 68 -26.5t28 -65.5v-31
q0 -39 -28 -65.5t-68 -26.5t-68 26.5t-28 65.5v31q0 39 28 65.5t68 26.5zM618 1786q40 0 68.5 -26.5t28.5 -65.5v-31q0 -39 -28.5 -65.5t-68.5 -26.5t-68 26.5t-28 65.5v31q0 39 28 65.5t68 26.5z" />
    <glyph glyph-name="Aring" unicode="&#xc5;" horiz-adv-x="1617" 
d="M909 1393l590 -1291q6 -18 6 -32q0 -31 -23.5 -55.5t-56.5 -24.5q-48 0 -77 59l-148 330h-788l-150 -334q-9 -24 -29 -39.5t-47 -15.5q-31 0 -53 23t-22 53q0 10 8 34l590 1293q-51 25 -82 72.5t-31 103.5v4q0 83 64 143t149 60t149 -60t64 -143v-4q0 -56 -31 -103.5
t-82 -72.5zM809 1444q51 0 89 37t38 88v4q0 51 -37.5 88t-89.5 37t-89.5 -37t-37.5 -88v-4q0 -51 38 -88t89 -37zM475 526h660l-328 734z" />
    <glyph glyph-name="AE" unicode="&#xc6;" horiz-adv-x="2140" 
d="M70 59q0 12 14 45l762 1276q33 54 90 54h1006q31 0 52 -21.5t21 -52.5t-21 -52.5t-52 -21.5h-773v-489h680q30 0 52 -22t22 -52q0 -31 -21.5 -52.5t-52.5 -21.5h-680v-502h783q31 0 52 -21t21 -52t-21 -52.5t-52 -21.5h-865q-34 0 -57.5 24t-23.5 58v297h-586l-207 -346
q-21 -43 -70 -43q-30 0 -51.5 20t-21.5 49zM506 526h500v764h-48z" />
    <glyph glyph-name="Ccedilla" unicode="&#xc7;" horiz-adv-x="1511" 
d="M1391 186q-109 -99 -227 -152t-273 -59l-109 -233q-12 -24 -25.5 -35.5t-37.5 -11.5q-31 0 -64.5 21.5t-33.5 43.5q0 16 12 37l127 185q-179 23 -320.5 124.5t-221 260.5t-79.5 346v4q0 151 54.5 287t149 236t230.5 159t291 59q163 0 283 -47.5t229 -138.5q33 -29 33 -66
q0 -32 -25 -56t-57 -24q-25 0 -53 19q-90 80 -188.5 122t-223.5 42q-117 0 -220 -46t-176.5 -124t-116 -187t-42.5 -231v-4q0 -164 72.5 -299.5t200 -214t282.5 -78.5q129 0 229.5 43t196.5 131q23 23 51 23q31 0 54.5 -23.5t23.5 -54.5q0 -36 -26 -58z" />
    <glyph glyph-name="Egrave" unicode="&#xc8;" horiz-adv-x="1372" 
d="M283 0q-32 0 -56 24t-24 58v1270q0 34 24 58t56 24h891q31 0 52 -21.5t21 -52.5t-21 -52.5t-52 -21.5h-809v-489h716q30 0 52 -22t22 -52q0 -31 -21.5 -52.5t-52.5 -21.5h-716v-502h819q31 0 52 -21t21 -52t-21 -52.5t-52 -21.5h-901zM727 1552q-31 0 -51.5 7.5
t-44.5 31.5l-154 146q-28 28 -28 47q0 21 36.5 41t73.5 20q44 0 74 -47l123 -186q10 -13 10 -31q0 -12 -11 -20.5t-28 -8.5z" />
    <glyph glyph-name="Eacute" unicode="&#xc9;" horiz-adv-x="1372" 
d="M719 1552q-17 0 -28 8.5t-11 20.5q0 18 10 31l123 186q30 47 74 47q37 0 73.5 -20t36.5 -41q0 -19 -28 -47l-154 -146q-24 -24 -44.5 -31.5t-51.5 -7.5zM283 0q-32 0 -56 24t-24 58v1270q0 34 24 58t56 24h891q31 0 52 -21.5t21 -52.5t-21 -52.5t-52 -21.5h-809v-489h716
q30 0 52 -22t22 -52q0 -31 -21.5 -52.5t-52.5 -21.5h-716v-502h819q31 0 52 -21t21 -52t-21 -52.5t-52 -21.5h-901z" />
    <glyph glyph-name="Ecircumflex" unicode="&#xca;" horiz-adv-x="1372" 
d="M721 1698l-121 -107q-25 -24 -46 -31.5t-52 -7.5q-17 0 -27 8.5t-10 20.5q0 11 14 35l144 176q38 45 82 45h36q44 0 82 -45l144 -176q14 -24 14 -35q0 -12 -11 -20.5t-28 -8.5q-32 0 -53.5 8t-46.5 31zM283 0q-32 0 -56 24t-24 58v1270q0 34 24 58t56 24h891
q31 0 52 -21.5t21 -52.5t-21 -52.5t-52 -21.5h-809v-489h716q30 0 52 -22t22 -52q0 -31 -21.5 -52.5t-52.5 -21.5h-716v-502h819q31 0 52 -21t21 -52t-21 -52.5t-52 -21.5h-901z" />
    <glyph glyph-name="Edieresis" unicode="&#xcb;" horiz-adv-x="1372" 
d="M905 1765q40 0 68 -26.5t28 -65.5v-31q0 -39 -28 -65.5t-68 -26.5t-68 26.5t-28 65.5v31q0 39 28 65.5t68 26.5zM541 1765q40 0 68 -26.5t28 -65.5v-31q0 -39 -28 -65.5t-68 -26.5t-68.5 26.5t-28.5 65.5v31q0 39 28.5 65.5t68.5 26.5zM283 0q-32 0 -56 24t-24 58v1270
q0 34 24 58t56 24h891q31 0 52 -21.5t21 -52.5t-21 -52.5t-52 -21.5h-809v-489h716q30 0 52 -22t22 -52q0 -31 -21.5 -52.5t-52.5 -21.5h-716v-502h819q31 0 52 -21t21 -52t-21 -52.5t-52 -21.5h-901z" />
    <glyph glyph-name="Igrave" unicode="&#xcc;" horiz-adv-x="595" 
d="M217 72v1290q0 34 24 58t56 24q34 0 58 -24t24 -58v-1290q0 -34 -24 -58t-58 -24q-32 0 -56 24t-24 58zM303 1552q-31 0 -51.5 7.5t-44.5 31.5l-154 146q-28 28 -28 47q0 21 36.5 41t73.5 20q44 0 74 -47l123 -186q10 -13 10 -31q0 -12 -11 -20.5t-28 -8.5z" />
    <glyph glyph-name="Iacute" unicode="&#xcd;" horiz-adv-x="595" 
d="M217 72v1290q0 34 24 58t56 24q34 0 58 -24t24 -58v-1290q0 -34 -24 -58t-58 -24q-32 0 -56 24t-24 58zM295 1552q-17 0 -28 8.5t-11 20.5q0 18 10 31l123 186q30 47 74 47q37 0 73.5 -20t36.5 -41q0 -19 -28 -47l-154 -146q-24 -24 -44.5 -31.5t-51.5 -7.5z" />
    <glyph glyph-name="Icircumflex" unicode="&#xce;" horiz-adv-x="595" 
d="M217 72v1290q0 34 24 58t56 24q34 0 58 -24t24 -58v-1290q0 -34 -24 -58t-58 -24q-32 0 -56 24t-24 58zM297 1698l-121 -107q-25 -24 -46 -31.5t-52 -7.5q-17 0 -27 8.5t-10 20.5q0 11 14 35l144 176q38 45 82 45h36q44 0 82 -45l144 -176q14 -24 14 -35q0 -12 -11 -20.5
t-28 -8.5q-32 0 -53.5 8t-46.5 31z" />
    <glyph glyph-name="Idieresis" unicode="&#xcf;" horiz-adv-x="595" 
d="M217 72v1290q0 34 24 58t56 24q34 0 58 -24t24 -58v-1290q0 -34 -24 -58t-58 -24q-32 0 -56 24t-24 58zM481 1765q40 0 68.5 -26.5t28.5 -65.5v-31q0 -39 -28.5 -65.5t-68.5 -26.5t-68 26.5t-28 65.5v31q0 39 28 65.5t68 26.5zM117 1765q40 0 68 -26.5t28 -65.5v-31
q0 -39 -28 -65.5t-68 -26.5t-68.5 26.5t-28.5 65.5v31q0 39 28.5 65.5t68.5 26.5z" />
    <glyph glyph-name="Eth" unicode="&#xd0;" horiz-adv-x="1662" 
d="M174 795h90v557q0 34 24 58t56 24h418q166 0 309 -55t242 -150t155 -226.5t56 -281.5v-4q0 -150 -56 -282t-155 -228t-242 -151.5t-309 -55.5h-418q-32 0 -56 24t-24 58v565h-90q-31 0 -52.5 21.5t-21.5 52.5t21.5 52.5t52.5 21.5zM426 1284v-489h367q29 0 51 -21.5
t22 -52.5t-22 -52.5t-51 -21.5h-367v-497h336q133 0 245 43.5t188 119t118.5 179t42.5 221.5v4q0 118 -42.5 222t-118.5 180.5t-188 120.5t-245 44h-336z" />
    <glyph glyph-name="Ntilde" unicode="&#xd1;" horiz-adv-x="1617" 
d="M203 70v1290q0 32 24 56t56 24h22q45 0 82 -47l870 -1110v1081q0 33 23.5 56.5t56.5 23.5q32 0 55 -24t23 -56v-1294q0 -32 -21 -54t-53 -22h-8q-42 0 -84 49l-889 1137v-1110q0 -33 -23 -56.5t-56 -23.5q-32 0 -55 24t-23 56zM588 1571q-18 -35 -47 -35q-22 0 -38 14.5
t-16 34.5q0 5 7 33q31 89 72.5 127.5t107.5 38.5q49 0 145.5 -41t128.5 -41q34 0 54.5 16t39.5 56q17 34 48 34q22 0 37.5 -14.5t15.5 -34.5q0 -3 -6 -33q-31 -89 -73 -127t-108 -38q-49 0 -145.5 40.5t-128.5 40.5q-34 0 -54.5 -16t-39.5 -55z" />
    <glyph glyph-name="Ograve" unicode="&#xd2;" horiz-adv-x="1740" 
d="M868 -25q-159 0 -297 60t-231.5 161t-147 235.5t-53.5 281.5v4q0 147 54 282t148.5 236.5t233 162t297.5 60.5t297 -59.5t232 -160.5t147.5 -235.5t53.5 -281.5v-4q0 -118 -34 -229t-99 -203.5t-153.5 -162t-204 -108.5t-243.5 -39zM872 125q161 0 290 79t200.5 213
t71.5 296v4q0 162 -72.5 297t-202.5 215t-291 80t-290 -79t-200 -213t-71 -296v-4q0 -162 72 -297t202 -215t291 -80zM874 1573q-31 0 -51.5 7.5t-44.5 31.5l-153 145q-29 29 -29 47q0 21 37 41.5t74 20.5q43 0 73 -47l123 -187q10 -13 10 -30q0 -12 -11 -20.5t-28 -8.5z
" />
    <glyph glyph-name="Oacute" unicode="&#xd3;" horiz-adv-x="1740" 
d="M864 1573q-17 0 -28 8.5t-11 20.5q0 15 11 30l122 187q30 47 74 47q37 0 74 -20.5t37 -41.5q0 -18 -29 -47l-153 -145q-23 -23 -44.5 -31t-52.5 -8zM868 -25q-159 0 -297 60t-231.5 161t-147 235.5t-53.5 281.5v4q0 147 54 282t148.5 236.5t233 162t297.5 60.5t297 -59.5
t232 -160.5t147.5 -235.5t53.5 -281.5v-4q0 -118 -34 -229t-99 -203.5t-153.5 -162t-204 -108.5t-243.5 -39zM872 125q161 0 290 79t200.5 213t71.5 296v4q0 162 -72.5 297t-202.5 215t-291 80t-290 -79t-200 -213t-71 -296v-4q0 -162 72 -297t202 -215t291 -80z" />
    <glyph glyph-name="Ocircumflex" unicode="&#xd4;" horiz-adv-x="1740" 
d="M868 1718l-120 -106q-25 -24 -46.5 -31.5t-52.5 -7.5q-17 0 -27 8.5t-10 20.5q0 8 15 34l143 176q20 24 37.5 35t44.5 11h37q27 0 44.5 -11t37.5 -35l143 -176q14 -25 14 -34q0 -12 -10.5 -20.5t-27.5 -8.5q-60 0 -101 39zM868 -25q-159 0 -297 60t-231.5 161t-147 235.5
t-53.5 281.5v4q0 147 54 282t148.5 236.5t233 162t297.5 60.5t297 -59.5t232 -160.5t147.5 -235.5t53.5 -281.5v-4q0 -118 -34 -229t-99 -203.5t-153.5 -162t-204 -108.5t-243.5 -39zM872 125q161 0 290 79t200.5 213t71.5 296v4q0 162 -72.5 297t-202.5 215t-291 80
t-290 -79t-200 -213t-71 -296v-4q0 -162 72 -297t202 -215t291 -80z" />
    <glyph glyph-name="Otilde" unicode="&#xd5;" horiz-adv-x="1740" 
d="M868 -25q-159 0 -297 60t-231.5 161t-147 235.5t-53.5 281.5v4q0 147 54 282t148.5 236.5t233 162t297.5 60.5t297 -59.5t232 -160.5t147.5 -235.5t53.5 -281.5v-4q0 -118 -34 -229t-99 -203.5t-153.5 -162t-204 -108.5t-243.5 -39zM872 125q161 0 290 79t200.5 213
t71.5 296v4q0 162 -72.5 297t-202.5 215t-291 80t-290 -79t-200 -213t-71 -296v-4q0 -162 72 -297t202 -215t291 -80zM649 1591q-17 -35 -47 -35q-22 0 -37.5 15t-15.5 35q0 8 6 32q31 89 72.5 127.5t107.5 38.5q49 0 146 -41t129 -41q34 0 54.5 16t39.5 56q18 35 47 35
q22 0 37.5 -14.5t15.5 -34.5q0 -3 -6 -33q-31 -89 -72.5 -127.5t-107.5 -38.5q-49 0 -146 41t-129 41q-34 0 -54.5 -16t-39.5 -56z" />
    <glyph glyph-name="Odieresis" unicode="&#xd6;" horiz-adv-x="1740" 
d="M1053 1786q40 0 68 -26.5t28 -65.5v-31q0 -39 -28 -65.5t-68 -26.5t-68.5 26.5t-28.5 65.5v31q0 39 28.5 65.5t68.5 26.5zM688 1786q40 0 68 -26.5t28 -65.5v-31q0 -39 -28 -65.5t-68 -26.5t-68 26.5t-28 65.5v31q0 39 28 65.5t68 26.5zM868 -25q-159 0 -297 60
t-231.5 161t-147 235.5t-53.5 281.5v4q0 147 54 282t148.5 236.5t233 162t297.5 60.5t297 -59.5t232 -160.5t147.5 -235.5t53.5 -281.5v-4q0 -118 -34 -229t-99 -203.5t-153.5 -162t-204 -108.5t-243.5 -39zM872 125q161 0 290 79t200.5 213t71.5 296v4q0 162 -72.5 297
t-202.5 215t-291 80t-290 -79t-200 -213t-71 -296v-4q0 -162 72 -297t202 -215t291 -80z" />
    <glyph glyph-name="multiply" unicode="&#xd7;" horiz-adv-x="1280" 
d="M1055 1034l-316 -311l316 -309q24 -24 24 -58q0 -31 -21 -52t-52 -21q-34 0 -58 24l-309 316l-311 -318q-25 -22 -56 -22q-29 0 -50 21t-21 50q0 30 24 54l316 311l-316 309q-24 24 -24 57q0 31 22 52.5t53 21.5q32 0 56 -24l311 -316l311 318q22 22 54 22q29 0 50 -21.5
t21 -50.5t-24 -53z" />
    <glyph glyph-name="Oslash" unicode="&#xd8;" horiz-adv-x="1740" 
d="M868 -25q-261 0 -458 156l-123 -127q-24 -24 -51 -24t-44.5 17t-17.5 42q0 28 21 49l122 131q-86 98 -132 226t-46 268v4q0 147 54 282t148.5 236.5t233 162t297.5 60.5q264 0 459 -158l123 130q24 24 51 24t44.5 -17t17.5 -42q0 -28 -21 -49l-125 -134
q87 -99 134 -225.5t47 -265.5v-4q0 -118 -34 -229t-99 -203.5t-153.5 -162t-204 -108.5t-243.5 -39zM307 717q0 -218 125 -377l793 842q-155 129 -357 129q-160 0 -289.5 -79.5t-200.5 -214t-71 -296.5v-4zM872 123q161 0 290 79.5t200.5 214t71.5 296.5v4q0 218 -125 377
l-793 -844q149 -127 356 -127z" />
    <glyph glyph-name="Ugrave" unicode="&#xd9;" horiz-adv-x="1554" 
d="M776 -23q-272 0 -434 162.5t-162 460.5v762q0 34 24 58t56 24q34 0 58 -24t24 -58v-752q0 -230 116 -356.5t322 -126.5q202 0 317 121.5t115 351.5v762q0 34 24 58t58 24q32 0 56 -24t24 -58v-750q0 -307 -161.5 -471t-436.5 -164zM780 1552q-31 0 -51.5 7.5t-44.5 31.5
l-154 146q-28 28 -28 47q0 21 36.5 41t73.5 20q44 0 74 -47l123 -186q10 -13 10 -31q0 -12 -11 -20.5t-28 -8.5z" />
    <glyph glyph-name="Uacute" unicode="&#xda;" horiz-adv-x="1554" 
d="M772 1552q-17 0 -28 8.5t-11 20.5q0 18 10 31l123 186q30 47 74 47q37 0 74 -20t37 -41q0 -18 -29 -47l-154 -146q-24 -24 -44.5 -31.5t-51.5 -7.5zM776 -23q-272 0 -434 162.5t-162 460.5v762q0 34 24 58t56 24q34 0 58 -24t24 -58v-752q0 -230 116 -356.5t322 -126.5
q202 0 317 121.5t115 351.5v762q0 34 24 58t58 24q32 0 56 -24t24 -58v-750q0 -307 -161.5 -471t-436.5 -164z" />
    <glyph glyph-name="Ucircumflex" unicode="&#xdb;" horiz-adv-x="1554" 
d="M774 1698l-121 -107q-25 -24 -46 -31.5t-52 -7.5q-17 0 -27 8.5t-10 20.5q0 11 14 35l144 176q38 45 82 45h37q44 0 82 -45l143 -176q14 -24 14 -35q0 -12 -11 -20.5t-28 -8.5q-32 0 -53.5 8t-46.5 31zM776 -23q-272 0 -434 162.5t-162 460.5v762q0 34 24 58t56 24
q34 0 58 -24t24 -58v-752q0 -230 116 -356.5t322 -126.5q202 0 317 121.5t115 351.5v762q0 34 24 58t58 24q32 0 56 -24t24 -58v-750q0 -307 -161.5 -471t-436.5 -164z" />
    <glyph glyph-name="Udieresis" unicode="&#xdc;" horiz-adv-x="1554" 
d="M958 1765q40 0 68.5 -26.5t28.5 -65.5v-31q0 -39 -28.5 -65.5t-68.5 -26.5t-68 26.5t-28 65.5v31q0 39 28 65.5t68 26.5zM594 1765q40 0 68 -26.5t28 -65.5v-31q0 -39 -28 -65.5t-68 -26.5t-68 26.5t-28 65.5v31q0 39 28 65.5t68 26.5zM776 -23q-272 0 -434 162.5
t-162 460.5v762q0 34 24 58t56 24q34 0 58 -24t24 -58v-752q0 -230 116 -356.5t322 -126.5q202 0 317 121.5t115 351.5v762q0 34 24 58t58 24q32 0 56 -24t24 -58v-750q0 -307 -161.5 -471t-436.5 -164z" />
    <glyph glyph-name="Yacute" unicode="&#xdd;" horiz-adv-x="1449" 
d="M643 72v491l-532 746q-19 30 -19 55q0 32 25 56t59 24q44 0 78 -49l473 -682l477 682q34 49 76 49q33 0 56.5 -23.5t23.5 -56.5q0 -22 -23 -59l-530 -738v-495q0 -34 -24 -58t-58 -24t-58 24t-24 58zM721 1552q-17 0 -28 8.5t-11 20.5q0 18 10 31l123 186q30 47 74 47
q37 0 73.5 -20t36.5 -41q0 -19 -28 -47l-154 -146q-24 -24 -44.5 -31.5t-51.5 -7.5z" />
    <glyph glyph-name="Thorn" unicode="&#xde;" horiz-adv-x="1378" 
d="M203 72v1290q0 34 24 58t56 24q34 0 58 -24t24 -58v-174h374q244 0 390.5 -122.5t146.5 -332.5v-4q0 -113 -45 -203.5t-122.5 -148.5t-178.5 -88.5t-217 -30.5h-348v-186q0 -34 -24 -58t-58 -24q-32 0 -56 24t-24 58zM365 406h354q178 0 285.5 87.5t107.5 229.5v4
q0 150 -104 230.5t-281 80.5h-362v-632z" />
    <glyph glyph-name="germandbls" unicode="&#xdf;" horiz-adv-x="1269" 
d="M588 61q0 26 17 44.5t44 23.5q157 11 248.5 77t91.5 187v4q0 112 -92 180t-244 93q-65 14 -65 71q0 49 47 70q266 108 266 315v4q0 106 -74 173t-194 67q-132 0 -215.5 -93.5t-83.5 -248.5v-960q0 -32 -23 -55t-57 -23q-33 0 -55.5 22.5t-22.5 55.5v958q0 218 126 350.5
t339 132.5q190 0 306 -105t116 -263v-4q0 -70 -24 -131.5t-65.5 -107t-90 -79t-105.5 -57.5q76 -17 140 -46t118 -72t84.5 -106.5t30.5 -140.5v-4q0 -94 -38.5 -169.5t-106.5 -124t-157 -75t-192 -28.5q-30 0 -49.5 18.5t-19.5 46.5z" />
    <glyph glyph-name="agrave" unicode="&#xe0;" horiz-adv-x="1185" 
d="M492 -23q-102 0 -190 36t-147 113t-59 181v4q0 164 123.5 253t329.5 89q168 0 325 -45v37q0 141 -82 215t-233 74q-140 0 -274 -60q-15 -6 -29 -6q-28 0 -49 20t-21 48q0 23 13 40.5t30 24.5q166 72 346 72q226 0 343 -117q108 -108 108 -309v-579q0 -34 -22 -56t-54 -22
q-33 0 -54.5 21t-21.5 52v97q-141 -183 -382 -183zM522 102q149 0 252 81.5t103 205.5v103q-153 45 -312 45q-147 0 -228 -59.5t-81 -160.5v-4q0 -96 77 -153.5t189 -57.5zM598 1210q-31 0 -51.5 7.5t-44.5 31.5l-154 146q-29 29 -29 47q0 21 37 41t74 20q44 0 74 -47
l123 -186q10 -13 10 -31q0 -12 -11 -20.5t-28 -8.5z" />
    <glyph glyph-name="aacute" unicode="&#xe1;" horiz-adv-x="1185" 
d="M492 -23q-102 0 -190 36t-147 113t-59 181v4q0 164 123.5 253t329.5 89q168 0 325 -45v37q0 141 -82 215t-233 74q-140 0 -274 -60q-15 -6 -29 -6q-28 0 -49 20t-21 48q0 23 13 40.5t30 24.5q166 72 346 72q226 0 343 -117q108 -108 108 -309v-579q0 -34 -22 -56t-54 -22
q-33 0 -54.5 21t-21.5 52v97q-141 -183 -382 -183zM522 102q149 0 252 81.5t103 205.5v103q-153 45 -312 45q-147 0 -228 -59.5t-81 -160.5v-4q0 -96 77 -153.5t189 -57.5zM588 1210q-17 0 -28 8.5t-11 20.5q0 18 10 31l123 186q30 47 74 47q37 0 73.5 -20t36.5 -41
q0 -19 -28 -47l-154 -146q-24 -24 -44.5 -31.5t-51.5 -7.5z" />
    <glyph glyph-name="acircumflex" unicode="&#xe2;" horiz-adv-x="1185" 
d="M492 -23q-102 0 -190 36t-147 113t-59 181v4q0 164 123.5 253t329.5 89q168 0 325 -45v37q0 141 -82 215t-233 74q-140 0 -274 -60q-15 -6 -29 -6q-28 0 -49 20t-21 48q0 23 13 40.5t30 24.5q166 72 346 72q226 0 343 -117q108 -108 108 -309v-579q0 -34 -22 -56t-54 -22
q-33 0 -54.5 21t-21.5 52v97q-141 -183 -382 -183zM522 102q149 0 252 81.5t103 205.5v103q-153 45 -312 45q-147 0 -228 -59.5t-81 -160.5v-4q0 -96 77 -153.5t189 -57.5zM590 1356l-121 -107q-25 -24 -46 -31.5t-52 -7.5q-17 0 -27 8.5t-10 20.5q0 11 14 35l144 176
q20 24 37 34.5t44 10.5h37q44 0 82 -45l144 -176q14 -24 14 -35q0 -12 -11 -20.5t-28 -8.5q-32 0 -53.5 8t-46.5 31z" />
    <glyph glyph-name="atilde" unicode="&#xe3;" horiz-adv-x="1185" 
d="M492 -23q-102 0 -190 36t-147 113t-59 181v4q0 164 123.5 253t329.5 89q168 0 325 -45v37q0 141 -82 215t-233 74q-140 0 -274 -60q-15 -6 -29 -6q-28 0 -49 20t-21 48q0 23 13 40.5t30 24.5q166 72 346 72q226 0 343 -117q108 -108 108 -309v-579q0 -34 -22 -56t-54 -22
q-33 0 -54.5 21t-21.5 52v97q-141 -183 -382 -183zM522 102q149 0 252 81.5t103 205.5v103q-153 45 -312 45q-147 0 -228 -59.5t-81 -160.5v-4q0 -96 77 -153.5t189 -57.5zM373 1229q-17 -35 -47 -35q-22 0 -38 14.5t-16 34.5q0 5 7 33q31 89 72.5 127.5t107.5 38.5
q49 0 145.5 -41t128.5 -41q34 0 54.5 16t39.5 56q17 34 47 34q22 0 38 -14.5t16 -34.5q0 -3 -6 -33q-31 -89 -73 -127t-108 -38q-49 0 -145.5 40.5t-128.5 40.5q-34 0 -54.5 -16t-39.5 -55z" />
    <glyph glyph-name="adieresis" unicode="&#xe4;" horiz-adv-x="1185" 
d="M492 -23q-102 0 -190 36t-147 113t-59 181v4q0 164 123.5 253t329.5 89q168 0 325 -45v37q0 141 -82 215t-233 74q-140 0 -274 -60q-15 -6 -29 -6q-28 0 -49 20t-21 48q0 23 13 40.5t30 24.5q166 72 346 72q226 0 343 -117q108 -108 108 -309v-579q0 -34 -22 -56t-54 -22
q-33 0 -54.5 21t-21.5 52v97q-141 -183 -382 -183zM522 102q149 0 252 81.5t103 205.5v103q-153 45 -312 45q-147 0 -228 -59.5t-81 -160.5v-4q0 -96 77 -153.5t189 -57.5zM774 1423q40 0 68 -26.5t28 -65.5v-31q0 -39 -28 -65.5t-68 -26.5t-68 26.5t-28 65.5v31
q0 39 28 65.5t68 26.5zM410 1423q40 0 68 -26.5t28 -65.5v-31q0 -39 -28 -65.5t-68 -26.5t-68.5 26.5t-28.5 65.5v31q0 39 28.5 65.5t68.5 26.5z" />
    <glyph glyph-name="aring" unicode="&#xe5;" horiz-adv-x="1185" 
d="M492 -23q-102 0 -190 36t-147 113t-59 181v4q0 164 123.5 253t329.5 89q168 0 325 -45v37q0 141 -82 215t-233 74q-140 0 -274 -60q-15 -6 -29 -6q-28 0 -49 20t-21 48q0 23 13 40.5t30 24.5q166 72 346 72q226 0 343 -117q108 -108 108 -309v-579q0 -34 -22 -56t-54 -22
q-33 0 -54.5 21t-21.5 52v97q-141 -183 -382 -183zM522 102q149 0 252 81.5t103 205.5v103q-153 45 -312 45q-147 0 -228 -59.5t-81 -160.5v-4q0 -96 77 -153.5t189 -57.5zM592 1214q-85 0 -149 60t-64 143v4q0 83 64 143t149 60t149 -60t64 -143v-4q0 -83 -64 -143
t-149 -60zM592 1292q51 0 89 37t38 88v4q0 51 -37.5 88t-89.5 37t-89.5 -37t-37.5 -88v-4q0 -51 38 -88t89 -37z" />
    <glyph glyph-name="ae" unicode="&#xe6;" horiz-adv-x="1951" 
d="M1010 588h682q-13 155 -100 257.5t-236 102.5q-138 0 -234.5 -101.5t-111.5 -258.5zM514 104q214 0 381 189q-37 90 -43 201q-168 43 -295 43q-143 0 -222 -59.5t-79 -160.5v-4q0 -95 74 -152t184 -57zM1780 135q-83 -78 -178.5 -119t-223.5 -41q-127 0 -238 56.5
t-182 156.5q-204 -211 -462 -211q-78 0 -149 21.5t-127.5 61.5t-90 104t-33.5 143v4q0 163 122 252.5t323 89.5q156 0 313 -45v37q0 142 -79 215.5t-226 73.5q-131 0 -264 -60q-15 -6 -29 -6q-28 0 -49 20t-21 48q0 23 13 40.5t30 24.5q159 72 336 72q310 0 389 -227
q64 109 170.5 172t235.5 63q91 0 170 -28.5t137.5 -79t100 -118t62.5 -147t21 -163.5q0 -32 -22 -53t-53 -21h-764q15 -166 120 -262t250 -96q171 0 308 123q22 18 43 18q29 0 49 -20t20 -48q0 -29 -22 -51z" />
    <glyph glyph-name="ccedilla" unicode="&#xe7;" horiz-adv-x="1169" 
d="M1053 145q-160 -160 -369 -168l-109 -235q-12 -24 -25.5 -35.5t-37.5 -11.5q-31 0 -64.5 21.5t-33.5 43.5q0 16 12 37l129 189q-194 34 -319 186.5t-125 351.5v4q0 148 70.5 275t195.5 202.5t276 75.5q222 0 389 -153q25 -21 25 -56q0 -32 -22.5 -53.5t-53.5 -21.5
q-29 0 -51 18q-66 60 -133.5 93.5t-155.5 33.5q-160 0 -269.5 -119.5t-109.5 -290.5v-4q0 -172 112.5 -291.5t277.5 -119.5q158 0 294 129q20 20 45 20q29 0 50.5 -21.5t21.5 -49.5q0 -30 -20 -50z" />
    <glyph glyph-name="egrave" unicode="&#xe8;" horiz-adv-x="1212" 
d="M270 588h682q-13 155 -100.5 257.5t-237.5 102.5q-137 0 -233 -101.5t-111 -258.5zM1038 135q-81 -78 -176 -119t-223 -41q-145 0 -265 68.5t-191.5 195.5t-71.5 287v4q0 151 65 277t181.5 200t260.5 74q114 0 208.5 -44t155.5 -118.5t94.5 -171t33.5 -202.5
q0 -32 -22 -53t-52 -21h-766q17 -167 122 -262.5t251 -95.5q172 0 305 123q22 18 45 18q29 0 49.5 -20t20.5 -48q0 -29 -25 -51zM621 1210q-31 0 -52.5 8t-44.5 31l-153 146q-29 29 -29 47q0 21 37 41t74 20q43 0 73 -47l123 -186q10 -13 10 -31q0 -12 -10.5 -20.5
t-27.5 -8.5z" />
    <glyph glyph-name="eacute" unicode="&#xe9;" horiz-adv-x="1212" 
d="M612 1210q-17 0 -28 8.5t-11 20.5q0 16 11 31l123 186q30 47 73 47q37 0 74 -20t37 -41q0 -18 -29 -47l-153 -146q-23 -23 -44.5 -31t-52.5 -8zM270 588h682q-13 155 -100.5 257.5t-237.5 102.5q-137 0 -233 -101.5t-111 -258.5zM1038 135q-81 -78 -176 -119t-223 -41
q-145 0 -265 68.5t-191.5 195.5t-71.5 287v4q0 151 65 277t181.5 200t260.5 74q114 0 208.5 -44t155.5 -118.5t94.5 -171t33.5 -202.5q0 -32 -22 -53t-52 -21h-766q17 -167 122 -262.5t251 -95.5q172 0 305 123q22 18 45 18q29 0 49.5 -20t20.5 -48q0 -29 -25 -51z" />
    <glyph glyph-name="ecircumflex" unicode="&#xea;" horiz-adv-x="1212" 
d="M614 1356l-120 -107q-25 -24 -46.5 -31.5t-52.5 -7.5q-17 0 -27 8.5t-10 20.5q0 9 15 35l143 176q38 45 82 45h37q44 0 82 -45l143 -176q14 -24 14 -35q0 -12 -10.5 -20.5t-27.5 -8.5q-60 0 -101 39zM270 588h682q-13 155 -100.5 257.5t-237.5 102.5q-137 0 -233 -101.5
t-111 -258.5zM1038 135q-81 -78 -176 -119t-223 -41q-145 0 -265 68.5t-191.5 195.5t-71.5 287v4q0 151 65 277t181.5 200t260.5 74q114 0 208.5 -44t155.5 -118.5t94.5 -171t33.5 -202.5q0 -32 -22 -53t-52 -21h-766q17 -167 122 -262.5t251 -95.5q172 0 305 123
q22 18 45 18q29 0 49.5 -20t20.5 -48q0 -29 -25 -51z" />
    <glyph glyph-name="edieresis" unicode="&#xeb;" horiz-adv-x="1212" 
d="M799 1423q40 0 68 -26.5t28 -65.5v-31q0 -39 -28 -65.5t-68 -26.5t-68.5 26.5t-28.5 65.5v31q0 39 28.5 65.5t68.5 26.5zM434 1423q40 0 68 -26.5t28 -65.5v-31q0 -39 -28 -65.5t-68 -26.5t-68 26.5t-28 65.5v31q0 39 28 65.5t68 26.5zM270 588h682q-13 155 -100.5 257.5
t-237.5 102.5q-137 0 -233 -101.5t-111 -258.5zM1038 135q-81 -78 -176 -119t-223 -41q-145 0 -265 68.5t-191.5 195.5t-71.5 287v4q0 151 65 277t181.5 200t260.5 74q114 0 208.5 -44t155.5 -118.5t94.5 -171t33.5 -202.5q0 -32 -22 -53t-52 -21h-766q17 -167 122 -262.5
t251 -95.5q172 0 305 123q22 18 45 18q29 0 49.5 -20t20.5 -48q0 -29 -25 -51z" />
    <glyph glyph-name="igrave" unicode="&#xec;" horiz-adv-x="538" 
d="M190 70v919q0 32 23 56t55 24q34 0 57 -23t23 -57v-919q0 -34 -22 -57t-56 -23t-57 23t-23 57zM274 1210q-31 0 -51.5 7.5t-44.5 31.5l-153 146q-29 29 -29 47q0 21 36.5 41t73.5 20q44 0 74 -47l123 -186q10 -13 10 -31q0 -12 -11 -20.5t-28 -8.5z" />
    <glyph glyph-name="iacute" unicode="&#xed;" horiz-adv-x="538" 
d="M266 1210q-17 0 -28 8.5t-11 20.5q0 16 11 31l122 186q30 47 74 47q37 0 74 -20t37 -41q0 -18 -29 -47l-154 -146q-24 -24 -44.5 -31.5t-51.5 -7.5zM190 70v919q0 32 23 56t55 24q34 0 57 -23t23 -57v-919q0 -34 -22 -57t-56 -23t-57 23t-23 57z" />
    <glyph glyph-name="icircumflex" unicode="&#xee;" horiz-adv-x="538" 
d="M268 1356l-121 -107q-25 -24 -46 -31.5t-52 -7.5q-17 0 -27 8.5t-10 20.5q0 9 15 35l143 176q38 45 82 45h37q44 0 82 -45l143 -176q14 -24 14 -35q0 -12 -11 -20.5t-28 -8.5q-32 0 -53.5 8t-46.5 31zM190 70v919q0 32 23 56t55 24q34 0 57 -23t23 -57v-919
q0 -34 -22 -57t-56 -23t-57 23t-23 57z" />
    <glyph glyph-name="idieresis" unicode="&#xef;" horiz-adv-x="538" 
d="M453 1423q40 0 68 -26.5t28 -65.5v-31q0 -39 -28 -65.5t-68 -26.5t-68.5 26.5t-28.5 65.5v31q0 39 28.5 65.5t68.5 26.5zM88 1423q40 0 68 -26.5t28 -65.5v-31q0 -39 -28 -65.5t-68 -26.5t-68 26.5t-28 65.5v31q0 39 28 65.5t68 26.5zM190 70v919q0 32 23 56t55 24
q34 0 57 -23t23 -57v-919q0 -34 -22 -57t-56 -23t-57 23t-23 57z" />
    <glyph glyph-name="eth" unicode="&#xf0;" horiz-adv-x="1296" 
d="M928 883l-269 374l-237 -114q-15 -6 -29 -6q-25 0 -41 17t-16 42q0 34 37 53l219 103l-21 30q-16 22 -16 50q0 31 22 52t54 21q39 0 65 -37l35 -51l178 84q12 6 29 6q23 0 40 -17t17 -42q0 -36 -39 -53l-159 -74l207 -305q92 -133 136 -248t44 -252q0 -145 -65.5 -267.5
t-191.5 -198t-288 -75.5q-149 0 -271 72t-189.5 193t-67.5 264q0 107 39 200t105 156t154.5 99t186.5 36q100 0 177.5 -29t154.5 -83zM1022 500q0 154 -111.5 262t-277.5 108q-164 0 -263.5 -106t-99.5 -266q0 -155 108.5 -269t270.5 -114q163 0 268 113t105 272z" />
    <glyph glyph-name="ntilde" unicode="&#xf1;" horiz-adv-x="1261" 
d="M176 70v919q0 32 23 56t55 24q34 0 57 -23t23 -57v-115q126 207 362 207q189 0 297.5 -116t108.5 -308v-587q0 -34 -23 -57t-55 -23q-34 0 -57 23t-23 57v548q0 149 -77.5 234.5t-215.5 85.5t-227.5 -92t-89.5 -240v-536q0 -34 -22 -57t-56 -23t-57 23t-23 57zM418 1229
q-18 -35 -47 -35q-22 0 -38 14.5t-16 34.5q0 5 7 33q31 89 72.5 127.5t107.5 38.5q49 0 145.5 -41t128.5 -41q34 0 54.5 16t39.5 56q17 34 48 34q22 0 37.5 -14.5t15.5 -34.5q0 -3 -6 -33q-31 -89 -73 -127t-108 -38q-49 0 -145.5 40.5t-128.5 40.5q-34 0 -54.5 -16
t-39.5 -55z" />
    <glyph glyph-name="ograve" unicode="&#xf2;" horiz-adv-x="1323" 
d="M659 -25q-116 0 -219 44t-174.5 118t-113 175t-41.5 212v4q0 149 71 275.5t198.5 202t283.5 75.5q116 0 219 -44t175 -118t114 -175t42 -212v-4q0 -148 -71.5 -275t-199.5 -202.5t-284 -75.5zM664 117q169 0 279 118.5t110 288.5v4q0 172 -114 293t-280 121
q-112 0 -201 -56t-137.5 -149.5t-48.5 -204.5v-4q0 -171 113 -291t279 -120zM666 1210q-31 0 -52.5 8t-44.5 31l-153 146q-29 29 -29 47q0 21 37 41t74 20q43 0 73 -47l123 -186q11 -15 11 -31q0 -12 -11 -20.5t-28 -8.5z" />
    <glyph glyph-name="oacute" unicode="&#xf3;" horiz-adv-x="1323" 
d="M657 1210q-17 0 -28 8.5t-11 20.5q0 16 11 31l123 186q30 47 73 47q37 0 74 -20t37 -41q0 -18 -29 -47l-153 -146q-23 -23 -44.5 -31t-52.5 -8zM659 -25q-116 0 -219 44t-174.5 118t-113 175t-41.5 212v4q0 149 71 275.5t198.5 202t283.5 75.5q116 0 219 -44t175 -118
t114 -175t42 -212v-4q0 -148 -71.5 -275t-199.5 -202.5t-284 -75.5zM664 117q169 0 279 118.5t110 288.5v4q0 172 -114 293t-280 121q-112 0 -201 -56t-137.5 -149.5t-48.5 -204.5v-4q0 -171 113 -291t279 -120z" />
    <glyph glyph-name="ocircumflex" unicode="&#xf4;" horiz-adv-x="1323" 
d="M659 1356l-120 -107q-25 -24 -46.5 -31.5t-52.5 -7.5q-17 0 -27 8.5t-10 20.5q0 9 15 35l143 176q38 45 82 45h37q44 0 82 -45l143 -176q15 -26 15 -35q0 -12 -11 -20.5t-28 -8.5q-60 0 -101 39zM659 -25q-116 0 -219 44t-174.5 118t-113 175t-41.5 212v4q0 149 71 275.5
t198.5 202t283.5 75.5q116 0 219 -44t175 -118t114 -175t42 -212v-4q0 -148 -71.5 -275t-199.5 -202.5t-284 -75.5zM664 117q169 0 279 118.5t110 288.5v4q0 172 -114 293t-280 121q-112 0 -201 -56t-137.5 -149.5t-48.5 -204.5v-4q0 -171 113 -291t279 -120z" />
    <glyph glyph-name="otilde" unicode="&#xf5;" horiz-adv-x="1323" 
d="M659 -25q-116 0 -219 44t-174.5 118t-113 175t-41.5 212v4q0 149 71 275.5t198.5 202t283.5 75.5q116 0 219 -44t175 -118t114 -175t42 -212v-4q0 -148 -71.5 -275t-199.5 -202.5t-284 -75.5zM664 117q169 0 279 118.5t110 288.5v4q0 172 -114 293t-280 121
q-112 0 -201 -56t-137.5 -149.5t-48.5 -204.5v-4q0 -171 113 -291t279 -120zM440 1229q-18 -35 -47 -35q-22 0 -37.5 14.5t-15.5 34.5q0 9 6 33q31 89 72.5 127.5t107.5 38.5q49 0 146 -41t129 -41q34 0 54.5 16t39.5 56q17 34 47 34q22 0 37.5 -14.5t15.5 -34.5
q0 -3 -6 -33q-31 -89 -72.5 -127t-107.5 -38q-49 0 -145.5 40.5t-128.5 40.5q-35 0 -55.5 -16t-39.5 -55z" />
    <glyph glyph-name="odieresis" unicode="&#xf6;" horiz-adv-x="1323" 
d="M844 1423q40 0 68 -26.5t28 -65.5v-31q0 -39 -28 -65.5t-68 -26.5t-68 26.5t-28 65.5v31q0 39 28 65.5t68 26.5zM479 1423q40 0 68 -26.5t28 -65.5v-31q0 -39 -28 -65.5t-68 -26.5t-68 26.5t-28 65.5v31q0 39 28 65.5t68 26.5zM659 -25q-116 0 -219 44t-174.5 118
t-113 175t-41.5 212v4q0 149 71 275.5t198.5 202t283.5 75.5q116 0 219 -44t175 -118t114 -175t42 -212v-4q0 -148 -71.5 -275t-199.5 -202.5t-284 -75.5zM664 117q169 0 279 118.5t110 288.5v4q0 172 -114 293t-280 121q-112 0 -201 -56t-137.5 -149.5t-48.5 -204.5v-4
q0 -171 113 -291t279 -120z" />
    <glyph glyph-name="divide" unicode="&#xf7;" horiz-adv-x="1280" 
d="M1079 649h-878q-29 0 -50.5 21.5t-21.5 50.5t21.5 50.5t50.5 21.5h878q29 0 50.5 -21.5t21.5 -50.5t-21.5 -50.5t-50.5 -21.5zM641 1243q43 0 73.5 -30.5t30.5 -71.5v-27q0 -41 -30.5 -71.5t-73.5 -30.5q-44 0 -75 30t-31 72v27q0 42 31 72t75 30zM641 430
q43 0 73.5 -30.5t30.5 -71.5v-27q0 -41 -30.5 -71.5t-73.5 -30.5q-44 0 -75 30t-31 72v27q0 42 31 72t75 30z" />
    <glyph glyph-name="oslash" unicode="&#xf8;" horiz-adv-x="1323" 
d="M659 -25q-191 0 -340 113l-81 -84q-24 -24 -52 -24q-24 0 -40.5 15t-16.5 38q0 27 23 47l86 88q-127 149 -127 356v4q0 149 71 275.5t198.5 202t283.5 75.5q190 0 337 -112l84 88q24 24 54 24q23 0 39 -15t16 -38q0 -27 -20 -47l-89 -92q129 -151 129 -357v-4
q0 -148 -71.5 -275t-199.5 -202.5t-284 -75.5zM270 528q0 -138 76 -247l557 577q-107 86 -244 86q-169 0 -279 -120t-110 -292v-4zM664 115q170 0 280.5 119t110.5 290v4q0 137 -78 248l-555 -575q107 -86 242 -86z" />
    <glyph glyph-name="ugrave" unicode="&#xf9;" horiz-adv-x="1261" 
d="M1083 989v-919q0 -33 -22 -56.5t-55 -23.5q-32 0 -55 23t-23 57v114q-130 -207 -363 -207q-189 0 -297 116t-108 308v588q0 34 22 57t56 23q32 0 55.5 -23.5t23.5 -56.5v-549q0 -149 77 -234t216 -85q137 0 227.5 92.5t90.5 239.5v536q0 34 22 57t56 23q32 0 54.5 -23
t22.5 -57zM625 1210q-31 0 -52.5 8t-44.5 31l-153 146q-29 29 -29 47q0 21 37 41t74 20q43 0 73 -47l123 -186q11 -15 11 -31q0 -12 -11 -20.5t-28 -8.5z" />
    <glyph glyph-name="uacute" unicode="&#xfa;" horiz-adv-x="1261" 
d="M616 1210q-17 0 -27.5 8.5t-10.5 20.5q0 18 10 31l123 186q30 47 73 47q37 0 74 -20t37 -41q0 -18 -29 -47l-153 -146q-23 -23 -44.5 -31t-52.5 -8zM1083 989v-919q0 -33 -22 -56.5t-55 -23.5q-32 0 -55 23t-23 57v114q-130 -207 -363 -207q-189 0 -297 116t-108 308v588
q0 34 22 57t56 23q32 0 55.5 -23.5t23.5 -56.5v-549q0 -149 77 -234t216 -85q137 0 227.5 92.5t90.5 239.5v536q0 34 22 57t56 23q32 0 54.5 -23t22.5 -57z" />
    <glyph glyph-name="ucircumflex" unicode="&#xfb;" horiz-adv-x="1261" 
d="M618 1356l-120 -107q-25 -24 -46.5 -31.5t-52.5 -7.5q-17 0 -27 8.5t-10 20.5q0 9 15 35l143 176q38 45 82 45h37q44 0 82 -45l143 -176q15 -26 15 -35q0 -12 -11 -20.5t-28 -8.5q-60 0 -101 39zM1083 989v-919q0 -33 -22 -56.5t-55 -23.5q-32 0 -55 23t-23 57v114
q-130 -207 -363 -207q-189 0 -297 116t-108 308v588q0 34 22 57t56 23q32 0 55.5 -23.5t23.5 -56.5v-549q0 -149 77 -234t216 -85q137 0 227.5 92.5t90.5 239.5v536q0 34 22 57t56 23q32 0 54.5 -23t22.5 -57z" />
    <glyph glyph-name="udieresis" unicode="&#xfc;" horiz-adv-x="1261" 
d="M803 1423q40 0 68 -26.5t28 -65.5v-31q0 -39 -28 -65.5t-68 -26.5t-68 26.5t-28 65.5v31q0 39 28 65.5t68 26.5zM438 1423q40 0 68.5 -26.5t28.5 -65.5v-31q0 -39 -28.5 -65.5t-68.5 -26.5t-68 26.5t-28 65.5v31q0 39 28 65.5t68 26.5zM1083 989v-919q0 -33 -22 -56.5
t-55 -23.5q-32 0 -55 23t-23 57v114q-130 -207 -363 -207q-189 0 -297 116t-108 308v588q0 34 22 57t56 23q32 0 55.5 -23.5t23.5 -56.5v-549q0 -149 77 -234t216 -85q137 0 227.5 92.5t90.5 239.5v536q0 34 22 57t56 23q32 0 54.5 -23t22.5 -57z" />
    <glyph glyph-name="yacute" unicode="&#xfd;" horiz-adv-x="1202" 
d="M330 -334q-83 0 -174 31q-50 20 -50 67q0 29 20.5 48.5t47.5 19.5q15 0 39 -8q59 -19 115 -19q72 0 120.5 44.5t92.5 144.5l8 16l-443 938q-10 23 -10 43q0 32 23 55t57 23q56 0 80 -61l369 -832l327 834q21 59 76 59q32 0 55 -23t23 -55q0 -15 -8 -39l-414 -987
q-68 -162 -150.5 -230.5t-203.5 -68.5zM602 1210q-17 0 -28 8.5t-11 20.5q0 18 10 31l123 186q30 47 74 47q37 0 74 -20t37 -41q0 -18 -29 -47l-154 -146q-24 -24 -44.5 -31.5t-51.5 -7.5z" />
    <glyph glyph-name="thorn" unicode="&#xfe;" horiz-adv-x="1359" 
d="M176 -258v1683q0 34 23 57t55 23q34 0 57 -23t23 -57v-579q159 235 405 235q77 0 150.5 -23.5t137.5 -70t113 -111.5t77 -154t28 -190v-4q0 -126 -43 -231.5t-114 -174.5t-161.5 -107t-187.5 -38q-249 0 -405 226v-461q0 -34 -22 -57t-56 -23t-57 23t-23 57zM711 119
q159 0 265.5 110t106.5 297v4q0 183 -108.5 296.5t-263.5 113.5q-153 0 -268 -116t-115 -292v-4q0 -90 32 -167.5t85.5 -129.5t122.5 -82t143 -30z" />
    <glyph glyph-name="ydieresis" unicode="&#xff;" horiz-adv-x="1202" 
d="M330 -334q-83 0 -174 31q-50 20 -50 67q0 29 20.5 48.5t47.5 19.5q15 0 39 -8q59 -19 115 -19q72 0 120.5 44.5t92.5 144.5l8 16l-443 938q-10 23 -10 43q0 32 23 55t57 23q56 0 80 -61l369 -832l327 834q21 59 76 59q32 0 55 -23t23 -55q0 -15 -8 -39l-414 -987
q-68 -162 -150.5 -230.5t-203.5 -68.5zM788 1423q40 0 68.5 -26.5t28.5 -65.5v-31q0 -39 -28.5 -65.5t-68.5 -26.5t-68 26.5t-28 65.5v31q0 39 28 65.5t68 26.5zM424 1423q40 0 68 -26.5t28 -65.5v-31q0 -39 -28 -65.5t-68 -26.5t-68 26.5t-28 65.5v31q0 39 28 65.5t68 26.5
z" />
    <glyph glyph-name="Amacron" unicode="&#x100;" horiz-adv-x="1605" 
d="M104 63q0 21 11 43l581 1272q32 72 103 72h8q71 0 100 -72l582 -1269q10 -23 10 -41q0 -32 -23 -55t-55 -23q-55 0 -80 59l-149 330h-786l-150 -334q-22 -55 -78 -55q-31 0 -52.5 21t-21.5 52zM469 526h659l-329 734zM1071 1622h-541q-27 0 -46 19.5t-19 46.5t19 46
t46 19h541q27 0 46.5 -19.5t19.5 -45.5q0 -27 -19.5 -46.5t-46.5 -19.5z" />
    <glyph glyph-name="amacron" unicode="&#x101;" horiz-adv-x="1185" 
d="M492 -23q-102 0 -190 36t-147 113t-59 181v4q0 164 123.5 253t329.5 89q168 0 325 -45v37q0 141 -82 215t-233 74q-140 0 -274 -60q-15 -6 -29 -6q-28 0 -49 20t-21 48q0 23 13 40.5t30 24.5q166 72 346 72q226 0 343 -117q108 -108 108 -309v-579q0 -34 -22 -56t-54 -22
q-33 0 -54.5 21t-21.5 52v97q-141 -183 -382 -183zM522 102q149 0 252 81.5t103 205.5v103q-153 45 -312 45q-147 0 -228 -59.5t-81 -160.5v-4q0 -96 77 -153.5t189 -57.5zM862 1260h-540q-28 0 -47 19t-19 46t19.5 46.5t46.5 19.5h540q27 0 46.5 -19.5t19.5 -46.5t-19 -46
t-47 -19z" />
    <glyph glyph-name="Abreve" unicode="&#x102;" horiz-adv-x="1605" 
d="M104 63q0 21 11 43l581 1272q32 72 103 72h8q71 0 100 -72l582 -1269q10 -23 10 -41q0 -32 -23 -55t-55 -23q-55 0 -80 59l-149 330h-786l-150 -334q-22 -55 -78 -55q-31 0 -52.5 21t-21.5 52zM469 526h659l-329 734zM801 1577q-190 0 -271 149q-20 33 -20 72
q0 27 15.5 44.5t41.5 17.5q38 0 58 -39q46 -113 176 -113t176 113q20 39 57 39q26 0 42 -17.5t16 -44.5q0 -37 -21 -72q-81 -149 -270 -149z" />
    <glyph glyph-name="abreve" unicode="&#x103;" horiz-adv-x="1185" 
d="M492 -23q-102 0 -190 36t-147 113t-59 181v4q0 164 123.5 253t329.5 89q168 0 325 -45v37q0 141 -82 215t-233 74q-140 0 -274 -60q-15 -6 -29 -6q-28 0 -49 20t-21 48q0 23 13 40.5t30 24.5q166 72 346 72q226 0 343 -117q108 -108 108 -309v-579q0 -34 -22 -56t-54 -22
q-33 0 -54.5 21t-21.5 52v97q-141 -183 -382 -183zM522 102q149 0 252 81.5t103 205.5v103q-153 45 -312 45q-147 0 -228 -59.5t-81 -160.5v-4q0 -96 77 -153.5t189 -57.5zM592 1214q-189 0 -270 150q-21 35 -21 72q0 27 15.5 44t41.5 17q38 0 58 -39q46 -112 176 -112
t176 112q20 39 57 39q26 0 42 -17t16 -44q0 -37 -21 -72q-81 -150 -270 -150z" />
    <glyph glyph-name="Aogonek" unicode="&#x104;" horiz-adv-x="1617" 
d="M111 63q0 16 10 43l581 1272q32 72 103 72h8q70 0 102 -72l584 -1278q10 -20 10 -41q0 -33 -32 -65q-91 -79 -91 -144q0 -70 103 -90q59 -11 59 -49q0 -47 -57 -47q-25 0 -53.5 4t-62.5 15t-61 28.5t-45 48t-18 68.5q0 50 28 94t85 92l-164 365h-788l-150 -334
q-22 -55 -76 -55q-32 0 -53.5 21t-21.5 52zM475 526h660l-328 734z" />
    <glyph glyph-name="aogonek" unicode="&#x105;" horiz-adv-x="1185" 
d="M766 -174q0 50 29 95t90 99q-5 4 -8 59.5t-3 78.5v2q-141 -183 -382 -183q-102 0 -190 36t-147 113t-59 181v4q0 164 123.5 253t329.5 89q168 0 325 -45v37q0 141 -82 215t-233 74q-140 0 -274 -60q-15 -6 -29 -6q-28 0 -49 20t-21 48q0 23 13 40.5t30 24.5
q166 72 346 72q226 0 343 -117q108 -108 108 -309v-584q0 -23 -7.5 -37.5t-29.5 -33.5q-47 -43 -67.5 -74.5t-20.5 -67.5q0 -71 100 -90q60 -11 60 -49q0 -22 -14.5 -34.5t-40.5 -12.5q-34 0 -70.5 7t-77 23.5t-66.5 50.5t-26 81zM522 102q149 0 252 81.5t103 205.5v103
q-153 45 -312 45q-147 0 -228 -59.5t-81 -160.5v-4q0 -96 77 -153.5t189 -57.5z" />
    <glyph glyph-name="Cacute" unicode="&#x106;" horiz-adv-x="1511" 
d="M844 1573q-17 0 -28 8.5t-11 20.5q0 17 10 30l123 187q30 47 74 47q37 0 73.5 -20t36.5 -42q0 -19 -28 -47l-154 -145q-24 -24 -44.5 -31.5t-51.5 -7.5zM858 -25q-152 0 -286.5 57.5t-229 156.5t-149 235t-54.5 289v4q0 151 54.5 287t149 236t230.5 159t291 59
q163 0 283 -47.5t229 -138.5q33 -29 33 -66q0 -32 -25 -56t-57 -24q-25 0 -53 19q-90 80 -188.5 122t-223.5 42q-117 0 -220 -46t-176.5 -124t-116 -187t-42.5 -231v-4q0 -164 72.5 -299.5t200 -214t282.5 -78.5q129 0 229.5 43t196.5 131q23 23 51 23q31 0 54.5 -23.5
t23.5 -54.5q0 -36 -26 -58q-114 -104 -239.5 -157.5t-293.5 -53.5z" />
    <glyph glyph-name="cacute" unicode="&#x107;" horiz-adv-x="1169" 
d="M637 1210q-17 0 -28 8.5t-11 20.5q0 18 10 31l123 186q30 47 74 47q37 0 73.5 -20t36.5 -41q0 -19 -28 -47l-154 -146q-24 -24 -44.5 -31.5t-51.5 -7.5zM653 -25q-151 0 -276 75t-195.5 201t-70.5 273v4q0 148 70.5 275t195.5 202.5t276 75.5q222 0 389 -153
q25 -21 25 -56q0 -32 -22.5 -53.5t-53.5 -21.5q-29 0 -51 18q-66 60 -133.5 93.5t-155.5 33.5q-160 0 -269.5 -119.5t-109.5 -290.5v-4q0 -172 112.5 -291.5t277.5 -119.5q158 0 294 129q20 20 45 20q29 0 50.5 -21.5t21.5 -49.5q0 -30 -20 -50q-170 -170 -400 -170z" />
    <glyph glyph-name="Cdotaccent" unicode="&#x10a;" horiz-adv-x="1511" 
d="M858 -25q-152 0 -286.5 57.5t-229 156.5t-149 235t-54.5 289v4q0 151 54.5 287t149 236t230.5 159t291 59q163 0 283 -47.5t229 -138.5q33 -29 33 -66q0 -32 -25 -56t-57 -24q-25 0 -53 19q-90 80 -188.5 122t-223.5 42q-117 0 -220 -46t-176.5 -124t-116 -187
t-42.5 -231v-4q0 -164 72.5 -299.5t200 -214t282.5 -78.5q129 0 229.5 43t196.5 131q23 23 51 23q31 0 54.5 -23.5t23.5 -54.5q0 -36 -26 -58q-114 -104 -239.5 -157.5t-293.5 -53.5zM946 1694v-29q0 -41 -28 -67.5t-70 -26.5t-70 26.5t-28 67.5v29q0 41 28 66.5t70 25.5
t70 -25.5t28 -66.5z" />
    <glyph glyph-name="cdotaccent" unicode="&#x10b;" horiz-adv-x="1169" 
d="M653 -25q-151 0 -276 75t-195.5 201t-70.5 273v4q0 148 70.5 275t195.5 202.5t276 75.5q222 0 389 -153q25 -21 25 -56q0 -32 -22.5 -53.5t-53.5 -21.5q-29 0 -51 18q-66 60 -133.5 93.5t-155.5 33.5q-160 0 -269.5 -119.5t-109.5 -290.5v-4q0 -172 112.5 -291.5
t277.5 -119.5q158 0 294 129q20 20 45 20q29 0 50.5 -21.5t21.5 -49.5q0 -30 -20 -50q-170 -170 -400 -170zM741 1331v-28q0 -41 -28 -68t-70 -27t-70 27t-28 68v28q0 41 28 66.5t70 25.5t70 -25.5t28 -66.5z" />
    <glyph glyph-name="Ccaron" unicode="&#x10c;" horiz-adv-x="1511" 
d="M850 1712l121 109q25 22 46 29.5t52 7.5q17 0 27 -8.5t10 -20.5t-14 -33l-144 -176q-19 -24 -37 -35.5t-45 -11.5h-37q-27 0 -44 11t-37 36l-144 176q-14 21 -14 33t11 20.5t28 8.5q58 0 100 -37zM858 -25q-152 0 -286.5 57.5t-229 156.5t-149 235t-54.5 289v4
q0 151 54.5 287t149 236t230.5 159t291 59q163 0 283 -47.5t229 -138.5q33 -29 33 -66q0 -32 -25 -56t-57 -24q-25 0 -53 19q-90 80 -188.5 122t-223.5 42q-117 0 -220 -46t-176.5 -124t-116 -187t-42.5 -231v-4q0 -164 72.5 -299.5t200 -214t282.5 -78.5q129 0 229.5 43
t196.5 131q23 23 51 23q31 0 54.5 -23.5t23.5 -54.5q0 -36 -26 -58q-114 -104 -239.5 -157.5t-293.5 -53.5z" />
    <glyph glyph-name="ccaron" unicode="&#x10d;" horiz-adv-x="1169" 
d="M645 1350l121 108q25 22 46 29.5t52 7.5q17 0 27 -8.5t10 -20.5q0 -11 -14 -32l-144 -177q-20 -25 -37 -36t-44 -11h-37q-27 0 -45 11.5t-37 35.5l-144 177q-14 21 -14 32q0 12 11 20.5t28 8.5q58 0 100 -37zM653 -25q-151 0 -276 75t-195.5 201t-70.5 273v4
q0 148 70.5 275t195.5 202.5t276 75.5q222 0 389 -153q25 -21 25 -56q0 -32 -22.5 -53.5t-53.5 -21.5q-29 0 -51 18q-66 60 -133.5 93.5t-155.5 33.5q-160 0 -269.5 -119.5t-109.5 -290.5v-4q0 -172 112.5 -291.5t277.5 -119.5q158 0 294 129q20 20 45 20q29 0 50.5 -21.5
t21.5 -49.5q0 -30 -20 -50q-170 -170 -400 -170z" />
    <glyph glyph-name="Dcaron" unicode="&#x10e;" horiz-adv-x="1601" 
d="M770 1692l121 108q25 22 46 29.5t52 7.5q17 0 27 -8.5t10 -20.5q0 -11 -14 -32l-144 -177q-19 -24 -37 -35.5t-45 -11.5h-36q-27 0 -45 11.5t-37 35.5l-144 177q-14 21 -14 32q0 12 11 20.5t28 8.5q58 0 100 -37zM203 82v1270q0 34 24 58t56 24h417q166 0 309 -55
t242 -150t155 -226.5t56 -281.5v-4q0 -150 -56 -282t-155 -228t-242 -151.5t-309 -55.5h-417q-32 0 -56 24t-24 58zM365 150h335q133 0 245 43.5t188 119t118.5 179t42.5 221.5v4q0 118 -42.5 222t-118.5 180.5t-188 120.5t-245 44h-335v-1134z" />
    <glyph glyph-name="dcaron" unicode="&#x10f;" horiz-adv-x="1359" 
d="M1315 1200l18 238q3 31 21 48t49 17h31q45 0 45 -43q0 -16 -11 -49l-71 -217q-11 -41 -45 -41q-42 0 -37 47zM1184 1425v-1355q0 -34 -23 -57t-55 -23q-34 0 -57 23t-23 57v143q-160 -236 -405 -236q-77 0 -150.5 23.5t-137.5 70t-113 111.5t-77 154t-28 190v4
q0 125 43 231t114.5 175t162 107t186.5 38q250 0 405 -225v569q0 34 22 57t56 23t57 -23t23 -57zM649 940q-159 0 -266 -110.5t-107 -297.5v-4q0 -182 109.5 -295.5t263.5 -113.5q153 0 268 116t115 293v4q0 177 -115 292.5t-268 115.5z" />
    <glyph glyph-name="Dcroat" unicode="&#x110;" horiz-adv-x="1662" 
d="M174 795h90v557q0 34 24 58t56 24h418q166 0 309 -55t242 -150t155 -226.5t56 -281.5v-4q0 -150 -56 -282t-155 -228t-242 -151.5t-309 -55.5h-418q-32 0 -56 24t-24 58v565h-90q-31 0 -52.5 21.5t-21.5 52.5t21.5 52.5t52.5 21.5zM426 1284v-489h367q29 0 51 -21.5
t22 -52.5t-22 -52.5t-51 -21.5h-367v-497h336q133 0 245 43.5t188 119t118.5 179t42.5 221.5v4q0 118 -42.5 222t-118.5 180.5t-188 120.5t-245 44h-336z" />
    <glyph glyph-name="dcroat" unicode="&#x111;" horiz-adv-x="1359" 
d="M1184 1425v-59h94q23 0 40 -16t17 -39t-17 -40.5t-40 -17.5h-94v-1183q0 -34 -23 -57t-55 -23q-34 0 -57 23t-23 57v143q-160 -236 -405 -236q-77 0 -150.5 23.5t-137.5 70t-113 111.5t-77 154t-28 190v4q0 125 43 231t114.5 175t162 107t186.5 38q250 0 405 -225v397
h-315q-23 0 -39.5 17.5t-16.5 40.5t16.5 39t39.5 16h315v59q0 34 22 57t56 23t57 -23t23 -57zM649 940q-159 0 -266 -110.5t-107 -297.5v-4q0 -182 109.5 -295.5t263.5 -113.5q153 0 268 116t115 293v4q0 177 -115 292.5t-268 115.5z" />
    <glyph glyph-name="Emacron" unicode="&#x112;" horiz-adv-x="1372" 
d="M283 0q-32 0 -56 24t-24 58v1270q0 34 24 58t56 24h891q31 0 52 -21.5t21 -52.5t-21 -52.5t-52 -21.5h-809v-489h716q30 0 52 -22t22 -52q0 -31 -21.5 -52.5t-52.5 -21.5h-716v-502h819q31 0 52 -21t21 -52t-21 -52.5t-52 -21.5h-901zM993 1602h-540q-27 0 -46.5 19
t-19.5 46t19.5 46.5t46.5 19.5h540q27 0 46.5 -19.5t19.5 -46.5t-19.5 -46t-46.5 -19z" />
    <glyph glyph-name="emacron" unicode="&#x113;" horiz-adv-x="1212" 
d="M270 588h682q-13 155 -100.5 257.5t-237.5 102.5q-137 0 -233 -101.5t-111 -258.5zM1038 135q-81 -78 -176 -119t-223 -41q-145 0 -265 68.5t-191.5 195.5t-71.5 287v4q0 151 65 277t181.5 200t260.5 74q114 0 208.5 -44t155.5 -118.5t94.5 -171t33.5 -202.5
q0 -32 -22 -53t-52 -21h-766q17 -167 122 -262.5t251 -95.5q172 0 305 123q22 18 45 18q29 0 49.5 -20t20.5 -48q0 -29 -25 -51zM887 1260h-541q-27 0 -46 19t-19 46t19 46.5t46 19.5h541q27 0 46 -19.5t19 -46.5t-19 -46t-46 -19z" />
    <glyph glyph-name="Ebreve" unicode="&#x114;" horiz-adv-x="1372" 
d="M283 0q-32 0 -56 24t-24 58v1270q0 34 24 58t56 24h891q31 0 52 -21.5t21 -52.5t-21 -52.5t-52 -21.5h-809v-489h716q30 0 52 -22t22 -52q0 -31 -21.5 -52.5t-52.5 -21.5h-716v-502h819q31 0 52 -21t21 -52t-21 -52.5t-52 -21.5h-901zM723 1556q-189 0 -270 150
q-21 35 -21 72q0 27 15.5 44t41.5 17q38 0 58 -39q46 -112 176 -112t176 112q20 39 57 39q26 0 42 -17t16 -44q0 -37 -21 -72q-81 -150 -270 -150z" />
    <glyph glyph-name="ebreve" unicode="&#x115;" horiz-adv-x="1212" 
d="M270 588h682q-13 155 -100.5 257.5t-237.5 102.5q-137 0 -233 -101.5t-111 -258.5zM1038 135q-81 -78 -176 -119t-223 -41q-145 0 -265 68.5t-191.5 195.5t-71.5 287v4q0 151 65 277t181.5 200t260.5 74q114 0 208.5 -44t155.5 -118.5t94.5 -171t33.5 -202.5
q0 -32 -22 -53t-52 -21h-766q17 -167 122 -262.5t251 -95.5q172 0 305 123q22 18 45 18q29 0 49.5 -20t20.5 -48q0 -29 -25 -51zM616 1214q-189 0 -270 150q-20 33 -20 72q0 27 15.5 44t41.5 17q37 0 57 -39q46 -112 176 -112q131 0 177 112q20 39 57 39q26 0 41.5 -17
t15.5 -44q0 -39 -20 -72q-81 -150 -271 -150z" />
    <glyph glyph-name="Edotaccent" unicode="&#x116;" horiz-adv-x="1372" 
d="M283 0q-32 0 -56 24t-24 58v1270q0 34 24 58t56 24h891q31 0 52 -21.5t21 -52.5t-21 -52.5t-52 -21.5h-809v-489h716q30 0 52 -22t22 -52q0 -31 -21.5 -52.5t-52.5 -21.5h-716v-502h819q31 0 52 -21t21 -52t-21 -52.5t-52 -21.5h-901zM821 1673v-28q0 -41 -28 -68
t-70 -27t-70 27t-28 68v28q0 41 28 66.5t70 25.5t70 -25.5t28 -66.5z" />
    <glyph glyph-name="edotaccent" unicode="&#x117;" horiz-adv-x="1212" 
d="M270 588h682q-13 155 -100.5 257.5t-237.5 102.5q-137 0 -233 -101.5t-111 -258.5zM1038 135q-81 -78 -176 -119t-223 -41q-145 0 -265 68.5t-191.5 195.5t-71.5 287v4q0 151 65 277t181.5 200t260.5 74q114 0 208.5 -44t155.5 -118.5t94.5 -171t33.5 -202.5
q0 -32 -22 -53t-52 -21h-766q17 -167 122 -262.5t251 -95.5q172 0 305 123q22 18 45 18q29 0 49.5 -20t20.5 -48q0 -29 -25 -51zM715 1331v-28q0 -41 -28.5 -68t-70.5 -27t-70 27t-28 68v28q0 41 28 66.5t70 25.5t70.5 -25.5t28.5 -66.5z" />
    <glyph glyph-name="Eogonek" unicode="&#x118;" horiz-adv-x="1372" 
d="M283 0q-32 0 -56 24t-24 58v1270q0 34 24 58t56 24h891q31 0 52 -21.5t21 -52.5t-21 -52.5t-52 -21.5h-809v-489h716q30 0 52 -22t22 -52q0 -31 -21.5 -52.5t-52.5 -21.5h-716v-502h817q34 0 54.5 -19t20.5 -48q0 -25 -10.5 -41t-34.5 -35q-62 -50 -87 -83.5t-25 -72.5
q0 -38 24.5 -58t73.5 -30q62 -11 62 -49q0 -22 -15 -34.5t-43 -12.5q-26 0 -54 3.5t-62 15t-60.5 28.5t-44.5 47.5t-18 69.5q0 85 104 172h-784z" />
    <glyph glyph-name="eogonek" unicode="&#x119;" horiz-adv-x="1212" 
d="M1110 545q0 -32 -22 -53t-52 -21h-766q17 -167 122 -262.5t251 -95.5q172 0 305 123q22 18 45 18q29 0 49.5 -20t20.5 -48q0 -29 -25 -51q-12 -12 -82 -74q-76 -66 -104.5 -110.5t-28.5 -87.5q0 -46 26.5 -69.5t76.5 -33.5q61 -11 61 -49q0 -22 -15.5 -34.5t-41.5 -12.5
q-60 0 -112 16t-90 56.5t-38 99.5q0 78 74 152q-63 -13 -125 -13q-145 0 -265 68.5t-191.5 195.5t-71.5 287v4q0 151 65 277t181.5 200t260.5 74q114 0 208.5 -44t155.5 -118.5t94.5 -171t33.5 -202.5zM270 588h682q-13 155 -100.5 257.5t-237.5 102.5q-137 0 -233 -101.5
t-111 -258.5z" />
    <glyph glyph-name="Ecaron" unicode="&#x11a;" horiz-adv-x="1372" 
d="M725 1692l121 108q25 22 46 29.5t52 7.5q17 0 27 -8.5t10 -20.5q0 -11 -14 -32l-144 -177q-19 -24 -37 -35.5t-45 -11.5h-36q-27 0 -45 11.5t-37 35.5l-144 177q-14 21 -14 32q0 12 11 20.5t28 8.5q58 0 100 -37zM283 0q-32 0 -56 24t-24 58v1270q0 34 24 58t56 24h891
q31 0 52 -21.5t21 -52.5t-21 -52.5t-52 -21.5h-809v-489h716q30 0 52 -22t22 -52q0 -31 -21.5 -52.5t-52.5 -21.5h-716v-502h819q31 0 52 -21t21 -52t-21 -52.5t-52 -21.5h-901z" />
    <glyph glyph-name="ecaron" unicode="&#x11b;" horiz-adv-x="1212" 
d="M618 1350l121 108q25 22 46.5 29.5t52.5 7.5q17 0 26.5 -8.5t9.5 -20.5q0 -11 -14 -32l-143 -177q-19 -24 -37 -35.5t-45 -11.5h-37q-27 0 -45 11.5t-37 35.5l-143 177q-15 22 -15 32q0 12 11 20.5t28 8.5q59 0 101 -37zM270 588h682q-13 155 -100.5 257.5t-237.5 102.5
q-137 0 -233 -101.5t-111 -258.5zM1038 135q-81 -78 -176 -119t-223 -41q-145 0 -265 68.5t-191.5 195.5t-71.5 287v4q0 151 65 277t181.5 200t260.5 74q114 0 208.5 -44t155.5 -118.5t94.5 -171t33.5 -202.5q0 -32 -22 -53t-52 -21h-766q17 -167 122 -262.5t251 -95.5
q172 0 305 123q22 18 45 18q29 0 49.5 -20t20.5 -48q0 -29 -25 -51z" />
    <glyph glyph-name="Gbreve" unicode="&#x11e;" horiz-adv-x="1605" 
d="M868 -25q-220 0 -387.5 99.5t-254.5 266t-87 372.5v4q0 147 52.5 281.5t145 236.5t228.5 162.5t293 60.5q155 0 270.5 -38.5t219.5 -114.5q32 -25 32 -66q0 -34 -24 -58t-56 -24q-23 0 -51 21q-84 64 -177 97.5t-220 33.5q-155 0 -280.5 -80.5t-195 -214.5t-69.5 -293v-4
q0 -171 68.5 -306t198 -212.5t300.5 -77.5q118 0 227 40t187 103v357h-385q-29 0 -50.5 21t-21.5 50q0 31 21.5 52.5t50.5 21.5h461q32 0 56 -24t24 -58v-436q0 -61 -55 -98q-239 -175 -521 -175zM844 1577q-190 0 -271 149q-20 33 -20 72q0 27 15.5 44.5t41.5 17.5
q38 0 58 -39q46 -113 176 -113t176 113q20 39 57 39q26 0 42 -17.5t16 -44.5q0 -37 -21 -72q-81 -149 -270 -149z" />
    <glyph glyph-name="gbreve" unicode="&#x11f;" horiz-adv-x="1359" 
d="M645 -332q-239 0 -442 125q-41 20 -41 66q0 26 21.5 47.5t49.5 21.5q18 0 35 -10q172 -115 375 -115q179 0 282 97.5t103 279.5v125q-167 -223 -416 -223q-96 0 -185 35t-158.5 98t-111.5 157.5t-42 205.5v4q0 112 42 207.5t112 158.5t159 98t184 35q255 0 414 -213v121
q0 33 22.5 56.5t55.5 23.5t56.5 -23.5t23.5 -56.5v-805q0 -239 -135 -374q-142 -142 -404 -142zM643 221q156 0 272.5 102t116.5 257v4q0 157 -116 257.5t-273 100.5q-155 0 -261 -98.5t-106 -257.5v-4q0 -156 108 -258.5t259 -102.5zM672 1214q-190 0 -271 150
q-20 33 -20 72q0 27 15.5 44t41.5 17q38 0 58 -39q46 -112 176 -112t176 112q20 39 57 39q26 0 42 -17t16 -44q0 -37 -21 -72q-81 -150 -270 -150z" />
    <glyph glyph-name="Gdotaccent" unicode="&#x120;" horiz-adv-x="1605" 
d="M868 -25q-220 0 -387.5 99.5t-254.5 266t-87 372.5v4q0 147 52.5 281.5t145 236.5t228.5 162.5t293 60.5q155 0 270.5 -38.5t219.5 -114.5q32 -25 32 -66q0 -34 -24 -58t-56 -24q-23 0 -51 21q-84 64 -177 97.5t-220 33.5q-155 0 -280.5 -80.5t-195 -214.5t-69.5 -293v-4
q0 -171 68.5 -306t198 -212.5t300.5 -77.5q118 0 227 40t187 103v357h-385q-29 0 -50.5 21t-21.5 50q0 31 21.5 52.5t50.5 21.5h461q32 0 56 -24t24 -58v-436q0 -61 -55 -98q-239 -175 -521 -175zM942 1694v-29q0 -41 -28 -67.5t-70 -26.5t-70.5 26.5t-28.5 67.5v29
q0 41 28.5 66.5t70.5 25.5t70 -25.5t28 -66.5z" />
    <glyph glyph-name="gdotaccent" unicode="&#x121;" horiz-adv-x="1359" 
d="M645 -332q-239 0 -442 125q-41 20 -41 66q0 26 21.5 47.5t49.5 21.5q18 0 35 -10q172 -115 375 -115q179 0 282 97.5t103 279.5v125q-167 -223 -416 -223q-96 0 -185 35t-158.5 98t-111.5 157.5t-42 205.5v4q0 112 42 207.5t112 158.5t159 98t184 35q255 0 414 -213v121
q0 33 22.5 56.5t55.5 23.5t56.5 -23.5t23.5 -56.5v-805q0 -239 -135 -374q-142 -142 -404 -142zM643 221q156 0 272.5 102t116.5 257v4q0 157 -116 257.5t-273 100.5q-155 0 -261 -98.5t-106 -257.5v-4q0 -156 108 -258.5t259 -102.5zM770 1331v-28q0 -41 -28 -68t-70 -27
t-70.5 27t-28.5 68v28q0 41 28.5 66.5t70.5 25.5t70 -25.5t28 -66.5z" />
    <glyph glyph-name="Gcommaaccent" unicode="&#x122;" horiz-adv-x="1605" 
d="M829 -317q-36 6 -58.5 27.5t-22.5 56.5v10q0 37 26.5 62.5t67.5 25.5q42 0 69 -29t27 -78v-10q0 -124 -66 -184q-28 -28 -71.5 -45t-75.5 -17q-18 0 -28.5 9t-10.5 20q0 27 35 35q60 15 85 42t23 75zM868 -25q-220 0 -387.5 99.5t-254.5 266t-87 372.5v4
q0 147 52.5 281.5t145 236.5t228.5 162.5t293 60.5q155 0 270.5 -38.5t219.5 -114.5q32 -25 32 -66q0 -34 -24 -58t-56 -24q-23 0 -51 21q-84 64 -177 97.5t-220 33.5q-155 0 -280.5 -80.5t-195 -214.5t-69.5 -293v-4q0 -171 68.5 -306t198 -212.5t300.5 -77.5q118 0 227 40
t187 103v357h-385q-29 0 -50.5 21t-21.5 50q0 31 21.5 52.5t50.5 21.5h461q32 0 56 -24t24 -58v-436q0 -61 -55 -98q-239 -175 -521 -175z" />
    <glyph glyph-name="gcommaaccent" unicode="&#x123;" horiz-adv-x="1359" 
d="M684 1391q36 -6 59 -27.5t23 -56.5v-11q0 -37 -26.5 -62.5t-67.5 -25.5q-42 0 -69.5 29t-27.5 78v10q0 124 66 184q28 28 71.5 45t75.5 17q18 0 28.5 -9t10.5 -20q0 -27 -34 -35q-60 -15 -85.5 -42t-23.5 -74zM645 -332q-239 0 -442 125q-41 20 -41 66q0 26 21.5 47.5
t49.5 21.5q18 0 35 -10q172 -115 375 -115q179 0 282 97.5t103 279.5v125q-167 -223 -416 -223q-96 0 -185 35t-158.5 98t-111.5 157.5t-42 205.5v4q0 112 42 207.5t112 158.5t159 98t184 35q255 0 414 -213v121q0 33 22.5 56.5t55.5 23.5t56.5 -23.5t23.5 -56.5v-805
q0 -239 -135 -374q-142 -142 -404 -142zM643 221q156 0 272.5 102t116.5 257v4q0 157 -116 257.5t-273 100.5q-155 0 -261 -98.5t-106 -257.5v-4q0 -156 108 -258.5t259 -102.5z" />
    <glyph glyph-name="Hbar" unicode="&#x126;" horiz-adv-x="1646" 
d="M246 72v975h-96q-27 0 -45.5 17.5t-18.5 43.5q0 25 19 43t45 18h96v193q0 34 24 58t56 24q34 0 58 -24t24 -58v-193h827v193q0 34 24 58t58 24q32 0 56 -24t24 -58v-193h100q25 0 43.5 -18t18.5 -43q0 -26 -18.5 -43.5t-43.5 -17.5h-100v-975q0 -34 -24 -58t-56 -24
q-34 0 -58 24t-24 58v573h-827v-573q0 -34 -24 -58t-58 -24q-32 0 -56 24t-24 58zM408 797h827v250h-827v-250z" />
    <glyph glyph-name="hbar" unicode="&#x127;" horiz-adv-x="1261" 
d="M176 70v1183h-94q-23 0 -40 17.5t-17 40.5t17 39t40 16h94v59q0 32 23 56t55 24q33 0 56.5 -23.5t23.5 -56.5v-59h315q24 0 41 -16t17 -39t-17.5 -40.5t-40.5 -17.5h-315v-379q126 207 362 207q189 0 297.5 -116t108.5 -308v-587q0 -34 -23 -57t-55 -23q-34 0 -57 23
t-23 57v548q0 149 -77.5 234.5t-215.5 85.5t-227.5 -92t-89.5 -240v-536q0 -34 -22 -57t-56 -23t-57 23t-23 57z" />
    <glyph glyph-name="Imacron" unicode="&#x12a;" horiz-adv-x="595" 
d="M217 72v1290q0 34 24 58t56 24q34 0 58 -24t24 -58v-1290q0 -34 -24 -58t-58 -24q-32 0 -56 24t-24 58zM569 1602h-540q-27 0 -46.5 19t-19.5 46t19.5 46.5t46.5 19.5h540q27 0 46.5 -19.5t19.5 -46.5t-19.5 -46t-46.5 -19z" />
    <glyph glyph-name="imacron" unicode="&#x12b;" horiz-adv-x="538" 
d="M190 70v919q0 32 23 56t55 24q34 0 57 -23t23 -57v-919q0 -34 -22 -57t-56 -23t-57 23t-23 57zM541 1260h-541q-28 0 -47 19t-19 46t19.5 46.5t46.5 19.5h541q27 0 46 -19.5t19 -46.5t-19 -46t-46 -19z" />
    <glyph glyph-name="Ibreve" unicode="&#x12c;" horiz-adv-x="595" 
d="M217 72v1290q0 34 24 58t56 24q34 0 58 -24t24 -58v-1290q0 -34 -24 -58t-58 -24q-32 0 -56 24t-24 58zM299 1556q-189 0 -270 150q-21 35 -21 72q0 27 16 44t42 17q37 0 57 -39q46 -112 176 -112t176 112q20 39 57 39q26 0 42 -17t16 -44q0 -37 -21 -72
q-81 -150 -270 -150z" />
    <glyph glyph-name="ibreve" unicode="&#x12d;" horiz-adv-x="538" 
d="M190 70v919q0 32 23 56t55 24q34 0 57 -23t23 -57v-919q0 -34 -22 -57t-56 -23t-57 23t-23 57zM270 1214q-189 0 -270 150q-20 33 -20 72q0 27 15.5 44t41.5 17q37 0 57 -39q46 -112 176 -112t176 112q20 39 58 39q26 0 41.5 -17t15.5 -44q0 -39 -20 -72
q-81 -150 -271 -150z" />
    <glyph glyph-name="Iogonek" unicode="&#x12e;" horiz-adv-x="595" 
d="M119 -172q0 51 27 95t85 93q-14 11 -14 33v1313q0 34 24 58t56 24q34 0 58 -24t24 -58v-1296q0 -40 -35 -72q-50 -45 -70 -76.5t-20 -67.5q0 -71 102 -90q60 -11 60 -49q0 -22 -15 -34.5t-41 -12.5t-54.5 4t-63 15t-61 28.5t-44.5 48t-18 68.5z" />
    <glyph glyph-name="iogonek" unicode="&#x12f;" horiz-adv-x="538" 
d="M348 989v-926q0 -23 -7.5 -37.5t-29.5 -33.5q-47 -43 -67.5 -74.5t-20.5 -67.5q0 -71 101 -90q59 -11 59 -49q0 -22 -14.5 -34.5t-40.5 -12.5q-34 0 -70.5 7t-77 23.5t-66.5 50.5t-26 81q0 53 29.5 98.5t89.5 93.5q-17 14 -17 33v938q0 32 23 56t55 24q34 0 57 -23
t23 -57zM176 1364v27q0 37 26.5 60.5t65.5 23.5q40 0 67 -23t27 -61v-27q0 -36 -27 -60t-67 -24q-39 0 -65.5 24t-26.5 60z" />
    <glyph glyph-name="Idotaccent" unicode="&#x130;" horiz-adv-x="595" 
d="M217 72v1290q0 34 24 58t56 24q34 0 58 -24t24 -58v-1290q0 -34 -24 -58t-58 -24q-32 0 -56 24t-24 58zM397 1673v-28q0 -41 -28 -68t-70 -27t-70 27t-28 68v28q0 41 28 66.5t70 25.5t70 -25.5t28 -66.5z" />
    <glyph glyph-name="dotlessi" unicode="&#x131;" horiz-adv-x="538" 
d="M190 70v919q0 32 23 56t55 24q34 0 57 -23t23 -57v-919q0 -34 -22 -57t-56 -23t-57 23t-23 57z" />
    <glyph glyph-name="Kcommaaccent" unicode="&#x136;" horiz-adv-x="1462" 
d="M729 -305q-36 6 -59 27.5t-23 56.5v10q0 37 26.5 62.5t67.5 25.5q42 0 69.5 -29t27.5 -77v-11q0 -124 -66 -184q-27 -27 -71 -44t-76 -17q-18 0 -28.5 8.5t-10.5 19.5q0 27 35 35q60 15 85 42t23 75zM203 72v1290q0 34 24 58t56 24q34 0 58 -24t24 -58v-784l817 837
q33 29 63 29q32 0 55 -24.5t23 -55.5q0 -30 -27 -57l-508 -504l545 -672q23 -30 23 -59q0 -33 -24.5 -57.5t-57.5 -24.5q-40 0 -66 37l-534 665l-309 -309v-311q0 -34 -24 -58t-58 -24q-32 0 -56 24t-24 58z" />
    <glyph glyph-name="kcommaaccent" unicode="&#x137;" horiz-adv-x="1163" 
d="M598 -315q-36 6 -59 27.5t-23 56.5v10q0 37 26.5 62.5t67.5 25.5q42 0 69.5 -29t27.5 -78v-10q0 -124 -66 -184q-28 -28 -71.5 -45t-75.5 -17q-18 0 -28.5 9t-10.5 20q0 27 34 35q60 15 85.5 42.5t23.5 74.5zM176 70v1355q0 32 23 56t55 24q33 0 56.5 -23.5t23.5 -56.5
v-970l573 583q28 31 62 31q31 0 51 -22t20 -52q0 -31 -30 -61l-346 -340l378 -477q21 -27 21 -54q0 -32 -21.5 -52.5t-54.5 -20.5q-40 0 -67 37l-367 462l-219 -217v-202q0 -34 -22 -57t-56 -23t-57 23t-23 57z" />
    <glyph glyph-name="Lacute" unicode="&#x139;" horiz-adv-x="1267" 
d="M311 1552q-17 0 -28 8.5t-11 20.5q0 16 11 31l123 186q30 47 73 47q37 0 74 -20t37 -41q0 -18 -29 -47l-153 -146q-23 -23 -44.5 -31t-52.5 -8zM203 82v1280q0 34 24 58t56 24q34 0 58 -24t24 -58v-1212h743q31 0 52.5 -22.5t21.5 -53.5t-21.5 -52.5t-52.5 -21.5h-825
q-32 0 -56 24t-24 58z" />
    <glyph glyph-name="lacute" unicode="&#x13a;" horiz-adv-x="538" 
d="M270 1595q-17 0 -28 8.5t-11 20.5q0 16 11 31l123 186q30 47 73 47q37 0 74 -20t37 -41q0 -18 -29 -47l-153 -146q-23 -23 -44.5 -31t-52.5 -8zM190 70v1355q0 32 23 56t55 24q33 0 56.5 -23.5t23.5 -56.5v-1355q0 -34 -22 -57t-56 -23t-57 23t-23 57z" />
    <glyph glyph-name="Lcommaaccent" unicode="&#x13b;" horiz-adv-x="1267" 
d="M666 -315q-36 6 -59 27.5t-23 56.5v10q0 37 26.5 62.5t67.5 25.5q42 0 69 -29t27 -78v-10q0 -125 -65 -184q-27 -27 -71.5 -44.5t-76.5 -17.5q-18 0 -28.5 9t-10.5 20q0 27 35 35q60 15 85.5 42.5t23.5 74.5zM203 82v1280q0 34 24 58t56 24q34 0 58 -24t24 -58v-1212h743
q31 0 52.5 -22.5t21.5 -53.5t-21.5 -52.5t-52.5 -21.5h-825q-32 0 -56 24t-24 58z" />
    <glyph glyph-name="lcommaaccent" unicode="&#x13c;" horiz-adv-x="538" 
d="M256 -315q-36 6 -59 27.5t-23 56.5v10q0 37 26.5 62.5t67.5 25.5q42 0 69.5 -29t27.5 -78v-10q0 -124 -66 -184q-28 -28 -71.5 -45t-75.5 -17q-18 0 -28.5 9t-10.5 20q0 27 34 35q60 15 85.5 42.5t23.5 74.5zM190 70v1355q0 32 23 56t55 24q33 0 56.5 -23.5t23.5 -56.5
v-1355q0 -34 -22 -57t-56 -23t-57 23t-23 57z" />
    <glyph glyph-name="Lcaron" unicode="&#x13d;" horiz-adv-x="1267" 
d="M553 1135l18 237q3 31 21.5 48.5t48.5 17.5h31q45 0 45 -43q0 -19 -10 -49l-72 -218q-11 -41 -45 -41q-42 0 -37 48zM203 82v1280q0 34 24 58t56 24q34 0 58 -24t24 -58v-1212h743q31 0 52.5 -22.5t21.5 -53.5t-21.5 -52.5t-52.5 -21.5h-825q-32 0 -56 24t-24 58z" />
    <glyph glyph-name="lcaron" unicode="&#x13e;" horiz-adv-x="538" 
d="M483 1198l19 238q6 65 69 65h31q45 0 45 -43q0 -19 -10 -49l-72 -217q-11 -41 -45 -41q-42 0 -37 47zM190 70v1355q0 32 23 56t55 24q33 0 56.5 -23.5t23.5 -56.5v-1355q0 -34 -22 -57t-56 -23t-57 23t-23 57z" />
    <glyph glyph-name="Ldot" unicode="&#x13f;" horiz-adv-x="1267" 
d="M203 82v1280q0 34 24 58t56 24q34 0 58 -24t24 -58v-1212h743q31 0 52.5 -22.5t21.5 -53.5t-21.5 -52.5t-52.5 -21.5h-825q-32 0 -56 24t-24 58zM1049 770v-29q0 -41 -28.5 -67.5t-70.5 -26.5t-70 26.5t-28 67.5v29q0 41 28 66.5t70 25.5t70.5 -25.5t28.5 -66.5z" />
    <glyph glyph-name="ldot" unicode="&#x140;" horiz-adv-x="677" 
d="M698 770v-29q0 -37 -25 -63.5t-63 -26.5q-37 0 -62.5 26.5t-25.5 63.5v29q0 37 25.5 63.5t62.5 26.5q38 0 63 -26.5t25 -63.5zM190 70v1355q0 32 23 56t55 24q33 0 56.5 -23.5t23.5 -56.5v-1355q0 -34 -22 -57t-56 -23t-57 23t-23 57z" />
    <glyph glyph-name="Lslash" unicode="&#x141;" horiz-adv-x="1329" 
d="M823 788l-399 -122v-516h745q31 0 52.5 -22.5t21.5 -53.5t-21.5 -52.5t-52.5 -21.5h-825q-32 0 -56 24t-24 58v536l-59 -18q-15 -6 -35 -6q-29 0 -49.5 20.5t-20.5 51.5q0 52 54 69l110 33v594q0 34 23 58t57 24t57 -24t23 -58v-545l346 107q30 6 35 6q31 0 51.5 -21.5
t20.5 -52.5q0 -26 -15 -44t-39 -24z" />
    <glyph glyph-name="lslash" unicode="&#x142;" horiz-adv-x="661" 
d="M524 739l-114 -34v-635q0 -34 -22 -57t-56 -23t-56 23t-22 57v587l-64 -18q-15 -6 -32 -6q-31 0 -51.5 20.5t-20.5 51.5q0 52 53 69q52 15 115 35v616q0 33 22 56.5t54 23.5q33 0 56.5 -23.5t23.5 -56.5v-569l61 18q17 7 35 7q29 0 49 -20.5t20 -51.5q0 -52 -51 -70z" />
    <glyph glyph-name="Nacute" unicode="&#x143;" horiz-adv-x="1617" 
d="M803 1552q-17 0 -28 8.5t-11 20.5q0 18 10 31l123 186q30 47 74 47q37 0 73.5 -20t36.5 -41q0 -19 -28 -47l-154 -146q-24 -24 -44.5 -31.5t-51.5 -7.5zM203 70v1290q0 32 24 56t56 24h22q45 0 82 -47l870 -1110v1081q0 33 23.5 56.5t56.5 23.5q32 0 55 -24t23 -56v-1294
q0 -32 -21 -54t-53 -22h-8q-42 0 -84 49l-889 1137v-1110q0 -33 -23 -56.5t-56 -23.5q-32 0 -55 24t-23 56z" />
    <glyph glyph-name="nacute" unicode="&#x144;" horiz-adv-x="1261" 
d="M633 1210q-17 0 -28 8.5t-11 20.5q0 18 10 31l123 186q30 47 74 47q37 0 73.5 -20t36.5 -41q0 -19 -28 -47l-154 -146q-24 -24 -44.5 -31.5t-51.5 -7.5zM176 70v919q0 32 23 56t55 24q34 0 57 -23t23 -57v-115q126 207 362 207q189 0 297.5 -116t108.5 -308v-587
q0 -34 -23 -57t-55 -23q-34 0 -57 23t-23 57v548q0 149 -77.5 234.5t-215.5 85.5t-227.5 -92t-89.5 -240v-536q0 -34 -22 -57t-56 -23t-57 23t-23 57z" />
    <glyph glyph-name="Ncommaaccent" unicode="&#x145;" horiz-adv-x="1617" 
d="M795 -305q-36 6 -59 27.5t-23 56.5v10q0 37 26.5 62.5t67.5 25.5q42 0 69 -28.5t27 -77.5v-11q0 -125 -65 -184q-27 -27 -71.5 -44t-76.5 -17q-18 0 -28.5 8.5t-10.5 19.5q0 27 35 35q60 15 85.5 42.5t23.5 74.5zM203 70v1290q0 32 24 56t56 24h22q45 0 82 -47l870 -1110
v1081q0 33 23.5 56.5t56.5 23.5q32 0 55 -24t23 -56v-1294q0 -32 -21 -54t-53 -22h-8q-42 0 -84 49l-889 1137v-1110q0 -33 -23 -56.5t-56 -23.5q-32 0 -55 24t-23 56z" />
    <glyph glyph-name="ncommaaccent" unicode="&#x146;" horiz-adv-x="1261" 
d="M623 -315q-36 6 -59 27.5t-23 56.5v10q0 37 26.5 62.5t67.5 25.5q42 0 69 -29t27 -78v-10q0 -125 -65 -184q-27 -27 -71.5 -44.5t-76.5 -17.5q-18 0 -28.5 9t-10.5 20q0 27 35 35q60 15 85.5 42.5t23.5 74.5zM176 70v919q0 32 23 56t55 24q34 0 57 -23t23 -57v-115
q126 207 362 207q189 0 297.5 -116t108.5 -308v-587q0 -34 -23 -57t-55 -23q-34 0 -57 23t-23 57v548q0 149 -77.5 234.5t-215.5 85.5t-227.5 -92t-89.5 -240v-536q0 -34 -22 -57t-56 -23t-57 23t-23 57z" />
    <glyph glyph-name="Ncaron" unicode="&#x147;" horiz-adv-x="1617" 
d="M811 1692l121 108q25 22 46 29.5t52 7.5q17 0 27 -8.5t10 -20.5q0 -11 -14 -32l-144 -177q-19 -24 -37 -35.5t-45 -11.5h-36q-27 0 -45 11.5t-37 35.5l-144 177q-14 21 -14 32q0 12 11 20.5t28 8.5q58 0 100 -37zM203 70v1290q0 32 24 56t56 24h22q45 0 82 -47l870 -1110
v1081q0 33 23.5 56.5t56.5 23.5q32 0 55 -24t23 -56v-1294q0 -32 -21 -54t-53 -22h-8q-42 0 -84 49l-889 1137v-1110q0 -33 -23 -56.5t-56 -23.5q-32 0 -55 24t-23 56z" />
    <glyph glyph-name="ncaron" unicode="&#x148;" horiz-adv-x="1261" 
d="M639 1350l121 108q25 22 46 29.5t52 7.5q17 0 27 -8.5t10 -20.5q0 -11 -14 -32l-144 -177q-19 -24 -37 -35.5t-45 -11.5h-37q-27 0 -44 11t-37 36l-144 177q-14 21 -14 32q0 12 11 20.5t28 8.5q58 0 100 -37zM176 70v919q0 32 23 56t55 24q34 0 57 -23t23 -57v-115
q126 207 362 207q189 0 297.5 -116t108.5 -308v-587q0 -34 -23 -57t-55 -23q-34 0 -57 23t-23 57v548q0 149 -77.5 234.5t-215.5 85.5t-227.5 -92t-89.5 -240v-536q0 -34 -22 -57t-56 -23t-57 23t-23 57z" />
    <glyph glyph-name="Omacron" unicode="&#x14c;" horiz-adv-x="1740" 
d="M1141 1622h-541q-27 0 -46 19.5t-19 46.5t19 46t46 19h541q27 0 46 -19t19 -46t-19 -46.5t-46 -19.5zM868 -25q-159 0 -297 60t-231.5 161t-147 235.5t-53.5 281.5v4q0 147 54 282t148.5 236.5t233 162t297.5 60.5t297 -59.5t232 -160.5t147.5 -235.5t53.5 -281.5v-4
q0 -118 -34 -229t-99 -203.5t-153.5 -162t-204 -108.5t-243.5 -39zM872 125q161 0 290 79t200.5 213t71.5 296v4q0 162 -72.5 297t-202.5 215t-291 80t-290 -79t-200 -213t-71 -296v-4q0 -162 72 -297t202 -215t291 -80z" />
    <glyph glyph-name="omacron" unicode="&#x14d;" horiz-adv-x="1323" 
d="M932 1260h-541q-27 0 -46 19t-19 46t19 46.5t46 19.5h541q27 0 46 -19.5t19 -46.5t-19 -46t-46 -19zM659 -25q-116 0 -219 44t-174.5 118t-113 175t-41.5 212v4q0 149 71 275.5t198.5 202t283.5 75.5q116 0 219 -44t175 -118t114 -175t42 -212v-4q0 -148 -71.5 -275
t-199.5 -202.5t-284 -75.5zM664 117q169 0 279 118.5t110 288.5v4q0 172 -114 293t-280 121q-112 0 -201 -56t-137.5 -149.5t-48.5 -204.5v-4q0 -171 113 -291t279 -120z" />
    <glyph glyph-name="Obreve" unicode="&#x14e;" horiz-adv-x="1740" 
d="M868 -25q-159 0 -297 60t-231.5 161t-147 235.5t-53.5 281.5v4q0 147 54 282t148.5 236.5t233 162t297.5 60.5t297 -59.5t232 -160.5t147.5 -235.5t53.5 -281.5v-4q0 -118 -34 -229t-99 -203.5t-153.5 -162t-204 -108.5t-243.5 -39zM872 125q161 0 290 79t200.5 213
t71.5 296v4q0 162 -72.5 297t-202.5 215t-291 80t-290 -79t-200 -213t-71 -296v-4q0 -162 72 -297t202 -215t291 -80zM870 1577q-189 0 -270 149q-20 33 -20 72q0 27 15.5 44.5t41.5 17.5q37 0 57 -39q46 -113 176 -113q131 0 177 113q20 39 57 39q26 0 41.5 -17.5
t15.5 -44.5q0 -39 -20 -72q-81 -149 -271 -149z" />
    <glyph glyph-name="obreve" unicode="&#x14f;" horiz-adv-x="1323" 
d="M659 -25q-116 0 -219 44t-174.5 118t-113 175t-41.5 212v4q0 149 71 275.5t198.5 202t283.5 75.5q116 0 219 -44t175 -118t114 -175t42 -212v-4q0 -148 -71.5 -275t-199.5 -202.5t-284 -75.5zM664 117q169 0 279 118.5t110 288.5v4q0 172 -114 293t-280 121
q-112 0 -201 -56t-137.5 -149.5t-48.5 -204.5v-4q0 -171 113 -291t279 -120zM662 1214q-190 0 -271 150q-20 33 -20 72q0 27 15.5 44t41.5 17q37 0 57 -39q46 -112 177 -112q130 0 176 112q20 39 57 39q26 0 41.5 -17t15.5 -44q0 -39 -20 -72q-81 -150 -270 -150z" />
    <glyph glyph-name="Ohungarumlaut" unicode="&#x150;" horiz-adv-x="1740" 
d="M1010 1573q-18 0 -29.5 8.5t-11.5 20.5q0 14 12 30l125 189q28 45 70 45q36 0 70 -19.5t34 -40.5q0 -20 -25 -45l-151 -149q-25 -24 -45 -31.5t-49 -7.5zM674 1573q-17 0 -29 8.5t-12 20.5q0 14 12 30l125 189q28 45 70 45q36 0 70 -19.5t34 -40.5t-24 -45l-152 -149
q-25 -24 -45 -31.5t-49 -7.5zM868 -25q-159 0 -297 60t-231.5 161t-147 235.5t-53.5 281.5v4q0 147 54 282t148.5 236.5t233 162t297.5 60.5t297 -59.5t232 -160.5t147.5 -235.5t53.5 -281.5v-4q0 -118 -34 -229t-99 -203.5t-153.5 -162t-204 -108.5t-243.5 -39zM872 125
q161 0 290 79t200.5 213t71.5 296v4q0 162 -72.5 297t-202.5 215t-291 80t-290 -79t-200 -213t-71 -296v-4q0 -162 72 -297t202 -215t291 -80z" />
    <glyph glyph-name="ohungarumlaut" unicode="&#x151;" horiz-adv-x="1323" 
d="M803 1210q-18 0 -29.5 8.5t-11.5 20.5q0 15 12 31l125 188q28 45 70 45q36 0 70 -19t34 -40t-24 -45l-152 -150q-25 -24 -45 -31.5t-49 -7.5zM467 1210q-17 0 -29 8.5t-12 20.5q0 15 12 31l125 188q28 45 70 45q36 0 70 -19t34 -40t-24 -45l-152 -150q-25 -24 -45 -31.5
t-49 -7.5zM659 -25q-116 0 -219 44t-174.5 118t-113 175t-41.5 212v4q0 149 71 275.5t198.5 202t283.5 75.5q116 0 219 -44t175 -118t114 -175t42 -212v-4q0 -148 -71.5 -275t-199.5 -202.5t-284 -75.5zM664 117q169 0 279 118.5t110 288.5v4q0 172 -114 293t-280 121
q-112 0 -201 -56t-137.5 -149.5t-48.5 -204.5v-4q0 -171 113 -291t279 -120z" />
    <glyph glyph-name="OE" unicode="&#x152;" horiz-adv-x="2316" 
d="M901 0q-166 0 -308.5 54.5t-242 149.5t-155.5 226.5t-56 282.5v4q0 150 56 282t155 228t242 151.5t309 55.5h1217q31 0 52 -21.5t21 -52.5t-21 -52.5t-52 -21.5h-772v-489h679q30 0 52 -22t22 -52q0 -31 -21.5 -52.5t-52.5 -21.5h-679v-502h782q31 0 52.5 -21t21.5 -52
t-21.5 -52.5t-52.5 -21.5h-1227zM901 150h283v1134h-283q-133 0 -245 -43.5t-188 -119t-118.5 -179t-42.5 -221.5v-4q0 -118 42.5 -222t118.5 -180.5t188 -120.5t245 -44z" />
    <glyph glyph-name="oe" unicode="&#x153;" horiz-adv-x="2148" 
d="M1206 588h682q-13 155 -100 257.5t-236 102.5q-138 0 -234.5 -101.5t-111.5 -258.5zM662 117q167 0 276 118.5t109 288.5v4q0 112 -51 207t-141 151t-198 56q-167 0 -276 -119.5t-109 -290.5v-4q0 -171 112.5 -291t277.5 -120zM1976 135q-83 -78 -178 -119t-221 -41
q-148 0 -270 76.5t-187 208.5q-66 -128 -190 -206.5t-277 -78.5q-113 0 -214 44t-172.5 118t-113.5 175t-42 212v4q0 148 71.5 275t198 202.5t278.5 75.5t274.5 -76t188.5 -204q61 129 175.5 204.5t258.5 75.5q150 0 264 -76t171 -196.5t57 -263.5q0 -31 -23 -52.5
t-53 -21.5h-764q15 -166 120.5 -262t250.5 -96q170 0 307 123q22 18 43 18q29 0 49.5 -20t20.5 -48t-23 -51z" />
    <glyph glyph-name="Racute" unicode="&#x154;" horiz-adv-x="1480" 
d="M203 72v1280q0 34 24 58t56 24h536q264 0 408 -144q110 -110 110 -282v-4q0 -171 -104 -276.5t-279 -139.5l357 -459q26 -29 26 -59q0 -32 -25.5 -56t-56.5 -24q-44 0 -75 43l-404 524h-411v-485q0 -34 -24 -58t-58 -24q-32 0 -56 24t-24 58zM365 702h440
q164 0 266.5 79.5t102.5 215.5v4q0 132 -97 207.5t-270 75.5h-442v-582zM727 1552q-17 0 -28 8.5t-11 20.5q0 18 10 31l123 186q30 47 74 47q37 0 74 -20t37 -41q0 -18 -29 -47l-154 -146q-24 -24 -44.5 -31.5t-51.5 -7.5z" />
    <glyph glyph-name="racute" unicode="&#x155;" horiz-adv-x="829" 
d="M436 1210q-17 0 -28 8.5t-11 20.5q0 16 11 31l122 186q30 47 74 47q37 0 74 -20t37 -41q0 -18 -29 -47l-154 -146q-24 -24 -44.5 -31.5t-51.5 -7.5zM176 70v919q0 32 23 56t55 24q34 0 57 -23t23 -57v-198q57 129 159 205.5t205 76.5q35 0 56.5 -23t21.5 -57
q0 -32 -19 -53.5t-50 -26.5q-164 -20 -268.5 -142.5t-104.5 -340.5v-360q0 -33 -22.5 -56.5t-55.5 -23.5q-34 0 -57 23t-23 57z" />
    <glyph glyph-name="Rcommaaccent" unicode="&#x156;" horiz-adv-x="1480" 
d="M203 72v1280q0 34 24 58t56 24h536q264 0 408 -144q110 -110 110 -282v-4q0 -171 -104 -276.5t-279 -139.5l357 -459q26 -29 26 -59q0 -32 -25.5 -56t-56.5 -24q-44 0 -75 43l-404 524h-411v-485q0 -34 -24 -58t-58 -24q-32 0 -56 24t-24 58zM365 702h440
q164 0 266.5 79.5t102.5 215.5v4q0 132 -97 207.5t-270 75.5h-442v-582zM719 -305q-36 6 -59 27.5t-23 56.5v10q0 37 26.5 62.5t67.5 25.5q42 0 69 -28.5t27 -77.5v-11q0 -125 -65 -184q-27 -27 -71.5 -44t-76.5 -17q-18 0 -28.5 8.5t-10.5 19.5q0 27 35 35q60 15 85.5 42.5
t23.5 74.5z" />
    <glyph glyph-name="rcommaaccent" unicode="&#x157;" horiz-adv-x="829" 
d="M258 -315q-36 6 -59 27.5t-23 56.5v10q0 37 26.5 62.5t67.5 25.5q42 0 69.5 -29t27.5 -78v-10q0 -124 -66 -184q-28 -28 -71.5 -45t-75.5 -17q-18 0 -28.5 9t-10.5 20q0 27 35 35q60 15 85 42t23 75zM176 70v919q0 32 23 56t55 24q34 0 57 -23t23 -57v-198
q57 129 159 205.5t205 76.5q35 0 56.5 -23t21.5 -57q0 -32 -19 -53.5t-50 -26.5q-164 -20 -268.5 -142.5t-104.5 -340.5v-360q0 -33 -22.5 -56.5t-55.5 -23.5q-34 0 -57 23t-23 57z" />
    <glyph glyph-name="Rcaron" unicode="&#x158;" horiz-adv-x="1480" 
d="M203 72v1280q0 34 24 58t56 24h536q264 0 408 -144q110 -110 110 -282v-4q0 -171 -104 -276.5t-279 -139.5l357 -459q26 -29 26 -59q0 -32 -25.5 -56t-56.5 -24q-44 0 -75 43l-404 524h-411v-485q0 -34 -24 -58t-58 -24q-32 0 -56 24t-24 58zM365 702h440
q164 0 266.5 79.5t102.5 215.5v4q0 132 -97 207.5t-270 75.5h-442v-582zM733 1692l121 108q25 22 46 29.5t52 7.5q17 0 27 -8.5t10 -20.5q0 -11 -14 -32l-144 -177q-20 -25 -37 -36t-44 -11h-37q-27 0 -45 11.5t-37 35.5l-144 177q-14 21 -14 32q0 12 11 20.5t28 8.5
q58 0 100 -37z" />
    <glyph glyph-name="rcaron" unicode="&#x159;" horiz-adv-x="829" 
d="M444 1350l121 108q25 22 46.5 29.5t52.5 7.5q17 0 26.5 -8.5t9.5 -20.5q0 -11 -14 -32l-143 -177q-19 -24 -37 -35.5t-45 -11.5h-37q-27 0 -45 11.5t-37 35.5l-143 177q-15 22 -15 32q0 12 11 20.5t28 8.5q59 0 101 -37zM176 70v919q0 32 23 56t55 24q34 0 57 -23t23 -57
v-198q57 129 159 205.5t205 76.5q35 0 56.5 -23t21.5 -57q0 -32 -19 -53.5t-50 -26.5q-164 -20 -268.5 -142.5t-104.5 -340.5v-360q0 -33 -22.5 -56.5t-55.5 -23.5q-34 0 -57 23t-23 57z" />
    <glyph glyph-name="Sacute" unicode="&#x15a;" horiz-adv-x="1310" 
d="M664 1573q-17 0 -28 8.5t-11 20.5q0 17 10 30l123 187q30 47 73 47q37 0 74 -20.5t37 -41.5q0 -18 -29 -47l-153 -145q-24 -24 -44.5 -31.5t-51.5 -7.5zM694 -20q-300 0 -542 192q-31 21 -31 61q0 34 23 57t55 23q31 0 49 -18q103 -88 210.5 -129t241.5 -41
q143 0 231.5 68.5t88.5 175.5v4q0 70 -30 116.5t-112.5 85.5t-230.5 70q-255 56 -368 149t-113 265v4q0 169 133.5 280t337.5 111q138 0 247.5 -34.5t209.5 -106.5q34 -25 34 -66q0 -32 -22.5 -55t-54.5 -23q-26 0 -47 15q-172 125 -371 125q-137 0 -221 -66.5t-84 -165.5
v-4q0 -71 31 -118t116.5 -86.5t241.5 -73.5q243 -53 355 -148.5t112 -257.5v-4q0 -183 -137 -294t-353 -111z" />
    <glyph glyph-name="sacute" unicode="&#x15b;" horiz-adv-x="1019" 
d="M512 1210q-17 0 -28 8.5t-11 20.5q0 18 10 31l123 186q30 47 74 47q37 0 74 -20t37 -41q0 -18 -29 -47l-154 -146q-24 -24 -44.5 -31.5t-51.5 -7.5zM526 -20q-104 0 -212 35.5t-195 97.5q-29 21 -29 57q0 28 20.5 48t49.5 20q23 0 39 -13q165 -112 336 -112
q96 0 157.5 46t61.5 122v4q0 31 -15 56.5t-37 43t-60.5 34.5t-70.5 27.5t-82 24.5q-45 13 -72.5 21.5t-68.5 24t-67 30.5t-56 38t-46.5 48.5t-28 60.5t-11.5 76v4q0 135 101.5 219t259.5 84q171 0 338 -90q39 -23 39 -65q0 -28 -20.5 -48t-49.5 -20q-19 0 -35 8
q-145 82 -276 82q-93 0 -149 -43t-56 -110v-5q0 -24 9 -44.5t31.5 -38t41.5 -29.5t58 -26.5t61.5 -21.5t70.5 -22q60 -18 100 -32.5t89.5 -40.5t79 -55.5t50.5 -74.5t21 -100v-4q0 -147 -107 -232t-270 -85z" />
    <glyph glyph-name="Scedilla" unicode="&#x15e;" horiz-adv-x="1310" 
d="M1184 385q0 -171 -123 -281t-320 -122l-110 -240q-12 -24 -25.5 -35.5t-38.5 -11.5q-31 0 -64.5 21.5t-33.5 43.5q0 16 12 37l127 187q-253 24 -456 188q-31 21 -31 61q0 34 23 57t55 23q31 0 49 -18q103 -88 210.5 -129t241.5 -41q143 0 231.5 68.5t88.5 175.5v4
q0 70 -30 116.5t-112.5 85.5t-230.5 70q-255 56 -368 149t-113 265v4q0 169 133.5 280t337.5 111q138 0 247.5 -34.5t209.5 -106.5q34 -25 34 -66q0 -32 -22.5 -55t-54.5 -23q-26 0 -47 15q-172 125 -371 125q-137 0 -221 -66.5t-84 -165.5v-4q0 -71 31 -118t116.5 -86.5
t241.5 -73.5q243 -53 355 -148.5t112 -257.5v-4z" />
    <glyph glyph-name="scedilla" unicode="&#x15f;" horiz-adv-x="1019" 
d="M903 297q0 -137 -94 -220.5t-242 -94.5l-110 -240q-12 -24 -25.5 -35.5t-38.5 -11.5q-31 0 -64.5 21.5t-33.5 43.5q0 16 12 37l129 189q-178 25 -317 127q-29 21 -29 57q0 28 20.5 48t49.5 20q23 0 39 -13q165 -112 336 -112q96 0 157.5 46t61.5 122v4q0 31 -15 56.5
t-37 43t-60.5 34.5t-70.5 27.5t-82 24.5q-45 13 -72.5 21.5t-68.5 24t-67 30.5t-56 38t-46.5 48.5t-28 60.5t-11.5 76v4q0 135 101.5 219t259.5 84q171 0 338 -90q39 -23 39 -65q0 -28 -20.5 -48t-49.5 -20q-19 0 -35 8q-145 82 -276 82q-93 0 -149 -43t-56 -110v-5
q0 -24 9 -44.5t31.5 -38t41.5 -29.5t58 -26.5t61.5 -21.5t70.5 -22q60 -18 100 -32.5t89.5 -40.5t79 -55.5t50.5 -74.5t21 -100v-4z" />
    <glyph glyph-name="Scaron" unicode="&#x160;" horiz-adv-x="1310" 
d="M670 1712l121 109q25 22 46 29.5t52 7.5q17 0 27 -8.5t10 -20.5q0 -11 -15 -33l-143 -176q-19 -24 -37 -35.5t-45 -11.5h-37q-27 0 -45 11.5t-37 35.5l-143 176q-14 21 -14 33t11 20.5t28 8.5q58 0 100 -37zM694 -20q-300 0 -542 192q-31 21 -31 61q0 34 23 57t55 23
q31 0 49 -18q103 -88 210.5 -129t241.5 -41q143 0 231.5 68.5t88.5 175.5v4q0 70 -30 116.5t-112.5 85.5t-230.5 70q-255 56 -368 149t-113 265v4q0 169 133.5 280t337.5 111q138 0 247.5 -34.5t209.5 -106.5q34 -25 34 -66q0 -32 -22.5 -55t-54.5 -23q-26 0 -47 15
q-172 125 -371 125q-137 0 -221 -66.5t-84 -165.5v-4q0 -71 31 -118t116.5 -86.5t241.5 -73.5q243 -53 355 -148.5t112 -257.5v-4q0 -183 -137 -294t-353 -111z" />
    <glyph glyph-name="scaron" unicode="&#x161;" horiz-adv-x="1019" 
d="M518 1350l121 108q25 22 46 29.5t52 7.5q17 0 27 -8.5t10 -20.5q0 -11 -14 -32l-144 -177q-20 -25 -37 -36t-44 -11h-37q-27 0 -45 11.5t-37 35.5l-144 177q-14 21 -14 32q0 12 11 20.5t28 8.5q58 0 100 -37zM526 -20q-104 0 -212 35.5t-195 97.5q-29 21 -29 57
q0 28 20.5 48t49.5 20q23 0 39 -13q165 -112 336 -112q96 0 157.5 46t61.5 122v4q0 31 -15 56.5t-37 43t-60.5 34.5t-70.5 27.5t-82 24.5q-45 13 -72.5 21.5t-68.5 24t-67 30.5t-56 38t-46.5 48.5t-28 60.5t-11.5 76v4q0 135 101.5 219t259.5 84q171 0 338 -90
q39 -23 39 -65q0 -28 -20.5 -48t-49.5 -20q-19 0 -35 8q-145 82 -276 82q-93 0 -149 -43t-56 -110v-5q0 -24 9 -44.5t31.5 -38t41.5 -29.5t58 -26.5t61.5 -21.5t70.5 -22q60 -18 100 -32.5t89.5 -40.5t79 -55.5t50.5 -74.5t21 -100v-4q0 -147 -107 -232t-270 -85z" />
    <glyph glyph-name="Tcommaaccent" unicode="&#x162;" horiz-adv-x="1327" 
d="M649 -315q-36 6 -59 27.5t-23 56.5v10q0 37 27 62.5t68 25.5q42 0 69 -29t27 -78v-10q0 -124 -66 -184q-28 -28 -71.5 -45t-75.5 -17q-18 0 -28.5 9t-10.5 20q0 27 35 35q60 15 85 42t23 75zM582 72v1212h-416q-31 0 -53.5 21.5t-22.5 52.5t22.5 53.5t53.5 22.5h995
q31 0 53.5 -22.5t22.5 -53.5t-22.5 -52.5t-53.5 -21.5h-416v-1212q0 -34 -23.5 -58t-57.5 -24t-58 24t-24 58z" />
    <glyph glyph-name="tcommaaccent" unicode="&#x163;" horiz-adv-x="827" 
d="M449 -315q-36 6 -59 27.5t-23 56.5v10q0 37 26.5 62.5t67.5 25.5q42 0 69 -29t27 -78v-10q0 -125 -65 -184q-27 -27 -71.5 -44.5t-76.5 -17.5q-18 0 -28.5 9t-10.5 20q0 27 35 35q60 15 85.5 42.5t23.5 74.5zM530 -18q-136 0 -217.5 73t-81.5 226v639h-86
q-28 0 -48.5 20.5t-20.5 48.5q0 29 20.5 49.5t48.5 20.5h86v250q0 33 22.5 56.5t55.5 23.5q32 0 56 -24t24 -56v-250h275q29 0 50 -21t21 -49q0 -29 -21 -49t-50 -20h-275v-619q0 -176 178 -176q33 0 64.5 7t32.5 7q28 0 47.5 -19.5t19.5 -47.5q0 -45 -45 -62
q-70 -28 -156 -28z" />
    <glyph glyph-name="Tcaron" unicode="&#x164;" horiz-adv-x="1327" 
d="M666 1692l120 108q25 22 46.5 29.5t52.5 7.5q17 0 27 -8.5t10 -20.5q0 -10 -15 -32l-143 -177q-19 -24 -37 -35.5t-45 -11.5h-37q-27 0 -45 11.5t-37 35.5l-143 177q-14 21 -14 32q0 12 10.5 20.5t27.5 8.5q59 0 101 -37zM582 72v1212h-416q-31 0 -53.5 21.5t-22.5 52.5
t22.5 53.5t53.5 22.5h995q31 0 53.5 -22.5t22.5 -53.5t-22.5 -52.5t-53.5 -21.5h-416v-1212q0 -34 -23.5 -58t-57.5 -24t-58 24t-24 58z" />
    <glyph glyph-name="tcaron" unicode="&#x165;" horiz-adv-x="827" 
d="M604 1233l19 237q3 31 21 48.5t48 17.5h31q45 0 45 -43q0 -19 -10 -49l-72 -217q-11 -41 -45 -41q-42 0 -37 47zM530 -18q-136 0 -217.5 73t-81.5 226v639h-86q-28 0 -48.5 20.5t-20.5 48.5q0 29 20.5 49.5t48.5 20.5h86v250q0 33 22.5 56.5t55.5 23.5q32 0 56 -24
t24 -56v-250h275q29 0 50 -21t21 -49q0 -29 -21 -49t-50 -20h-275v-619q0 -176 178 -176q33 0 64.5 7t32.5 7q28 0 47.5 -19.5t19.5 -47.5q0 -45 -45 -62q-70 -28 -156 -28z" />
    <glyph glyph-name="Umacron" unicode="&#x16a;" horiz-adv-x="1554" 
d="M776 -23q-272 0 -434 162.5t-162 460.5v762q0 34 24 58t56 24q34 0 58 -24t24 -58v-752q0 -230 116 -356.5t322 -126.5q202 0 317 121.5t115 351.5v762q0 34 24 58t58 24q32 0 56 -24t24 -58v-750q0 -307 -161.5 -471t-436.5 -164zM1047 1602h-541q-28 0 -47 19t-19 46
t19.5 46.5t46.5 19.5h541q27 0 46 -19.5t19 -46.5t-19 -46t-46 -19z" />
    <glyph glyph-name="umacron" unicode="&#x16b;" horiz-adv-x="1261" 
d="M1083 989v-919q0 -33 -22 -56.5t-55 -23.5q-32 0 -55 23t-23 57v114q-130 -207 -363 -207q-189 0 -297 116t-108 308v588q0 34 22 57t56 23q32 0 55.5 -23.5t23.5 -56.5v-549q0 -149 77 -234t216 -85q137 0 227.5 92.5t90.5 239.5v536q0 34 22 57t56 23q32 0 54.5 -23
t22.5 -57zM891 1260h-541q-27 0 -46 19t-19 46t19 46.5t46 19.5h541q27 0 46 -19.5t19 -46.5t-19 -46t-46 -19z" />
    <glyph glyph-name="Ubreve" unicode="&#x16c;" horiz-adv-x="1554" 
d="M776 -23q-272 0 -434 162.5t-162 460.5v762q0 34 24 58t56 24q34 0 58 -24t24 -58v-752q0 -230 116 -356.5t322 -126.5q202 0 317 121.5t115 351.5v762q0 34 24 58t58 24q32 0 56 -24t24 -58v-750q0 -307 -161.5 -471t-436.5 -164zM776 1552q-189 0 -270 150
q-21 35 -21 72q0 27 16 44t42 17q37 0 57 -39q46 -113 176 -113t176 113q20 39 58 39q26 0 41.5 -17t15.5 -44q0 -39 -20 -72q-81 -150 -271 -150z" />
    <glyph glyph-name="ubreve" unicode="&#x16d;" horiz-adv-x="1261" 
d="M1083 989v-919q0 -33 -22 -56.5t-55 -23.5q-32 0 -55 23t-23 57v114q-130 -207 -363 -207q-189 0 -297 116t-108 308v588q0 34 22 57t56 23q32 0 55.5 -23.5t23.5 -56.5v-549q0 -149 77 -234t216 -85q137 0 227.5 92.5t90.5 239.5v536q0 34 22 57t56 23q32 0 54.5 -23
t22.5 -57zM621 1214q-190 0 -271 150q-20 33 -20 72q0 27 15.5 44t41.5 17q37 0 57 -39q46 -112 177 -112q130 0 176 112q20 39 57 39q26 0 41.5 -17t15.5 -44q0 -39 -20 -72q-81 -150 -270 -150z" />
    <glyph glyph-name="Uring" unicode="&#x16e;" horiz-adv-x="1554" 
d="M776 1532q-85 0 -149 60t-64 143v4q0 83 64 143t149 60t149 -60t64 -143v-4q0 -83 -64 -143t-149 -60zM776 1610q51 0 89 37t38 88v4q0 51 -37.5 88t-89.5 37t-89.5 -37t-37.5 -88v-4q0 -51 38 -88t89 -37zM776 -23q-272 0 -434 162.5t-162 460.5v762q0 34 24 58t56 24
q34 0 58 -24t24 -58v-752q0 -230 116 -356.5t322 -126.5q202 0 317 121.5t115 351.5v762q0 34 24 58t58 24q32 0 56 -24t24 -58v-750q0 -307 -161.5 -471t-436.5 -164z" />
    <glyph glyph-name="uring" unicode="&#x16f;" horiz-adv-x="1261" 
d="M621 1208q-85 0 -149 60t-64 143v4q0 83 64 143t149 60t149 -60t64 -143v-4q0 -83 -64 -143t-149 -60zM621 1286q51 0 89 37t38 88v4q0 51 -37.5 88t-89.5 37t-89.5 -37t-37.5 -88v-4q0 -51 38 -88t89 -37zM1083 989v-919q0 -33 -22 -56.5t-55 -23.5q-32 0 -55 23t-23 57
v114q-130 -207 -363 -207q-189 0 -297 116t-108 308v588q0 34 22 57t56 23q32 0 55.5 -23.5t23.5 -56.5v-549q0 -149 77 -234t216 -85q137 0 227.5 92.5t90.5 239.5v536q0 34 22 57t56 23q32 0 54.5 -23t22.5 -57z" />
    <glyph glyph-name="Uhungarumlaut" unicode="&#x170;" horiz-adv-x="1554" 
d="M776 -23q-272 0 -434 162.5t-162 460.5v762q0 34 24 58t56 24q34 0 58 -24t24 -58v-752q0 -230 116 -356.5t322 -126.5q202 0 317 121.5t115 351.5v762q0 34 24 58t58 24q32 0 56 -24t24 -58v-750q0 -307 -161.5 -471t-436.5 -164zM918 1552q-18 0 -29.5 8.5t-11.5 20.5
q0 15 12 31l125 188q28 45 69 45q36 0 70.5 -19t34.5 -40q0 -20 -25 -45l-151 -150q-25 -24 -45 -31.5t-49 -7.5zM582 1552q-17 0 -29 8.5t-12 20.5q0 15 12 31l125 188q28 45 70 45q36 0 70 -19t34 -40q0 -20 -25 -45l-151 -150q-25 -24 -45 -31.5t-49 -7.5z" />
    <glyph glyph-name="uhungarumlaut" unicode="&#x171;" horiz-adv-x="1261" 
d="M1083 989v-919q0 -33 -22 -56.5t-55 -23.5q-32 0 -55 23t-23 57v114q-130 -207 -363 -207q-189 0 -297 116t-108 308v588q0 34 22 57t56 23q32 0 55.5 -23.5t23.5 -56.5v-549q0 -149 77 -234t216 -85q137 0 227.5 92.5t90.5 239.5v536q0 34 22 57t56 23q32 0 54.5 -23
t22.5 -57zM762 1210q-18 0 -29.5 8.5t-11.5 20.5q0 15 12 31l125 188q28 45 70 45q36 0 70 -19t34 -40t-24 -45l-152 -150q-25 -24 -45 -31.5t-49 -7.5zM426 1210q-17 0 -29 8.5t-12 20.5q0 15 12 31l125 188q28 45 70 45q36 0 70 -19t34 -40t-24 -45l-152 -150
q-25 -24 -45 -31.5t-49 -7.5z" />
    <glyph glyph-name="Uogonek" unicode="&#x172;" horiz-adv-x="1554" 
d="M623 -172q0 79 75 154q-239 22 -378.5 181.5t-139.5 436.5v762q0 34 24 58t56 24q34 0 58 -24t24 -58v-752q0 -230 116 -356.5t322 -126.5q202 0 317 121.5t115 351.5v762q0 34 24 58t58 24q32 0 56 -24t24 -58v-750q0 -290 -144.5 -452t-395.5 -180q-76 -67 -76 -130
q0 -71 102 -90q60 -11 60 -49q0 -22 -15 -34.5t-43 -12.5q-25 0 -53.5 4t-62.5 15t-60.5 28.5t-44.5 48t-18 68.5z" />
    <glyph glyph-name="uogonek" unicode="&#x173;" horiz-adv-x="1261" 
d="M1083 989v-926q0 -23 -7 -37.5t-27 -33.5q-49 -43 -70 -74.5t-21 -67.5q0 -70 101 -90q59 -10 59 -49q0 -22 -14.5 -34.5t-40.5 -12.5q-34 0 -70.5 7t-77 23.5t-66.5 50.5t-26 81q0 53 29.5 98.5t89.5 93.5q-6 5 -10 69.5t-4 92.5v4q-130 -207 -363 -207q-189 0 -297 116
t-108 308v588q0 34 22 57t56 23q32 0 55.5 -23.5t23.5 -56.5v-549q0 -149 77 -234t216 -85q137 0 227.5 92.5t90.5 239.5v536q0 34 22 57t56 23q32 0 54.5 -23t22.5 -57z" />
    <glyph glyph-name="Wcircumflex" unicode="&#x174;" horiz-adv-x="2254" 
d="M1124 1698l-120 -107q-25 -24 -46.5 -31.5t-52.5 -7.5q-17 0 -27 8.5t-10 20.5q0 9 15 35l143 176q38 45 82 45h37q44 0 82 -45l143 -176q14 -24 14 -35q0 -12 -10.5 -20.5t-27.5 -8.5q-60 0 -101 39zM575 51l-458 1274q-8 24 -8 37q0 32 25 57t59 25q29 0 51 -19.5
t32 -48.5l396 -1138l375 1142q21 64 79 64h11q59 0 80 -64l374 -1142l398 1142q21 64 77 64q32 0 57 -24.5t25 -55.5q0 -9 -10 -39l-459 -1274q-24 -69 -84 -69h-12q-60 0 -84 69l-373 1102l-370 -1102q-24 -69 -84 -69h-13q-62 0 -84 69z" />
    <glyph glyph-name="wcircumflex" unicode="&#x175;" horiz-adv-x="1757" 
d="M874 1356l-120 -107q-25 -24 -46.5 -31.5t-52.5 -7.5q-17 0 -27 8.5t-10 20.5q0 9 15 35l143 176q38 45 82 45h37q44 0 82 -45l143 -176q15 -26 15 -35q0 -12 -11 -20.5t-28 -8.5q-60 0 -101 39zM522 -16q-64 0 -88 71l-321 895q-11 33 -11 43q0 30 23 53t57 23
q60 0 80 -65l266 -795l269 797q20 63 77 63h9q62 0 82 -63l266 -797l270 799q18 61 76 61q33 0 55.5 -22t22.5 -52q0 -13 -10 -43l-324 -897q-24 -71 -86 -71h-6q-65 0 -86 71l-264 772l-267 -772q-21 -71 -86 -71h-4z" />
    <glyph glyph-name="Ycircumflex" unicode="&#x176;" horiz-adv-x="1449" 
d="M643 72v491l-532 746q-19 30 -19 55q0 32 25 56t59 24q44 0 78 -49l473 -682l477 682q34 49 76 49q33 0 56.5 -23.5t23.5 -56.5q0 -22 -23 -59l-530 -738v-495q0 -34 -24 -58t-58 -24t-58 24t-24 58zM723 1698l-121 -107q-25 -24 -46 -31.5t-52 -7.5q-17 0 -27 8.5
t-10 20.5q0 11 14 35l144 176q38 45 82 45h36q44 0 82 -45l144 -176q14 -24 14 -35q0 -12 -11 -20.5t-28 -8.5q-32 0 -53.5 8t-46.5 31z" />
    <glyph glyph-name="ycircumflex" unicode="&#x177;" horiz-adv-x="1202" 
d="M330 -334q-83 0 -174 31q-50 20 -50 67q0 29 20.5 48.5t47.5 19.5q15 0 39 -8q59 -19 115 -19q72 0 120.5 44.5t92.5 144.5l8 16l-443 938q-10 23 -10 43q0 32 23 55t57 23q56 0 80 -61l369 -832l327 834q21 59 76 59q32 0 55 -23t23 -55q0 -15 -8 -39l-414 -987
q-68 -162 -150.5 -230.5t-203.5 -68.5zM604 1356l-121 -107q-25 -24 -46 -31.5t-52 -7.5q-17 0 -27 8.5t-10 20.5q0 11 14 35l144 176q38 45 82 45h37q44 0 82 -45l143 -176q14 -24 14 -35q0 -12 -11 -20.5t-28 -8.5q-32 0 -53.5 8t-46.5 31z" />
    <glyph glyph-name="Ydieresis" unicode="&#x178;" horiz-adv-x="1449" 
d="M643 72v491l-532 746q-19 30 -19 55q0 32 25 56t59 24q44 0 78 -49l473 -682l477 682q34 49 76 49q33 0 56.5 -23.5t23.5 -56.5q0 -22 -23 -59l-530 -738v-495q0 -34 -24 -58t-58 -24t-58 24t-24 58zM907 1765q40 0 68.5 -26.5t28.5 -65.5v-31q0 -39 -28.5 -65.5
t-68.5 -26.5t-68 26.5t-28 65.5v31q0 39 28 65.5t68 26.5zM543 1765q40 0 68 -26.5t28 -65.5v-31q0 -39 -28 -65.5t-68 -26.5t-68.5 26.5t-28.5 65.5v31q0 39 28.5 65.5t68.5 26.5z" />
    <glyph glyph-name="Zacute" unicode="&#x179;" horiz-adv-x="1419" 
d="M721 1552q-17 0 -28 8.5t-11 20.5q0 18 10 31l123 186q30 47 74 47q37 0 73.5 -20t36.5 -41q0 -19 -28 -47l-154 -146q-24 -24 -44.5 -31.5t-51.5 -7.5zM213 0q-31 0 -53.5 21t-22.5 49v4q0 34 29 71l899 1143h-832q-31 0 -52 21t-21 51q0 31 21 52.5t52 21.5h977
q29 0 51.5 -21t22.5 -49v-4q0 -35 -29 -72l-899 -1143h865q31 0 52 -21t21 -50q0 -31 -21 -52.5t-52 -21.5h-1008z" />
    <glyph glyph-name="zacute" unicode="&#x17a;" horiz-adv-x="1138" 
d="M573 1210q-17 0 -27.5 8.5t-10.5 20.5q0 18 10 31l123 186q30 47 73 47q37 0 74 -20t37 -41q0 -18 -29 -47l-153 -146q-23 -23 -44.5 -31t-52.5 -8zM190 0q-31 0 -53 18.5t-22 44.5v5q0 36 32 71l670 787h-618q-28 0 -48 19t-20 46q0 28 20 48t48 20h755q32 0 54 -19
t22 -45v-4q0 -35 -33 -71l-669 -787h645q28 0 47.5 -19.5t19.5 -45.5q0 -28 -19.5 -48t-47.5 -20h-783z" />
    <glyph glyph-name="Zdotaccent" unicode="&#x17b;" horiz-adv-x="1419" 
d="M213 0q-31 0 -53.5 21t-22.5 49v4q0 34 29 71l899 1143h-832q-31 0 -52 21t-21 51q0 31 21 52.5t52 21.5h977q29 0 51.5 -21t22.5 -49v-4q0 -35 -29 -72l-899 -1143h865q31 0 52 -21t21 -50q0 -31 -21 -52.5t-52 -21.5h-1008zM823 1673v-28q0 -41 -28 -68t-70 -27t-70 27
t-28 68v28q0 41 28 66.5t70 25.5t70 -25.5t28 -66.5z" />
    <glyph glyph-name="zdotaccent" unicode="&#x17c;" horiz-adv-x="1138" 
d="M190 0q-31 0 -53 18.5t-22 44.5v5q0 36 32 71l670 787h-618q-28 0 -48 19t-20 46q0 28 20 48t48 20h755q32 0 54 -19t22 -45v-4q0 -35 -33 -71l-669 -787h645q28 0 47.5 -19.5t19.5 -45.5q0 -28 -19.5 -48t-47.5 -20h-783zM676 1331v-28q0 -41 -28 -68t-70 -27t-70.5 27
t-28.5 68v28q0 41 28.5 66.5t70.5 25.5t70 -25.5t28 -66.5z" />
    <glyph glyph-name="Zcaron" unicode="&#x17d;" horiz-adv-x="1419" 
d="M727 1692l121 108q25 22 46 29.5t52 7.5q17 0 27 -8.5t10 -20.5q0 -11 -14 -32l-144 -177q-19 -24 -37 -35.5t-45 -11.5h-36q-27 0 -45 11.5t-37 35.5l-144 177q-14 21 -14 32q0 12 11 20.5t28 8.5q58 0 100 -37zM213 0q-31 0 -53.5 21t-22.5 49v4q0 34 29 71l899 1143
h-832q-31 0 -52 21t-21 51q0 31 21 52.5t52 21.5h977q29 0 51.5 -21t22.5 -49v-4q0 -35 -29 -72l-899 -1143h865q31 0 52 -21t21 -50q0 -31 -21 -52.5t-52 -21.5h-1008z" />
    <glyph glyph-name="zcaron" unicode="&#x17e;" horiz-adv-x="1138" 
d="M580 1350l120 108q25 22 46.5 29.5t52.5 7.5q17 0 27 -8.5t10 -20.5q0 -10 -15 -32l-143 -177q-19 -24 -37 -35.5t-45 -11.5h-37q-27 0 -45 11.5t-37 35.5l-143 177q-15 22 -15 32q0 12 11 20.5t28 8.5q59 0 101 -37zM190 0q-31 0 -53 18.5t-22 44.5v5q0 36 32 71
l670 787h-618q-28 0 -48 19t-20 46q0 28 20 48t48 20h755q32 0 54 -19t22 -45v-4q0 -35 -33 -71l-669 -787h645q28 0 47.5 -19.5t19.5 -45.5q0 -28 -19.5 -48t-47.5 -20h-783z" />
    <glyph glyph-name="florin" unicode="&#x192;" horiz-adv-x="1052" 
d="M203 -12q-48 0 -74.5 18.5t-26.5 48.5q0 31 21.5 48.5t58.5 19.5q126 3 152 156l90 485h-141q-28 0 -49 20t-21 47q0 29 21 49.5t49 20.5h163l48 246q30 154 105.5 226.5t213.5 72.5q66 0 115 -10q27 -5 44 -24t17 -46q0 -28 -19.5 -48t-47.5 -20q-3 0 -32 5.5t-52 5.5
q-80 0 -123 -43.5t-62 -143.5l-41 -221h236q28 0 49 -21t21 -49q0 -27 -21 -47t-49 -20h-260l-92 -502q-27 -141 -99.5 -207.5t-193.5 -66.5z" />
    <glyph glyph-name="Aringacute" unicode="&#x1fa;" horiz-adv-x="1617" 
d="M805 1837q-17 0 -28 8.5t-11 20.5q0 17 10 30l123 187q30 47 74 47q37 0 73.5 -20t36.5 -42q0 -19 -28 -47l-154 -145q-24 -24 -44.5 -31.5t-51.5 -7.5zM909 1393l590 -1291q6 -18 6 -32q0 -31 -23.5 -55.5t-56.5 -24.5q-48 0 -77 59l-148 330h-788l-150 -334
q-9 -24 -29 -39.5t-47 -15.5q-31 0 -53 23t-22 53q0 10 8 34l590 1293q-51 25 -82 72.5t-31 103.5v4q0 83 64 143t149 60t149 -60t64 -143v-4q0 -56 -31 -103.5t-82 -72.5zM809 1444q51 0 89 37t38 88v4q0 51 -37.5 88t-89.5 37t-89.5 -37t-37.5 -88v-4q0 -51 38 -88t89 -37
zM475 526h660l-328 734z" />
    <glyph glyph-name="aringacute" unicode="&#x1fb;" horiz-adv-x="1185" 
d="M492 -23q-102 0 -190 36t-147 113t-59 181v4q0 164 123.5 253t329.5 89q168 0 325 -45v37q0 141 -82 215t-233 74q-140 0 -274 -60q-15 -6 -29 -6q-28 0 -49 20t-21 48q0 23 13 40.5t30 24.5q166 72 346 72q226 0 343 -117q108 -108 108 -309v-579q0 -34 -22 -56t-54 -22
q-33 0 -54.5 21t-21.5 52v97q-141 -183 -382 -183zM522 102q149 0 252 81.5t103 205.5v103q-153 45 -312 45q-147 0 -228 -59.5t-81 -160.5v-4q0 -96 77 -153.5t189 -57.5zM592 1214q-85 0 -149 60t-64 143v4q0 83 64 143t149 60t149 -60t64 -143v-4q0 -83 -64 -143
t-149 -60zM592 1292q51 0 89 37t38 88v4q0 51 -37.5 88t-89.5 37t-89.5 -37t-37.5 -88v-4q0 -51 38 -88t89 -37zM588 1694q-17 0 -28 8t-11 20q0 18 10 31l123 186q31 48 74 48q37 0 73.5 -20t36.5 -42q0 -19 -28 -47l-154 -145q-24 -24 -44.5 -31.5t-51.5 -7.5z" />
    <glyph glyph-name="AEacute" unicode="&#x1fc;" horiz-adv-x="2140" 
d="M1284 1552q-17 0 -28 8.5t-11 20.5q0 18 10 31l123 186q30 47 74 47q37 0 74 -20t37 -41q0 -18 -29 -47l-154 -146q-24 -24 -44.5 -31.5t-51.5 -7.5zM70 59q0 12 14 45l762 1276q33 54 90 54h1006q31 0 52 -21.5t21 -52.5t-21 -52.5t-52 -21.5h-773v-489h680q30 0 52 -22
t22 -52q0 -31 -21.5 -52.5t-52.5 -21.5h-680v-502h783q31 0 52 -21t21 -52t-21 -52.5t-52 -21.5h-865q-34 0 -57.5 24t-23.5 58v297h-586l-207 -346q-21 -43 -70 -43q-30 0 -51.5 20t-21.5 49zM506 526h500v764h-48z" />
    <glyph glyph-name="aeacute" unicode="&#x1fd;" horiz-adv-x="1951" 
d="M969 1210q-17 0 -28 8.5t-11 20.5q0 18 10 31l123 186q30 47 74 47q37 0 73.5 -20t36.5 -41q0 -19 -28 -47l-154 -146q-24 -24 -44.5 -31.5t-51.5 -7.5zM1010 588h682q-13 155 -100 257.5t-236 102.5q-138 0 -234.5 -101.5t-111.5 -258.5zM514 104q214 0 381 189
q-37 90 -43 201q-168 43 -295 43q-143 0 -222 -59.5t-79 -160.5v-4q0 -95 74 -152t184 -57zM1780 135q-83 -78 -178.5 -119t-223.5 -41q-127 0 -238 56.5t-182 156.5q-204 -211 -462 -211q-78 0 -149 21.5t-127.5 61.5t-90 104t-33.5 143v4q0 163 122 252.5t323 89.5
q156 0 313 -45v37q0 142 -79 215.5t-226 73.5q-131 0 -264 -60q-15 -6 -29 -6q-28 0 -49 20t-21 48q0 23 13 40.5t30 24.5q159 72 336 72q310 0 389 -227q64 109 170.5 172t235.5 63q91 0 170 -28.5t137.5 -79t100 -118t62.5 -147t21 -163.5q0 -32 -22 -53t-53 -21h-764
q15 -166 120 -262t250 -96q171 0 308 123q22 18 43 18q29 0 49 -20t20 -48q0 -29 -22 -51z" />
    <glyph glyph-name="Oslashacute" unicode="&#x1fe;" horiz-adv-x="1740" 
d="M868 -25q-261 0 -458 156l-123 -127q-24 -24 -51 -24t-44.5 17t-17.5 42q0 28 21 49l122 131q-86 98 -132 226t-46 268v4q0 147 54 282t148.5 236.5t233 162t297.5 60.5q264 0 459 -158l123 130q24 24 51 24t44.5 -17t17.5 -42q0 -28 -21 -49l-125 -134
q87 -99 134 -225.5t47 -265.5v-4q0 -118 -34 -229t-99 -203.5t-153.5 -162t-204 -108.5t-243.5 -39zM307 717q0 -218 125 -377l793 842q-155 129 -357 129q-160 0 -289.5 -79.5t-200.5 -214t-71 -296.5v-4zM872 123q161 0 290 79.5t200.5 214t71.5 296.5v4q0 218 -125 377
l-793 -844q149 -127 356 -127zM864 1573q-17 0 -28 8.5t-11 20.5q0 15 11 30l122 187q30 47 74 47q37 0 74 -20.5t37 -41.5q0 -18 -29 -47l-153 -145q-23 -23 -44.5 -31t-52.5 -8z" />
    <glyph glyph-name="oslashacute" unicode="&#x1ff;" horiz-adv-x="1323" 
d="M659 -25q-191 0 -340 113l-81 -84q-24 -24 -52 -24q-24 0 -40.5 15t-16.5 38q0 27 23 47l86 88q-127 149 -127 356v4q0 149 71 275.5t198.5 202t283.5 75.5q190 0 337 -112l84 88q24 24 54 24q23 0 39 -15t16 -38q0 -27 -20 -47l-89 -92q129 -151 129 -357v-4
q0 -148 -71.5 -275t-199.5 -202.5t-284 -75.5zM270 528q0 -138 76 -247l557 577q-107 86 -244 86q-169 0 -279 -120t-110 -292v-4zM664 115q170 0 280.5 119t110.5 290v4q0 137 -78 248l-555 -575q107 -86 242 -86zM657 1210q-17 0 -28 8.5t-11 20.5q0 16 11 31l123 186
q30 47 73 47q37 0 74 -20t37 -41q0 -18 -29 -47l-153 -146q-23 -23 -44.5 -31t-52.5 -8z" />
    <glyph glyph-name="Scommaaccent" unicode="&#x218;" horiz-adv-x="1310" 
d="M655 -317q-36 6 -59 27.5t-23 56.5v10q0 37 27 62.5t68 25.5q42 0 69 -29t27 -78v-10q0 -124 -66 -184q-28 -28 -71.5 -45t-75.5 -17q-18 0 -28.5 9t-10.5 20q0 27 35 35q60 15 85 42t23 75zM694 -20q-300 0 -542 192q-31 21 -31 61q0 34 23 57t55 23q31 0 49 -18
q103 -88 210.5 -129t241.5 -41q143 0 231.5 68.5t88.5 175.5v4q0 70 -30 116.5t-112.5 85.5t-230.5 70q-255 56 -368 149t-113 265v4q0 169 133.5 280t337.5 111q138 0 247.5 -34.5t209.5 -106.5q34 -25 34 -66q0 -32 -22.5 -55t-54.5 -23q-26 0 -47 15q-172 125 -371 125
q-137 0 -221 -66.5t-84 -165.5v-4q0 -71 31 -118t116.5 -86.5t241.5 -73.5q243 -53 355 -148.5t112 -257.5v-4q0 -183 -137 -294t-353 -111z" />
    <glyph glyph-name="scommaaccent" unicode="&#x219;" horiz-adv-x="1019" 
d="M502 -315q-36 6 -59 27.5t-23 56.5v10q0 37 26.5 62.5t67.5 25.5q42 0 69 -29t27 -78v-10q0 -125 -65 -184q-27 -27 -71.5 -44.5t-76.5 -17.5q-18 0 -28.5 9t-10.5 20q0 27 35 35q60 15 85.5 42.5t23.5 74.5zM526 -20q-104 0 -212 35.5t-195 97.5q-29 21 -29 57
q0 28 20.5 48t49.5 20q23 0 39 -13q165 -112 336 -112q96 0 157.5 46t61.5 122v4q0 31 -15 56.5t-37 43t-60.5 34.5t-70.5 27.5t-82 24.5q-45 13 -72.5 21.5t-68.5 24t-67 30.5t-56 38t-46.5 48.5t-28 60.5t-11.5 76v4q0 135 101.5 219t259.5 84q171 0 338 -90
q39 -23 39 -65q0 -28 -20.5 -48t-49.5 -20q-19 0 -35 8q-145 82 -276 82q-93 0 -149 -43t-56 -110v-5q0 -24 9 -44.5t31.5 -38t41.5 -29.5t58 -26.5t61.5 -21.5t70.5 -22q60 -18 100 -32.5t89.5 -40.5t79 -55.5t50.5 -74.5t21 -100v-4q0 -147 -107 -232t-270 -85z" />
    <glyph glyph-name="schwa" unicode="&#x259;" horiz-adv-x="1212" 
d="M940 471h-682q13 -155 100.5 -257.5t237.5 -102.5q137 0 233 101.5t111 258.5zM172 924q81 77 176 118t223 41q108 0 205 -40.5t168.5 -111.5t113.5 -175t42 -224v-4q0 -151 -65 -277t-182 -200t-261 -74q-151 0 -265 76.5t-170.5 197t-56.5 263.5q0 32 22 53t52 21h766
q-17 167 -122 262.5t-251 95.5q-172 0 -305 -123q-22 -18 -45 -18q-29 0 -49.5 19.5t-20.5 47.5q0 30 25 52z" />
    <glyph glyph-name="circumflex" unicode="&#x2c6;" 
d="M510 1356l-121 -107q-25 -24 -46 -31.5t-52 -7.5q-17 0 -27 8.5t-10 20.5q0 11 14 35l144 176q38 45 82 45h36q44 0 82 -45l144 -176q14 -24 14 -35q0 -12 -11 -20.5t-28 -8.5q-32 0 -53.5 8t-46.5 31z" />
    <glyph glyph-name="caron" unicode="&#x2c7;" 
d="M514 1350l121 108q25 22 46 29.5t52 7.5q17 0 27 -8.5t10 -20.5q0 -11 -14 -32l-144 -177q-19 -24 -37 -35.5t-45 -11.5h-36q-27 0 -45 11.5t-37 35.5l-144 177q-14 21 -14 32q0 12 11 20.5t28 8.5q58 0 100 -37z" />
    <glyph glyph-name="breve" unicode="&#x2d8;" 
d="M512 1214q-189 0 -270 150q-21 35 -21 72q0 27 16 44t42 17q37 0 57 -39q46 -112 176 -112t176 112q20 39 57 39q26 0 42 -17t16 -44q0 -37 -21 -72q-81 -150 -270 -150z" />
    <glyph glyph-name="dotaccent" unicode="&#x2d9;" 
d="M610 1331v-28q0 -41 -28 -68t-70 -27t-70 27t-28 68v28q0 41 28 66.5t70 25.5t70 -25.5t28 -66.5z" />
    <glyph glyph-name="ring" unicode="&#x2da;" 
d="M512 1214q-85 0 -149 60t-64 143v4q0 83 64 143t149 60t149 -60t64 -143v-4q0 -83 -64 -143t-149 -60zM512 1292q51 0 89 37t38 88v4q0 51 -37.5 88t-89.5 37t-89.5 -37t-37.5 -88v-4q0 -51 38 -88t89 -37z" />
    <glyph glyph-name="ogonek" unicode="&#x2db;" 
d="M389 -172q0 54 32 100t101 105l109 -27q-57 -47 -82 -82t-25 -74q0 -70 103 -90q59 -11 59 -49q0 -47 -57 -47q-25 0 -53.5 4t-62.5 15t-61 28.5t-45 48t-18 68.5z" />
    <glyph glyph-name="tilde" unicode="&#x2dc;" 
d="M285 1229q-17 -35 -47 -35q-22 0 -38 14.5t-16 34.5q0 9 6 33q31 89 73 127.5t108 38.5q49 0 145.5 -41t128.5 -41q34 0 54.5 16t39.5 56q17 34 47 34q22 0 38 -14.5t16 -34.5q0 -3 -6 -33q-31 -89 -73 -127t-108 -38q-49 0 -145.5 40.5t-128.5 40.5q-34 0 -54.5 -16
t-39.5 -55z" />
    <glyph glyph-name="hungarumlaut" unicode="&#x2dd;" 
d="M569 1210q-18 0 -29.5 8.5t-11.5 20.5q0 14 13 31l125 188q28 45 69 45q36 0 70.5 -19t34.5 -40q0 -20 -25 -45l-151 -150q-25 -24 -45 -31.5t-50 -7.5zM233 1210q-17 0 -28.5 8.5t-11.5 20.5q0 15 12 31l125 188q28 45 69 45q36 0 70.5 -19t34.5 -40q0 -20 -25 -45
l-151 -150q-25 -24 -45 -31.5t-50 -7.5z" />
    <glyph glyph-name="commaaccent" unicode="&#x326;" 
d="M500 -315q-36 6 -59 27.5t-23 56.5v10q0 37 26.5 62.5t67.5 25.5q42 0 69 -29t27 -78v-10q0 -125 -65 -184q-27 -27 -71.5 -44.5t-76.5 -17.5q-18 0 -28.5 9t-10.5 20q0 27 35 35q60 15 85.5 42.5t23.5 74.5z" />
    <glyph glyph-name="Wgrave" unicode="&#x1e80;" horiz-adv-x="2254" 
d="M575 51l-458 1274q-8 24 -8 37q0 32 25 57t59 25q29 0 51 -19.5t32 -48.5l396 -1138l375 1142q21 64 79 64h11q59 0 80 -64l374 -1142l398 1142q21 64 77 64q32 0 57 -24.5t25 -55.5q0 -9 -10 -39l-459 -1274q-24 -69 -84 -69h-12q-60 0 -84 69l-373 1102l-370 -1102
q-24 -69 -84 -69h-13q-62 0 -84 69zM1130 1552q-31 0 -51.5 7.5t-44.5 31.5l-153 146q-29 29 -29 47q0 21 37 41t74 20q43 0 73 -47l123 -186q10 -13 10 -31q0 -12 -11 -20.5t-28 -8.5z" />
    <glyph glyph-name="wgrave" unicode="&#x1e81;" horiz-adv-x="1757" 
d="M522 -16q-64 0 -88 71l-321 895q-11 33 -11 43q0 30 23 53t57 23q60 0 80 -65l266 -795l269 797q20 63 77 63h9q62 0 82 -63l266 -797l270 799q18 61 76 61q33 0 55.5 -22t22.5 -52q0 -13 -10 -43l-324 -897q-24 -71 -86 -71h-6q-65 0 -86 71l-264 772l-267 -772
q-21 -71 -86 -71h-4zM881 1210q-31 0 -52.5 8t-44.5 31l-153 146q-29 29 -29 47q0 21 37 41t74 20q43 0 73 -47l123 -186q11 -15 11 -31q0 -12 -11 -20.5t-28 -8.5z" />
    <glyph glyph-name="Wacute" unicode="&#x1e82;" horiz-adv-x="2254" 
d="M1122 1552q-17 0 -28 8.5t-11 20.5q0 16 11 31l123 186q30 47 73 47q37 0 74 -20t37 -41q0 -18 -29 -47l-153 -146q-23 -23 -44.5 -31t-52.5 -8zM575 51l-458 1274q-8 24 -8 37q0 32 25 57t59 25q29 0 51 -19.5t32 -48.5l396 -1138l375 1142q21 64 79 64h11q59 0 80 -64
l374 -1142l398 1142q21 64 77 64q32 0 57 -24.5t25 -55.5q0 -9 -10 -39l-459 -1274q-24 -69 -84 -69h-12q-60 0 -84 69l-373 1102l-370 -1102q-24 -69 -84 -69h-13q-62 0 -84 69z" />
    <glyph glyph-name="wacute" unicode="&#x1e83;" horiz-adv-x="1757" 
d="M872 1210q-17 0 -27.5 8.5t-10.5 20.5q0 18 10 31l123 186q30 47 73 47q37 0 74 -20t37 -41q0 -18 -29 -47l-153 -146q-23 -23 -44.5 -31t-52.5 -8zM522 -16q-64 0 -88 71l-321 895q-11 33 -11 43q0 30 23 53t57 23q60 0 80 -65l266 -795l269 797q20 63 77 63h9
q62 0 82 -63l266 -797l270 799q18 61 76 61q33 0 55.5 -22t22.5 -52q0 -13 -10 -43l-324 -897q-24 -71 -86 -71h-6q-65 0 -86 71l-264 772l-267 -772q-21 -71 -86 -71h-4z" />
    <glyph glyph-name="Wdieresis" unicode="&#x1e84;" horiz-adv-x="2254" 
d="M1309 1765q40 0 68 -26.5t28 -65.5v-31q0 -39 -28 -65.5t-68 -26.5t-68.5 26.5t-28.5 65.5v31q0 39 28.5 65.5t68.5 26.5zM944 1765q40 0 68 -26.5t28 -65.5v-31q0 -39 -28 -65.5t-68 -26.5t-68 26.5t-28 65.5v31q0 39 28 65.5t68 26.5zM575 51l-458 1274q-8 24 -8 37
q0 32 25 57t59 25q29 0 51 -19.5t32 -48.5l396 -1138l375 1142q21 64 79 64h11q59 0 80 -64l374 -1142l398 1142q21 64 77 64q32 0 57 -24.5t25 -55.5q0 -9 -10 -39l-459 -1274q-24 -69 -84 -69h-12q-60 0 -84 69l-373 1102l-370 -1102q-24 -69 -84 -69h-13q-62 0 -84 69z
" />
    <glyph glyph-name="wdieresis" unicode="&#x1e85;" horiz-adv-x="1757" 
d="M1059 1423q40 0 68 -26.5t28 -65.5v-31q0 -39 -28 -65.5t-68 -26.5t-68 26.5t-28 65.5v31q0 39 28 65.5t68 26.5zM694 1423q40 0 68.5 -26.5t28.5 -65.5v-31q0 -39 -28.5 -65.5t-68.5 -26.5t-68 26.5t-28 65.5v31q0 39 28 65.5t68 26.5zM522 -16q-64 0 -88 71l-321 895
q-11 33 -11 43q0 30 23 53t57 23q60 0 80 -65l266 -795l269 797q20 63 77 63h9q62 0 82 -63l266 -797l270 799q18 61 76 61q33 0 55.5 -22t22.5 -52q0 -13 -10 -43l-324 -897q-24 -71 -86 -71h-6q-65 0 -86 71l-264 772l-267 -772q-21 -71 -86 -71h-4z" />
    <glyph glyph-name="Ygrave" unicode="&#x1ef2;" horiz-adv-x="1449" 
d="M643 72v491l-532 746q-19 30 -19 55q0 32 25 56t59 24q44 0 78 -49l473 -682l477 682q34 49 76 49q33 0 56.5 -23.5t23.5 -56.5q0 -22 -23 -59l-530 -738v-495q0 -34 -24 -58t-58 -24t-58 24t-24 58zM729 1552q-31 0 -51.5 7.5t-44.5 31.5l-154 146q-28 28 -28 47
q0 21 36.5 41t73.5 20q44 0 74 -47l123 -186q10 -13 10 -31q0 -12 -11 -20.5t-28 -8.5z" />
    <glyph glyph-name="ygrave" unicode="&#x1ef3;" horiz-adv-x="1202" 
d="M330 -334q-83 0 -174 31q-50 20 -50 67q0 29 20.5 48.5t47.5 19.5q15 0 39 -8q59 -19 115 -19q72 0 120.5 44.5t92.5 144.5l8 16l-443 938q-10 23 -10 43q0 32 23 55t57 23q56 0 80 -61l369 -832l327 834q21 59 76 59q32 0 55 -23t23 -55q0 -15 -8 -39l-414 -987
q-68 -162 -150.5 -230.5t-203.5 -68.5zM610 1210q-31 0 -51.5 7.5t-44.5 31.5l-154 146q-28 28 -28 47q0 21 36.5 41t73.5 20q44 0 74 -47l123 -186q10 -13 10 -31q0 -12 -11 -20.5t-28 -8.5z" />
    <glyph glyph-name="enspace" unicode="&#x2002;" 
 />
    <glyph glyph-name="emspace" unicode="&#x2003;" horiz-adv-x="2048" 
 />
    <glyph glyph-name="threeperemspace" unicode="&#x2004;" horiz-adv-x="681" 
 />
    <glyph glyph-name="fourperemspace" unicode="&#x2005;" horiz-adv-x="512" 
 />
    <glyph glyph-name="thinspace" unicode="&#x2009;" horiz-adv-x="272" 
 />
    <glyph glyph-name="hairspace" unicode="&#x200a;" horiz-adv-x="153" 
 />
    <glyph glyph-name="endash" unicode="&#x2013;" horiz-adv-x="1081" 
d="M201 537q-32 0 -55 23.5t-23 55.5q0 31 23 54.5t55 23.5h680q32 0 54.5 -23.5t22.5 -54.5q0 -32 -22.5 -55.5t-54.5 -23.5h-680z" />
    <glyph glyph-name="emdash" unicode="&#x2014;" horiz-adv-x="1839" 
d="M201 537q-32 0 -55 23.5t-23 55.5q0 31 23 54.5t55 23.5h1437q32 0 55 -23.5t23 -54.5q0 -32 -23 -55.5t-55 -23.5h-1437z" />
    <glyph glyph-name="quoteleft" unicode="&#x2018;" horiz-adv-x="501" 
d="M401 1399q0 -27 -28 -37q-62 -28 -89.5 -68.5t-23.5 -99.5q33 -8 55.5 -33.5t22.5 -64.5v-31q0 -40 -27 -68t-67 -28q-44 0 -71.5 31t-27.5 81v39q0 174 72 246q32 32 73 54t66 22q20 0 32.5 -11.5t12.5 -31.5z" />
    <glyph glyph-name="quoteright" unicode="&#x2019;" horiz-adv-x="501" 
d="M102 1012q0 29 27 39q63 28 90.5 68t24.5 100q-34 8 -57 33t-23 63v33q0 40 27 68t67 28q44 0 72 -31.5t28 -81.5v-39q0 -172 -73 -245q-31 -32 -72.5 -54t-67.5 -22q-20 0 -31.5 11t-11.5 30z" />
    <glyph glyph-name="quotesinglbase" unicode="&#x201a;" horiz-adv-x="501" 
d="M92 -205q0 27 27 37q63 28 90 68t24 100q-34 8 -56.5 33.5t-22.5 64.5v33q0 40 26.5 67t67.5 27q45 0 72.5 -30.5t27.5 -81.5v-39q0 -172 -74 -246q-31 -31 -72 -52.5t-67 -21.5q-20 0 -31.5 11t-11.5 30z" />
    <glyph glyph-name="quotedblleft" unicode="&#x201c;" horiz-adv-x="911" 
d="M811 1399q0 -26 -29 -37q-121 -54 -112 -168q33 -8 55.5 -33.5t22.5 -64.5v-31q0 -40 -27.5 -68t-67.5 -28q-44 0 -71 31t-27 81v39q0 174 72 246q32 32 73 54t66 22q20 0 32.5 -11.5t12.5 -31.5zM401 1399q0 -27 -28 -37q-62 -28 -89.5 -68.5t-23.5 -99.5
q33 -8 55.5 -33.5t22.5 -64.5v-31q0 -40 -27 -68t-67 -28q-44 0 -71.5 31t-27.5 81v39q0 174 72 246q32 32 73 54t66 22q20 0 32.5 -11.5t12.5 -31.5z" />
    <glyph glyph-name="quotedblright" unicode="&#x201d;" horiz-adv-x="911" 
d="M102 1012q0 29 27 39q63 28 90.5 68t24.5 100q-34 8 -57 33t-23 63v33q0 40 27 68t67 28q44 0 72 -31.5t28 -81.5v-39q0 -172 -73 -245q-31 -32 -72.5 -54t-67.5 -22q-20 0 -31.5 11t-11.5 30zM512 1012q0 29 27 39q63 28 90 68t24 100q-34 8 -57 33t-23 63v33
q0 40 27.5 68t67.5 28q44 0 72 -31.5t28 -81.5v-39q0 -171 -74 -245q-31 -33 -72 -54.5t-67 -21.5q-20 0 -31.5 11t-11.5 30z" />
    <glyph glyph-name="quotedblbase" unicode="&#x201e;" horiz-adv-x="911" 
d="M92 -205q0 27 27 37q63 28 90 68t24 100q-34 8 -56.5 33.5t-22.5 64.5v33q0 40 26.5 67t67.5 27q45 0 72.5 -30.5t27.5 -81.5v-39q0 -172 -74 -246q-31 -31 -72 -52.5t-67 -21.5q-20 0 -31.5 11t-11.5 30zM502 -205q0 27 26 37q63 28 90.5 68t24.5 100q-35 8 -57.5 33.5
t-22.5 64.5v33q0 39 27.5 66.5t66.5 27.5q44 0 72.5 -31.5t28.5 -80.5v-39q0 -172 -74 -246q-31 -31 -72 -52.5t-67 -21.5q-20 0 -31.5 11t-11.5 30z" />
    <glyph glyph-name="dagger" unicode="&#x2020;" horiz-adv-x="839" 
d="M365 537l12 528l-205 -14q-23 -2 -40 14t-17 39t17 39.5t40 15.5l203 -14l-15 233q-1 28 16.5 47t43.5 19t43 -19t16 -47l-14 -233l203 14q23 1 40 -15.5t17 -39.5t-17 -39t-40 -14l-205 14l12 -528q0 -26 -16 -43t-39 -17t-39 17t-16 43z" />
    <glyph glyph-name="daggerdbl" unicode="&#x2021;" horiz-adv-x="880" 
d="M381 55l14 234l-202 -15q-23 -1 -40.5 16t-17.5 40t17.5 39t40.5 14l204 -14l-12 348l12 348l-204 -14q-23 -2 -40.5 14t-17.5 39t17.5 39.5t40.5 15.5l202 -14l-14 233q-1 28 16 47t43 19t43.5 -19t16.5 -47l-15 -233l203 14q23 1 40 -15.5t17 -39.5t-17 -39t-40 -14
l-205 14l13 -348l-13 -348l205 14q23 2 40 -14t17 -39q0 -24 -17 -40.5t-40 -15.5l-203 15l15 -234q1 -28 -16.5 -46.5t-43.5 -18.5t-43 18.5t-16 46.5z" />
    <glyph glyph-name="bullet" unicode="&#x2022;" horiz-adv-x="978" 
d="M489 453q-110 0 -189 78t-79 188v4q0 109 80 187.5t188 78.5q107 0 188 -78.5t81 -187.5v-4q0 -110 -79 -188t-190 -78z" />
    <glyph glyph-name="ellipsis" unicode="&#x2026;" horiz-adv-x="1480" 
d="M1139 129q0 41 26.5 68.5t67.5 27.5t67.5 -27.5t26.5 -68.5v-41q0 -42 -26.5 -70t-67.5 -28t-67.5 28t-26.5 70v41zM645 129q0 42 27 69t69 27q41 0 68 -27.5t27 -68.5v-41q0 -42 -27 -70t-68 -28q-42 0 -69 28t-27 70v41zM154 129q0 41 26.5 68.5t67.5 27.5q42 0 69 -27
t27 -69v-41q0 -42 -27 -70t-69 -28q-41 0 -67.5 28t-26.5 70v41z" />
    <glyph glyph-name="perthousand" unicode="&#x2030;" horiz-adv-x="2480" 
d="M430 717q-142 0 -233 106.5t-91 255.5v4q0 151 92 259t236 108q141 0 231.5 -107t90.5 -256v-4q0 -98 -40 -181t-115.5 -134t-170.5 -51zM305 47q0 21 12 39l975 1329q22 29 51 29q25 0 42.5 -17.5t17.5 -40.5q0 -20 -12 -38l-975 -1330q-21 -28 -51 -28q-25 0 -42.5 17
t-17.5 40zM2046 -16q-141 0 -231.5 106.5t-90.5 255.5v4q0 98 40 181.5t115.5 134.5t170.5 51q142 0 233 -107t91 -256v-4q0 -151 -92 -258.5t-236 -107.5zM1274 -16q-141 0 -231.5 106.5t-90.5 255.5v4q0 98 40 181.5t115.5 134.5t170.5 51q142 0 231.5 -106.5t89.5 -256.5
v-4q0 -151 -90.5 -258.5t-234.5 -107.5zM434 831q82 0 134.5 71.5t52.5 176.5v4q0 106 -56 179t-135 73q-83 0 -134.5 -72t-51.5 -176v-4q0 -107 55 -179.5t135 -72.5zM2050 98q83 0 134.5 71.5t51.5 176.5v4q0 107 -55 179.5t-135 72.5q-82 0 -134 -72t-52 -176v-4
q0 -106 55.5 -179t134.5 -73zM1278 98q83 0 134.5 71.5t51.5 176.5v4q0 107 -55 179.5t-135 72.5q-82 0 -134.5 -72.5t-52.5 -175.5v-4q0 -107 55.5 -179.5t135.5 -72.5z" />
    <glyph glyph-name="guilsinglleft" unicode="&#x2039;" horiz-adv-x="671" 
d="M465 86q-31 0 -57 33l-273 354q-24 30 -24 57q0 26 24 56l271 352q23 33 59 33q28 0 47.5 -19t19.5 -47q0 -24 -18 -49l-242 -324l244 -331q16 -22 16 -47q0 -28 -19.5 -48t-47.5 -20z" />
    <glyph glyph-name="guilsinglright" unicode="&#x203a;" horiz-adv-x="671" 
d="M207 971q34 0 55 -31l275 -356q24 -30 24 -56q0 -25 -24 -55l-271 -352q-28 -35 -61 -35q-28 0 -47 20t-19 48q0 24 19 47l241 325l-243 332q-19 30 -17 47q0 28 19.5 47t48.5 19z" />
    <glyph glyph-name="fraction" unicode="&#x2044;" horiz-adv-x="878" 
d="M-98 -145q0 22 10 39l889 1628q23 41 63 41q28 0 48 -19t20 -47q0 -22 -10 -39l-891 -1628q-20 -41 -62 -41q-28 0 -47.5 19t-19.5 47z" />
    <glyph glyph-name="Euro" unicode="&#x20ac;" horiz-adv-x="1474" 
d="M1358 281q0 -19 -17 -45q-90 -124 -200 -192.5t-260 -68.5q-215 0 -370 139.5t-210 370.5h-131q-26 0 -45 19t-19 45q0 27 19 46t45 19h111q-5 82 -5 101q0 53 7 121h-113q-26 0 -45 18.5t-19 44.5t19 45t45 19h137q60 221 210.5 358t352.5 137q155 0 265 -62t198 -175
q21 -25 21 -54q0 -31 -22.5 -53t-53.5 -22q-37 0 -61 28q-74 99 -155.5 146t-197.5 47q-136 0 -240.5 -95.5t-150.5 -254.5h471q26 0 46 -19t20 -45t-19.5 -44.5t-46.5 -18.5h-500q-6 -58 -6 -117q0 -72 4 -105h502q27 0 46.5 -19t19.5 -46q0 -26 -20 -45t-46 -19h-477
q46 -168 157 -266t263 -98q106 0 187 52.5t153 150.5q21 28 57 28q31 0 52.5 -20.5t21.5 -50.5z" />
    <glyph glyph-name="published" unicode="&#x2117;" horiz-adv-x="1699" 
d="M848 -25q-153 0 -290.5 59t-235.5 158.5t-155.5 235.5t-57.5 285v4q0 149 58 285.5t157 236.5t237 159.5t291 59.5t290.5 -59t235.5 -158t155.5 -235t57.5 -285v-4q0 -149 -58 -285.5t-157 -237t-237 -160t-291 -59.5zM848 39q141 0 267.5 54t215.5 145.5t141 216.5
t52 262v4q0 184 -87.5 338.5t-242 245t-342.5 90.5q-141 0 -267.5 -54t-215.5 -145.5t-141 -216.5t-52 -262v-4q0 -184 87.5 -338.5t242 -245t342.5 -90.5zM598 399v656q0 24 16.5 40.5t40.5 16.5h242q135 0 215 -65t80 -181v-4q0 -82 -43.5 -140.5t-112.5 -86t-153 -27.5
h-170v-209q0 -23 -17.5 -40t-40.5 -17t-40 17t-17 40zM713 711h172q89 0 140.5 39.5t51.5 109.5v4q0 72 -50 109t-140 37h-174v-299z" />
    <glyph glyph-name="servicemark" unicode="&#x2120;" horiz-adv-x="1447" 
d="M723 838v553q0 20 12 32.5t31 12.5h12q28 0 41 -23l223 -344l224 344q16 23 41 23h10q19 0 32 -13t13 -32v-553q0 -19 -13.5 -32t-33.5 -13q-19 0 -31 13t-12 32v426l-191 -285q-13 -27 -39 -27q-24 0 -41 27l-190 285v-426q0 -19 -13 -32t-32 -13q-17 0 -30 13t-13 32z
M72 911q0 19 11 30t28 11t30 -10q93 -72 201 -72q62 0 100.5 28t38.5 71v2q0 41 -34.5 64.5t-129.5 45.5q-114 25 -167.5 65.5t-53.5 117.5v2q0 77 63.5 127.5t162.5 50.5q115 0 204 -60q23 -14 23 -38q0 -17 -11 -29t-28 -12q-14 0 -31 10q-74 51 -162 51
q-60 0 -95.5 -26.5t-35.5 -67.5t35.5 -66.5t130.5 -46.5q111 -25 165 -66t54 -114v-2q0 -83 -66 -133.5t-165 -50.5q-141 0 -246 81q-22 14 -22 37z" />
    <glyph glyph-name="trademark" unicode="&#x2122;" horiz-adv-x="1413" 
d="M256 838v510h-170q-17 0 -30 13t-13 30t13 30t30 13h428q18 0 30.5 -12.5t12.5 -30.5t-12.5 -30.5t-30.5 -12.5h-168v-510q0 -19 -13.5 -32t-33.5 -13q-19 0 -31 13t-12 32zM688 838v553q0 20 12.5 32.5t32.5 12.5h12q25 0 41 -23l222 -344l225 344q16 23 39 23h12
q17 0 30 -13t13 -32v-553q0 -19 -13 -32t-32 -13t-31 13t-12 32v426l-190 -285q-17 -27 -41 -27t-41 27l-189 285v-426q0 -19 -13 -32t-32 -13t-32 13t-13 32z" />
    <glyph glyph-name="minus" unicode="&#x2212;" horiz-adv-x="1280" 
d="M1075 645h-868q-32 0 -55 22t-23 54q0 31 23 53.5t55 22.5h868q31 0 53.5 -22.5t22.5 -53.5q0 -32 -22.5 -54t-53.5 -22z" />
    <glyph glyph-name="Q.alt" horiz-adv-x="1740" 
d="M1602 717q0 -167 -67 -315.5t-187 -251.5l217 -211q34 -34 34 -70t-26 -61t-62 -25q-38 0 -73 35l-242 231q-151 -74 -328 -74q-159 0 -297 60t-231.5 161t-147 235.5t-53.5 281.5v4q0 147 54 282t148.5 236.5t233 162t297.5 60.5t297 -59.5t232 -160.5t147.5 -235.5
t53.5 -281.5v-4zM1434 713v4q0 162 -72.5 297t-202.5 215t-291 80t-290 -79t-200 -213t-71 -296v-4q0 -162 72 -297t202 -215t291 -80t290 79t200.5 213t71.5 296z" />
    <glyph glyph-name="aring.alt" horiz-adv-x="1185" 
d="M492 -23q-102 0 -190 36t-147 113t-59 181v4q0 164 123.5 253t329.5 89q168 0 325 -45v37q0 141 -82 215t-233 74q-140 0 -274 -60q-15 -6 -29 -6q-28 0 -49 20t-21 48q0 23 13 40.5t30 24.5q113 48 211 64q-59 53 -59 135v4q0 84 63.5 144.5t149.5 60.5t149.5 -60.5
t63.5 -144.5v-4q0 -86 -72 -145q107 -26 183 -99q108 -108 108 -309v-579q0 -34 -22 -56t-54 -22q-33 0 -54.5 21t-21.5 52v97q-141 -183 -382 -183zM522 102q149 0 252 81.5t103 205.5v103q-153 45 -312 45q-147 0 -228 -59.5t-81 -160.5v-4q0 -96 77 -153.5t189 -57.5z
M594 1075q51 0 89 37t38 88v4q0 51 -37.5 88t-89.5 37t-89.5 -37t-37.5 -88v-4q0 -51 38 -88t89 -37z" />
    <glyph glyph-name="aringacute.alt" horiz-adv-x="1185" 
d="M492 -23q-102 0 -190 36t-147 113t-59 181v4q0 164 123.5 253t329.5 89q168 0 325 -45v37q0 141 -82 215t-233 74q-140 0 -274 -60q-15 -6 -29 -6q-28 0 -49 20t-21 48q0 23 13 40.5t30 24.5q113 48 211 64q-59 53 -59 135v4q0 84 63.5 144.5t149.5 60.5t149.5 -60.5
t63.5 -144.5v-4q0 -86 -72 -145q107 -26 183 -99q108 -108 108 -309v-579q0 -34 -22 -56t-54 -22q-33 0 -54.5 21t-21.5 52v97q-141 -183 -382 -183zM522 102q149 0 252 81.5t103 205.5v103q-153 45 -312 45q-147 0 -228 -59.5t-81 -160.5v-4q0 -96 77 -153.5t189 -57.5z
M594 1075q51 0 89 37t38 88v4q0 51 -37.5 88t-89.5 37t-89.5 -37t-37.5 -88v-4q0 -51 38 -88t89 -37zM588 1477q-17 0 -28 8t-11 20q0 18 10 31l123 186q30 47 74 47q37 0 73.5 -20t36.5 -41q0 -19 -28 -47l-154 -145q-24 -24 -44.5 -31.5t-51.5 -7.5z" />
    <glyph glyph-name="three.alt" horiz-adv-x="1236" 
d="M627 -25q-150 0 -276.5 57t-219.5 156q-27 27 -27 62q0 32 23 54t55 22q36 0 58 -25q158 -178 391 -178q143 0 233 73t90 193v4q0 122 -101 191t-282 69h-86q-29 0 -49 20.5t-20 49.5t20 49.5t49 20.5h90q150 0 245 71.5t95 192.5v4q0 109 -84.5 179.5t-222.5 70.5
q-202 0 -342 -170q-25 -29 -57 -29q-31 0 -52.5 21.5t-21.5 52.5q0 28 21 53q179 219 456 219q205 0 336 -108.5t131 -274.5v-4q0 -130 -70.5 -212t-179.5 -124q132 -43 210.5 -128t78.5 -214v-4q0 -175 -137 -294.5t-354 -119.5z" />
    <glyph glyph-name="registered.alt" horiz-adv-x="1699" 
d="M848 -25q-153 0 -290.5 59t-235.5 158.5t-155.5 235.5t-57.5 285v4q0 149 58 285.5t157 236.5t237 159.5t291 59.5t290.5 -59t235.5 -158t155.5 -235t57.5 -285v-4q0 -149 -58 -285.5t-157 -237t-237 -160t-291 -59.5zM848 39q141 0 267.5 54t215.5 145.5t141 216.5
t52 262v4q0 184 -87.5 338.5t-242 245t-342.5 90.5q-141 0 -267.5 -54t-215.5 -145.5t-141 -216.5t-52 -262v-4q0 -184 87.5 -338.5t242 -245t342.5 -90.5zM559 403v660q0 23 16 39t39 16h285q145 0 225 -80q62 -59 62 -147v-4q0 -86 -52.5 -143t-142.5 -78l180 -224
q15 -23 15 -41q0 -23 -17 -38t-39 -15q-28 0 -47 25l-215 272h-196v-242q0 -23 -17 -39t-41 -16q-23 0 -39 16t-16 39zM672 745h217q81 0 130.5 36.5t49.5 99.5v4q0 60 -46.5 95.5t-127.5 35.5h-223v-271z" />
    <glyph glyph-name="hfjslug" horiz-adv-x="1421" 
d="M1319 -410h-426l-16 29h-334l-17 -29h-424v621q28 0 47 18.5t19 46.5q0 27 -19.5 46.5t-46.5 19.5v1135h205l62 161h684l59 -161h207v-1887zM819 1153v-352h31v160h78v28h-78v135h88v29h-119zM377 1153v-352h31v162h96v-162h31v352h-31v-162h-96v162h-31zM942 807
q20 -8 43 -8q64 0 64 73v281h-33v-281q0 -45 -33 -45q-13 0 -41 11v-31zM760 952l-27 6q-9 -39 -16 -61h-2l-33 64q47 44 47 86q0 28 -14 45.5t-41 17.5q-26 0 -42 -18t-16 -45q0 -9 1 -16.5t4.5 -16.5t6 -13.5t9 -16.5t8.5 -17q-47 -38 -47 -97q0 -34 16.5 -54.5
t42.5 -20.5q41 0 60 49h2l24 -49l25 12l-35 65q16 40 27 80zM1071 662v-95h16v25l17 16l31 -41h20l-41 54l37 41h-21l-40 -50h-3v50h-16zM999 598l21 -31h18l-24 35q20 8 20 29q0 13 -10 22t-25 9h-41v-95h17v31h24zM872 565q22 0 36 14.5t14 34.5q0 19 -14.5 34.5
t-35.5 15.5t-35 -15t-14 -35q0 -21 14 -35t35 -14zM758 616l-27 46h-18l37 -60v-35h16v35l37 60h-19zM395 662v-95h70v15h-53v26h47v15h-47v24h53v15h-70zM270 662v-95h17v66l51 -66h14v95h-16v-66l-51 66h-15zM494 662l28 -97h17l22 70h2l23 -70h16l29 97h-17l-20 -72h-2
l-23 72h-14l-23 -72h-2l-20 72h-16zM670 981q-25 48 -25 66q0 17 8.5 27.5t20.5 10.5q26 0 26 -38q0 -31 -30 -66zM700 866q-16 -43 -41 -43q-14 0 -23 14t-9 37q0 40 32 72zM997 612h-22v35h22q21 0 21 -16q0 -8 -6 -13.5t-15 -5.5zM872 580q-14 0 -23 10t-9 24q0 13 9 24
t23 11t23.5 -11t9.5 -24q0 -14 -9 -24t-24 -10z" />
    <glyph glyph-name="caron.alt" 
d="M430 1196l19 238q6 65 69 65h31q45 0 45 -43q0 -19 -10 -49l-72 -217q-11 -41 -45 -41q-42 0 -37 47z" />
    <glyph glyph-name="NUL" horiz-adv-x="0" 
 />
    </font>
</defs>
</svg>
