<?xml version="1.0" encoding="UTF-8"?><svg id="Capa_2" xmlns="http://www.w3.org/2000/svg" viewBox="0 0 443.35 402.49"><defs><style>.cls-1{fill:#c73c20;fill-rule:evenodd;}</style></defs><g id="Capa_1-2"><g><path class="cls-1" d="m53.17,156.25C22.81,162.67,0,189.62,0,221.88s22.81,59.22,53.17,65.64c26.28,67.25,91.74,114.97,168.29,114.97s141.95-47.66,168.26-114.89c30.57-6.21,53.63-33.29,53.63-65.72s-23.05-59.49-53.65-65.74c-26.3-67.21-91.74-114.87-168.25-114.87S79.44,88.98,53.17,156.23v.02Zm12.12,29.56c6.42-.31,11.97-4.54,13.97-10.63,19.63-59.74,75.9-102.93,142.19-102.93s122.56,43.18,142.19,102.92c2.02,6.15,7.64,10.38,14.1,10.63,19.24.78,34.63,16.66,34.63,36.1s-15.4,35.32-34.63,36.1c-6.46.25-12.07,4.48-14.1,10.63-19.63,59.74-75.92,102.92-142.19,102.92s-122.56-43.2-142.19-102.93c-2-6.09-7.55-10.32-13.97-10.63-19.11-.93-34.33-16.74-34.33-36.08s15.21-35.15,34.33-36.08h0Z"/><path class="cls-1" d="m256.46,70.47c.72,3.28,1.12,6.69,1.12,10.2,0,25.64-20.81,46.44-46.44,46.44-8.44,0-16.37-2.25-23.2-6.21-7.39-4.27-16.88-1.76-21.16,5.64-4.27,7.41-1.76,16.88,5.64,21.16,11.39,6.6,24.62,10.38,38.72,10.38,42.73,0,77.4-34.68,77.4-77.4,0-5.82-.64-11.5-1.88-16.97-1.86-8.34-10.16-13.58-18.49-11.72-8.32,1.88-13.58,10.16-11.7,18.49h0Z"/><path class="cls-1" d="m278.43,224.45c1.24-7.31,7.62-12.88,15.27-12.88s14.04,5.57,15.27,12.88c1.4,8.44,9.39,14.12,17.83,12.72,8.42-1.42,14.1-9.41,12.7-17.83-3.69-21.96-22.81-38.72-45.8-38.72s-42.11,16.76-45.8,38.72c-1.4,8.42,4.27,16.41,12.7,17.83,8.44,1.4,16.43-4.27,17.83-12.72h0Z"/><path class="cls-1" d="m154.44,301.89c13.38,23.12,38.39,38.68,67.02,38.68s53.65-15.56,67.02-38.68c4.29-7.39,1.76-16.88-5.64-21.16-7.39-4.27-16.88-1.76-21.16,5.64-8.03,13.89-23.05,23.24-40.23,23.24s-32.2-9.35-40.23-23.24c-4.27-7.39-13.77-9.91-21.16-5.64-7.39,4.27-9.93,13.77-5.64,21.16h0Z"/><path class="cls-1" d="m133.94,224.45c1.24-7.31,7.62-12.88,15.27-12.88s14.04,5.57,15.27,12.88c1.4,8.44,9.39,14.12,17.83,12.72,8.42-1.42,14.1-9.41,12.7-17.83-3.69-21.96-22.81-38.72-45.8-38.72s-42.11,16.76-45.8,38.72c-1.4,8.42,4.27,16.41,12.7,17.83,8.44,1.4,16.43-4.27,17.83-12.72h0Z"/><path class="cls-1" d="m180.18,46.44c-24.19,0-44.87-15.17-53.03-36.49-3.05-7.99-12.01-11.97-20-8.92-7.99,3.05-11.97,12.01-8.92,19.98,12.61,32.96,44.56,56.39,81.95,56.39,8.55,0,15.48-6.94,15.48-15.48s-6.94-15.48-15.48-15.48h0Z"/><path class="cls-1" d="m227.45,42.4c-14.65-5.88-26.32-17.69-31.95-32.45-3.05-7.99-12.03-11.97-20-8.92-7.99,3.05-11.97,12.01-8.92,19.98,8.73,22.81,26.71,41.03,49.33,50.12,7.93,3.18,16.95-.68,20.15-8.61,3.18-7.93-.68-16.95-8.61-20.13h0Z"/></g></g></svg>