<?xml version="1.0" encoding="UTF-8"?><svg id="Capa_2" xmlns="http://www.w3.org/2000/svg" viewBox="0 0 384.99 408.34"><defs><style>.cls-1{fill:#776db1;fill-rule:evenodd;}</style></defs><g id="Capa_1-2"><path class="cls-1" d="m156.21,0h72.56c31.91,0,57.63,0,77.86,2.72,21,2.82,38.69,8.87,52.73,22.91,14.05,14.05,20.09,31.73,22.91,52.73,2.72,20.23,2.72,45.95,2.72,77.86v14.23c0,31.91,0,57.63-2.72,77.86-2.82,21-8.86,38.69-22.91,52.73-14.04,14.05-31.73,20.09-52.73,22.91-9.9,1.33-21.12,2.01-33.74,2.36-6.85,14.82-6.81,32.09.42,47.03h24.18c9.66,0,17.5,7.84,17.5,17.5s-7.84,17.5-17.5,17.5h-34.61c-.25,0-.5,0-.75,0H122.86c-.25,0-.5,0-.75,0h-34.61c-9.66,0-17.5-7.84-17.5-17.5s7.84-17.5,17.5-17.5h24.18c7.23-14.94,7.27-32.21.42-47.03-12.62-.34-23.84-1.02-33.74-2.36-21-2.82-38.69-8.86-52.73-22.91-14.05-14.04-20.09-31.73-22.91-52.73-2.72-20.23-2.72-45.95-2.72-77.86v-14.23c0-31.91,0-57.63,2.72-77.86,2.82-21,8.86-38.68,22.91-52.73C39.67,11.59,57.36,5.54,78.36,2.72,98.59,0,124.31,0,156.22,0h0Zm79.52,326.67c-3.98,15.24-3.9,31.35.34,46.67h-87.15c4.23-15.32,4.31-31.43.34-46.67h86.48ZM83.02,37.41c-17.12,2.3-26.19,6.52-32.65,12.97-6.46,6.46-10.67,15.52-12.97,32.64-2.37,17.62-2.41,40.98-2.41,74.48v11.67c0,21.18.02,38.31.62,52.5h313.75c.61-14.19.62-31.32.62-52.5v-11.67c0-33.49-.04-56.85-2.41-74.48-2.3-17.12-6.51-26.19-12.97-32.65-6.46-6.46-15.52-10.67-32.65-12.97-17.62-2.37-40.98-2.41-74.48-2.41h-70c-33.49,0-56.85.04-74.48,2.41h0Zm262.07,219.26H39.9c2.44,9.15,5.89,15.04,10.47,19.62,6.46,6.46,15.53,10.67,32.65,12.97,17.63,2.37,40.98,2.41,74.48,2.41h70c33.49,0,56.85-.04,74.48-2.41,17.12-2.3,26.19-6.51,32.65-12.97,4.58-4.58,8.03-10.48,10.47-19.62h0Z"/></g></svg>