<?xml version="1.0" encoding="UTF-8"?><svg id="Capa_2" xmlns="http://www.w3.org/2000/svg" viewBox="0 0 530.77 530.66"><defs><style>.cls-1{fill:#6ec5be;}</style></defs><g id="Capa_1-2"><g><path class="cls-1" d="m455.45,48.09C372.53-20.75,250.82-15.07,174.67,61.2v-.09c-65.8,66.02-79.86,167.67-34.44,249.07l-123.56,123.54c-14.35,14.32-19.98,35.22-14.75,54.81,5.23,19.59,20.51,34.91,40.09,40.18,19.58,5.27,40.49-.31,54.84-14.63l123.63-123.54c94.07,52.59,212.71,24.83,273.69-64.04,60.97-88.86,44.18-209.55-38.73-278.4h0ZM70,487.2c-7.39,7.36-19.35,7.36-26.75,0-3.61-3.47-5.64-8.26-5.64-13.27s2.04-9.8,5.64-13.27l118.61-118.61c4,4.78,8.15,9.48,12.66,13.99s9.21,8.66,13.99,12.66l-118.52,118.5Zm372.76-158.02l-.07-.04c-66.63,66.63-174.65,66.63-241.28,0-66.63-66.62-66.63-174.65,0-241.27s174.65-66.62,241.27,0c66.58,66.65,66.61,174.62.08,241.31h0Z"/><path class="cls-1" d="m322.12,75.85c-73.29,0-132.7,59.41-132.7,132.7,0,10.47,8.48,18.96,18.95,18.96s18.96-8.49,18.96-18.96c0-52.35,42.43-94.78,94.78-94.78,10.47,0,18.96-8.49,18.96-18.96s-8.48-18.96-18.95-18.96h0Z"/></g></g></svg>