<?xml version="1.0" encoding="UTF-8"?><svg id="Capa_2" xmlns="http://www.w3.org/2000/svg" viewBox="0 0 453.72 366.52"><defs><style>.cls-1{fill:#819b2d;}</style></defs><g id="Capa_1-2"><path class="cls-1" d="m452.49,115.58v-1.57c-.74-1.47-1.68-2.82-2.8-4.03-1.29-1.27-2.77-2.33-4.38-3.15L235.32,1.83c-4.91-2.44-10.67-2.44-15.58,0L9.74,106.83c-4.04,2-7.15,5.47-8.69,9.71-1.54,4.23-1.39,8.9.43,13.02,1.81,4.12,5.15,7.39,9.31,9.11l92.93,38.33v119.52c0,18.57,7.38,36.37,20.5,49.5,13.12,13.13,30.93,20.5,49.5,20.5h105c18.57,0,36.37-7.38,49.5-20.5,13.13-13.12,20.5-30.93,20.5-49.5v-119.52l70-29.23v78.75c0,6.25,3.34,12.03,8.75,15.16s12.09,3.12,17.5,0,8.75-8.9,8.75-15.16v-105c-.06-2.04-.47-4.05-1.23-5.95h0Zm-138.77,180.95c0,9.28-3.69,18.18-10.25,24.75-6.57,6.56-15.47,10.25-24.75,10.25h-105c-9.28,0-18.18-3.69-24.75-10.25-6.56-6.57-10.25-15.47-10.25-24.75v-105l80.85,33.6c4.31,1.8,9.16,1.8,13.47,0l80.68-33.6v105Zm-87.5-106.4L58.22,120.13,226.22,36.13l168,84-168,70Z"/></g></svg>